<?xml version="1.0" encoding="utf-8" ?>
<svg baseProfile="tiny" height="100%" version="1.2" width="100%" xmlns="http://www.w3.org/2000/svg" xmlns:ev="http://www.w3.org/2001/xml-events" xmlns:xlink="http://www.w3.org/1999/xlink"><defs /><path d="M 229.0,130.5 228.0,130.5 227.0,130.5 226.0,130.5 225.0,130.5 224.0,130.5 223.0,130.5 222.0,130.5 221.0,130.5 220.0,130.5 219.0,130.5 218.0,130.5 217.0,130.5 216.5,130.0 216.0,129.5 215.0,129.5 214.0,129.5 213.0,129.5 212.0,129.5 211.0,129.5 210.5,129.0 210.0,128.5 209.0,128.5 208.0,128.5 207.5,128.0 207.0,127.5 206.0,127.5 205.0,127.5 204.0,127.5 203.5,127.0 203.0,126.5 202.0,126.5 201.0,126.5 200.5,126.0 200.0,125.5 199.0,125.5 198.5,125.0 198.0,124.5 197.0,124.5 196.5,124.0 196.0,123.5 195.0,123.5 194.5,123.0 194.0,122.5 193.5,122.0 193.0,121.5 192.0,121.5 191.5,121.0 191.0,120.5 190.0,120.5 189.5,120.0 189.0,119.5 188.5,119.0 188.0,118.5 187.5,118.0 187.0,117.5 186.0,117.5 185.5,117.0 185.0,116.5 184.5,116.0 184.0,115.5 183.5,115.0 183.0,114.5 182.5,114.0 182.0,113.5 181.5,113.0 181.0,112.5 180.5,112.0 180.0,111.5 179.5,111.0 179.0,110.5 178.5,110.0 178.0,109.5 177.5,109.0 177.0,108.5 176.5,108.0 176.0,107.5 175.5,107.0 175.0,106.5 174.5,106.0 174.0,105.5 173.5,105.0 173.0,104.5 172.5,104.0 172.0,103.5 171.5,103.0 171.0,102.5 170.5,102.0 170.0,101.5 169.5,101.0 169.0,100.5 168.5,100.0 168.0,99.5 167.5,99.0 167.0,98.5 166.5,98.0 166.0,97.5 165.5,97.0 165.0,96.5 164.5,96.0 164.0,95.5 163.5,95.0 163.0,94.5 162.5,94.0 162.0,93.5 161.5,93.0 161.0,92.5 160.5,92.0 160.0,91.5 159.5,91.0 159.0,90.5 158.5,90.0 158.0,89.5 157.5,89.0 157.0,88.5 156.5,88.0 156.0,87.5 155.5,87.0 156.0,86.5 156.5,86.0 157.0,85.5 157.5,85.0 158.0,84.5 158.5,84.0 159.0,83.5 159.5,83.0 160.0,82.5 160.5,82.0 161.0,81.5 161.5,81.0 162.0,80.5 162.5,80.0 163.0,79.5 163.5,79.0 164.0,78.5 164.5,78.0 165.0,77.5 165.5,77.0 165.5,76.0 165.0,75.5 164.5,75.0 164.0,74.5 163.5,74.0 163.0,73.5 162.5,73.0 162.0,72.5 161.5,72.0 161.0,71.5 160.5,71.0 160.0,70.5 159.5,70.0 159.0,69.5 158.5,69.0 158.0,68.5 157.5,68.0 157.0,67.5 156.5,67.0 156.0,66.5 155.5,67.0 155.0,67.5 154.5,68.0 154.0,68.5 153.5,69.0 153.0,69.5 152.5,70.0 152.0,70.5 151.5,71.0 151.0,71.5 150.5,72.0 150.0,72.5 149.5,73.0 149.0,73.5 148.5,74.0 148.0,74.5 147.5,75.0 147.0,75.5 146.5,76.0 146.0,76.5 145.5,77.0 145.0,77.5 144.5,78.0 144.0,78.5 143.5,79.0 143.0,79.5 142.5,80.0 142.0,80.5 141.5,81.0 141.0,81.5 140.5,82.0 140.0,82.5 139.5,83.0 139.0,83.5 138.5,84.0 138.0,84.5 137.5,85.0 137.0,85.5 136.5,86.0 136.0,86.5 135.5,87.0 135.0,87.5 134.5,88.0 134.0,88.5 133.5,89.0 133.0,89.5 132.5,90.0 132.0,90.5 131.5,91.0 131.0,91.5 130.5,92.0 130.0,92.5 129.5,93.0 129.0,93.5 128.5,94.0 128.0,94.5 127.5,95.0 127.0,95.5 126.5,96.0 126.0,96.5 125.5,97.0 125.0,97.5 124.5,98.0 124.0,98.5 123.5,99.0 123.0,99.5 122.5,100.0 122.0,100.5 121.5,101.0 121.0,101.5 120.5,102.0 120.0,102.5 119.5,103.0 119.0,103.5 118.5,104.0 118.0,104.5 117.5,105.0 117.0,105.5 116.5,106.0 116.0,106.5 115.5,107.0 115.0,107.5 114.5,108.0 114.0,108.5 113.5,109.0 113.0,109.5 112.5,110.0 112.0,110.5 111.5,111.0 111.0,111.5 110.5,112.0 110.0,112.5 109.5,113.0 109.0,113.5 108.5,114.0 108.0,114.5 107.5,115.0 107.0,115.5 106.5,116.0 106.0,116.5 105.5,117.0 105.0,117.5 104.0,117.5 103.5,118.0 103.0,118.5 102.5,119.0 102.0,119.5 101.5,120.0 101.0,120.5 100.0,120.5 99.5,121.0 99.0,121.5 98.0,121.5 97.5,122.0 97.0,122.5 96.5,123.0 96.0,123.5 95.0,123.5 94.5,124.0 94.0,124.5 93.0,124.5 92.5,125.0 92.0,125.5 91.0,125.5 90.0,125.5 89.5,126.0 89.0,126.5 88.0,126.5 87.5,127.0 87.0,127.5 86.0,127.5 85.0,127.5 84.5,128.0 84.0,128.5 83.0,128.5 82.0,128.5 81.0,128.5 80.0,128.5 79.5,129.0 79.0,129.5 78.0,129.5 77.0,129.5 76.0,129.5 75.0,129.5 74.0,129.5 73.5,130.0 73.0,130.5 72.0,130.5 71.0,130.5 70.0,130.5 69.0,130.5 68.0,130.5 67.0,130.5 66.0,130.5 65.0,130.5 64.0,130.5 63.0,130.5 62.0,130.5 61.5,130.0 61.0,129.5 60.0,129.5 59.0,129.5 58.0,129.5 57.0,129.5 56.0,129.5 55.5,129.0 55.0,128.5 54.0,128.5 53.0,128.5 52.0,128.5 51.5,128.0 51.0,127.5 50.0,127.5 49.0,127.5 48.0,127.5 47.5,127.0 47.0,126.5 46.0,126.5 45.5,126.0 45.0,125.5 44.0,125.5 43.5,125.0 43.0,124.5 42.0,124.5 41.0,124.5 40.5,124.0 40.0,123.5 39.5,123.0 39.0,122.5 38.0,122.5 37.5,122.0 37.0,121.5 36.0,121.5 35.5,121.0 35.0,120.5 34.5,120.0 34.0,119.5 33.0,119.5 32.5,119.0 32.0,118.5 31.5,118.0 31.0,117.5 30.5,117.0 30.0,116.5 29.5,116.0 29.0,115.5 28.0,115.5 27.5,115.0 27.0,114.5 26.5,114.0 26.0,113.5 25.5,113.0 25.0,112.5 24.5,112.0 24.0,111.5 23.5,111.0 23.0,110.5 22.5,110.0 22.5,109.0 22.0,108.5 21.5,108.0 21.0,107.5 20.5,107.0 20.0,106.5 19.5,106.0 19.0,105.5 18.5,105.0 18.5,104.0 18.0,103.5 17.5,103.0 17.5,102.0 17.0,101.5 16.5,101.0 16.0,100.5 15.5,100.0 15.5,99.0 15.0,98.5 14.5,98.0 14.5,97.0 14.0,96.5 13.5,96.0 13.5,95.0 13.5,94.0 13.0,93.5 12.5,93.0 12.5,92.0 12.0,91.5 11.5,91.0 11.5,90.0 11.5,89.0 11.0,88.5 10.5,88.0 10.5,87.0 10.5,86.0 10.5,85.0 10.0,84.5 9.5,84.0 9.5,83.0 9.5,82.0 9.5,81.0 9.5,80.0 9.0,79.5 8.5,79.0 8.5,78.0 8.5,77.0 8.5,76.0 8.5,75.0 8.5,74.0 8.5,73.0 8.5,72.0 8.5,71.0 8.5,70.0 8.5,69.0 8.5,68.0 8.5,67.0 8.5,66.0 8.5,65.0 8.5,64.0 9.0,63.5 9.5,63.0 9.5,62.0 9.5,61.0 9.5,60.0 9.5,59.0 9.5,58.0 10.0,57.5 10.5,57.0 10.5,56.0 10.5,55.0 11.0,54.5 11.5,54.0 11.5,53.0 11.5,52.0 12.0,51.5 12.5,51.0 12.5,50.0 12.5,49.0 13.0,48.5 13.5,48.0 13.5,47.0 14.0,46.5 14.5,46.0 14.5,45.0 15.0,44.5 15.5,44.0 15.5,43.0 16.0,42.5 16.5,42.0 16.5,41.0 17.0,40.5 17.5,40.0 18.0,39.5 18.5,39.0 18.5,38.0 19.0,37.5 19.5,37.0 20.0,36.5 20.5,36.0 20.5,35.0 21.0,34.5 21.5,34.0 22.0,33.5 22.5,33.0 23.0,32.5 23.5,32.0 24.0,31.5 24.5,31.0 25.0,30.5 25.5,30.0 26.0,29.5 26.5,29.0 27.0,28.5 27.5,28.0 28.0,27.5 28.5,27.0 29.0,26.5 29.5,26.0 30.0,25.5 30.5,25.0 31.0,24.5 32.0,24.5 32.5,24.0 33.0,23.5 33.5,23.0 34.0,22.5 35.0,22.5 35.5,22.0 36.0,21.5 36.5,21.0 37.0,20.5 38.0,20.5 38.5,20.0 39.0,19.5 40.0,19.5 40.5,19.0 41.0,18.5 42.0,18.5 42.5,18.0 43.0,17.5 44.0,17.5 44.5,17.0 45.0,16.5 46.0,16.5 46.5,16.0 47.0,15.5 48.0,15.5 49.0,15.5 49.5,15.0 50.0,14.5 51.0,14.5 52.0,14.5 53.0,14.5 53.5,14.0 54.0,13.5 55.0,13.5 56.0,13.5 57.0,13.5 58.0,13.5 58.5,13.0 59.0,12.5 60.0,12.5 61.0,12.5 62.0,12.5 63.0,12.5 64.0,12.5 65.0,12.5 66.0,12.5 67.0,12.5 68.0,12.5 69.0,12.5 70.0,12.5 71.0,12.5 72.0,12.5 73.0,12.5 74.0,12.5 75.0,12.5 76.0,12.5 76.5,13.0 77.0,13.5 78.0,13.5 79.0,13.5 80.0,13.5 81.0,13.5 81.5,14.0 82.0,14.5 83.0,14.5 84.0,14.5 85.0,14.5 85.5,15.0 86.0,15.5 87.0,15.5 88.0,15.5 88.5,16.0 89.0,16.5 90.0,16.5 90.5,17.0 91.0,17.5 92.0,17.5 92.5,18.0 93.0,18.5 94.0,18.5 94.5,19.0 95.0,19.5 96.0,19.5 96.5,20.0 97.0,20.5 98.0,20.5 98.5,21.0 99.0,21.5 100.0,21.5 100.5,22.0 101.0,22.5 101.5,23.0 102.0,23.5 102.5,24.0 103.0,24.5 104.0,24.5 104.5,25.0 105.0,25.5 105.5,26.0 106.0,26.5 106.5,27.0 107.0,27.5 107.5,28.0 108.0,28.5 108.5,29.0 109.0,29.5 109.5,30.0 110.0,30.5 110.5,31.0 111.0,31.5 111.5,32.0 112.0,32.5 112.5,33.0 113.0,33.5 113.5,34.0 114.0,34.5 114.5,35.0 115.0,35.5 115.5,36.0 116.0,36.5 116.5,37.0 117.0,37.5 117.5,38.0 118.0,38.5 118.5,39.0 119.0,39.5 119.5,40.0 120.0,40.5 120.5,41.0 121.0,41.5 121.5,42.0 122.0,42.5 122.5,43.0 123.0,43.5 123.5,44.0 124.0,44.5 124.5,45.0 125.0,45.5 125.5,46.0 126.0,46.5 126.5,47.0 127.0,47.5 127.5,48.0 128.0,48.5 128.5,49.0 129.0,49.5 129.5,50.0 130.0,50.5 130.5,50.0 131.0,49.5 131.5,49.0 131.5,48.0 132.0,47.5 132.5,47.0 133.0,46.5 133.5,46.0 134.0,45.5 134.5,45.0 135.0,44.5 135.5,44.0 136.0,43.5 136.5,43.0 137.0,42.5 137.5,42.0 138.0,41.5 139.0,41.5 139.5,41.0 139.5,40.0 140.0,39.5 140.5,40.0 141.0,40.5 141.5,41.0 142.0,41.5 142.5,42.0 143.0,42.5 143.5,43.0 144.0,43.5 144.5,44.0 145.0,44.5 145.5,45.0 146.0,45.5 146.5,46.0 147.0,46.5 147.5,47.0 148.0,47.5 148.5,48.0 149.0,48.5 149.5,49.0 150.0,49.5 150.5,50.0 151.0,50.5 151.5,51.0 152.0,51.5 152.5,52.0 153.0,52.5 153.5,53.0 154.0,53.5 154.5,54.0 155.0,54.5 155.5,55.0 156.0,55.5 156.5,56.0 157.0,56.5 157.5,57.0 158.0,57.5 158.5,58.0 159.0,58.5 159.5,59.0 160.0,59.5 160.5,60.0 161.0,60.5 161.5,61.0 162.0,61.5 162.5,62.0 163.0,62.5 163.5,63.0 164.0,63.5 164.5,64.0 165.0,64.5 165.5,65.0 166.0,65.5 166.5,66.0 167.0,66.5 167.5,67.0 168.0,67.5 168.5,68.0 169.0,68.5 169.5,69.0 170.0,69.5 170.5,70.0 171.0,70.5 171.5,71.0 172.0,71.5 172.5,72.0 173.0,72.5 173.5,73.0 174.0,73.5 174.5,74.0 175.0,74.5 175.5,75.0 176.0,75.5 176.5,76.0 176.5,77.0 176.0,77.5 175.5,78.0 175.0,78.5 174.5,79.0 174.0,79.5 173.5,80.0 173.0,80.5 172.5,81.0 172.0,81.5 171.5,82.0 171.0,82.5 170.5,83.0 170.0,83.5 169.5,84.0 169.0,84.5 168.5,85.0 168.0,85.5 167.5,86.0 167.0,86.5 166.5,87.0 167.0,87.5 167.5,88.0 168.0,88.5 168.5,89.0 169.0,89.5 169.5,90.0 170.0,90.5 170.5,91.0 171.0,91.5 171.5,92.0 172.0,92.5 172.5,93.0 173.0,93.5 173.5,94.0 174.0,94.5 174.5,95.0 175.0,95.5 175.5,96.0 176.0,96.5 176.5,97.0 177.0,97.5 177.5,98.0 178.0,98.5 178.5,99.0 179.0,99.5 179.5,100.0 180.0,100.5 180.5,101.0 181.0,101.5 181.5,102.0 182.0,102.5 182.5,103.0 183.0,103.5 183.5,104.0 184.0,104.5 184.5,105.0 185.0,105.5 185.5,106.0 186.0,106.5 186.5,107.0 187.0,107.5 187.5,108.0 188.0,108.5 188.5,109.0 189.0,109.5 189.5,110.0 190.0,110.5 191.0,110.5 191.5,111.0 192.0,111.5 192.5,112.0 193.0,112.5 193.5,113.0 194.0,113.5 195.0,113.5 195.5,114.0 196.0,114.5 196.5,115.0 197.0,115.5 198.0,115.5 198.5,116.0 199.0,116.5 200.0,116.5 200.5,117.0 201.0,117.5 202.0,117.5 202.5,118.0 203.0,118.5 204.0,118.5 204.5,119.0 205.0,119.5 206.0,119.5 207.0,119.5 207.5,120.0 208.0,120.5 209.0,120.5 210.0,120.5 211.0,120.5 211.5,121.0 212.0,121.5 213.0,121.5 214.0,121.5 215.0,121.5 216.0,121.5 217.0,121.5 217.5,122.0 218.0,122.5 219.0,122.5 220.0,122.5 221.0,122.5 222.0,122.5 223.0,122.5 224.0,122.5 225.0,122.5 226.0,122.5 227.0,122.5 228.0,122.5 229.0,122.5 229.5,122.0 230.0,121.5 231.0,121.5 232.0,121.5 233.0,121.5 234.0,121.5 235.0,121.5 235.5,121.0 236.0,120.5 237.0,120.5 238.0,120.5 239.0,120.5 239.5,120.0 240.0,119.5 241.0,119.5 241.5,119.0 242.0,118.5 243.0,118.5 243.5,118.0 244.0,117.5 245.0,117.5 246.0,117.5 246.5,117.0 247.0,116.5 248.0,116.5 248.5,116.0 249.0,115.5 249.5,115.0 250.0,114.5 251.0,114.5 251.5,114.0 252.0,113.5 252.5,113.0 253.0,112.5 254.0,112.5 254.5,112.0 255.0,111.5 255.5,111.0 256.0,110.5 256.5,110.0 257.0,109.5 257.5,109.0 258.0,108.5 258.5,108.0 259.0,107.5 259.5,107.0 260.0,106.5 260.5,106.0 261.0,105.5 261.5,105.0 262.0,104.5 262.5,104.0 263.0,103.5 263.5,103.0 264.0,102.5 264.5,102.0 264.5,101.0 265.0,100.5 265.5,100.0 266.0,99.5 266.5,99.0 266.5,98.0 267.0,97.5 267.5,97.0 268.0,96.5 268.5,96.0 268.5,95.0 268.5,94.0 269.0,93.5 269.5,93.0 269.5,92.0 270.0,91.5 270.5,91.0 270.5,90.0 271.0,89.5 271.5,89.0 271.5,88.0 271.5,87.0 272.0,86.5 272.5,86.0 272.5,85.0 272.5,84.0 273.0,83.5 273.5,83.0 273.5,82.0 273.5,81.0 273.5,80.0 273.5,79.0 273.5,78.0 274.0,77.5 274.5,77.0 274.5,76.0 274.5,75.0 274.5,74.0 274.5,73.0 274.5,72.0 274.5,71.0 274.5,70.0 274.5,69.0 274.5,68.0 274.5,67.0 274.5,66.0 274.0,65.5 273.5,65.0 273.5,64.0 273.5,63.0 273.5,62.0 273.5,61.0 273.5,60.0 273.5,59.0 273.0,58.5 272.5,58.0 272.5,57.0 272.5,56.0 272.0,55.5 271.5,55.0 271.5,54.0 271.5,53.0 271.0,52.5 270.5,52.0 270.5,51.0 270.0,50.5 269.5,50.0 269.5,49.0 269.0,48.5 268.5,48.0 268.5,47.0 268.0,46.5 267.5,46.0 267.5,45.0 267.0,44.5 266.5,44.0 266.0,43.5 265.5,43.0 265.5,42.0 265.0,41.5 264.5,41.0 264.0,40.5 263.5,40.0 263.0,39.5 262.5,39.0 262.5,38.0 262.0,37.5 261.5,37.0 261.0,36.5 260.5,36.0 260.0,35.5 259.5,35.0 259.0,34.5 258.5,34.0 258.0,33.5 257.5,33.0 257.0,32.5 256.0,32.5 255.5,32.0 255.0,31.5 254.5,31.0 254.0,30.5 253.5,30.0 253.0,29.5 252.0,29.5 251.5,29.0 251.0,28.5 250.5,28.0 250.0,27.5 249.0,27.5 248.5,27.0 248.0,26.5 247.5,26.0 247.0,25.5 246.0,25.5 245.0,25.5 244.5,25.0 244.0,24.5 243.0,24.5 242.5,24.0 242.0,23.5 241.0,23.5 240.5,23.0 240.0,22.5 239.0,22.5 238.0,22.5 237.5,22.0 237.0,21.5 236.0,21.5 235.0,21.5 234.0,21.5 233.0,21.5 232.5,21.0 232.0,20.5 231.0,20.5 230.0,20.5 229.0,20.5 228.0,20.5 227.0,20.5 226.0,20.5 225.0,20.5 224.0,20.5 223.0,20.5 222.0,20.5 221.0,20.5 220.0,20.5 219.0,20.5 218.0,20.5 217.0,20.5 216.0,20.5 215.0,20.5 214.0,20.5 213.5,21.0 213.0,21.5 212.0,21.5 211.0,21.5 210.0,21.5 209.5,22.0 209.0,22.5 208.0,22.5 207.0,22.5 206.5,23.0 206.0,23.5 205.0,23.5 204.0,23.5 203.5,24.0 203.0,24.5 202.0,24.5 201.5,25.0 201.0,25.5 200.0,25.5 199.5,26.0 199.0,26.5 198.0,26.5 197.5,27.0 197.0,27.5 196.5,28.0 196.0,28.5 195.0,28.5 194.5,29.0 194.0,29.5 193.5,30.0 193.0,30.5 192.0,30.5 191.5,31.0 191.0,31.5 190.5,32.0 190.0,32.5 189.5,33.0 189.0,33.5 188.5,34.0 188.0,34.5 187.5,35.0 187.0,35.5 186.5,36.0 186.0,36.5 185.5,37.0 185.0,37.5 184.5,38.0 184.0,38.5 183.5,39.0 183.0,39.5 182.5,40.0 182.0,40.5 181.5,41.0 181.0,41.5 180.5,42.0 180.0,42.5 179.5,43.0 179.0,43.5 178.5,44.0 178.0,44.5 177.5,45.0 177.0,45.5 176.5,46.0 176.0,46.5 175.5,47.0 175.0,47.5 174.5,48.0 174.0,48.5 173.5,49.0 173.0,49.5 172.5,50.0 172.0,50.5 171.5,51.0 171.0,51.5 170.5,52.0 170.0,52.5 169.5,53.0 170.0,53.5 170.5,54.0 171.0,54.5 171.5,55.0 172.0,55.5 172.5,56.0 173.0,56.5 173.5,57.0 173.5,58.0 174.0,58.5 174.5,59.0 175.0,59.5 176.0,59.5 176.5,60.0 176.5,61.0 177.0,61.5 178.0,61.5 178.5,62.0 179.0,62.5 179.5,63.0 180.0,63.5 180.5,64.0 181.0,64.5 181.5,65.0 182.0,65.5 182.5,66.0 183.0,66.5 183.5,67.0 184.0,67.5 184.5,68.0 184.5,69.0 184.0,69.5 183.5,70.0 183.0,70.5 182.5,71.0 182.0,71.5 181.5,72.0 181.0,72.5 180.5,73.0 180.0,73.5 179.5,74.0 179.0,74.5 178.5,74.0 178.0,73.5 177.5,73.0 177.0,72.5 176.5,72.0 176.0,71.5 175.5,71.0 175.0,70.5 174.5,70.0 174.0,69.5 173.5,69.0 173.0,68.5 172.5,68.0 172.0,67.5 171.5,67.0 171.0,66.5 170.5,66.0 170.0,65.5 169.5,65.0 169.0,64.5 168.5,64.0 168.0,63.5 167.5,63.0 167.0,62.5 166.5,62.0 166.0,61.5 165.5,61.0 165.0,60.5 164.5,60.0 164.0,59.5 163.5,59.0 163.0,58.5 162.5,58.0 162.0,57.5 161.5,57.0 161.0,56.5 160.5,56.0 160.0,55.5 159.5,55.0 159.0,54.5 158.5,54.0 158.0,53.5 157.5,53.0 157.0,52.5 156.5,52.0 156.0,51.5 155.5,51.0 155.0,50.5 154.5,50.0 154.0,49.5 153.5,49.0 153.0,48.5 152.5,48.0 152.0,47.5 151.5,47.0 151.0,46.5 150.5,46.0 150.0,45.5 149.5,45.0 149.0,44.5 148.5,44.0 148.0,43.5 147.5,43.0 147.0,42.5 146.5,42.0 146.0,41.5 145.5,41.0 145.0,40.5 144.5,40.0 144.0,39.5 143.5,39.0 143.0,38.5 142.5,38.0 142.5,37.0 143.0,36.5 144.0,36.5 144.5,36.0 144.5,35.0 145.0,34.5 145.5,34.0 146.0,33.5 146.5,33.0 147.0,32.5 148.0,32.5 149.0,32.5 149.5,33.0 150.0,33.5 150.5,34.0 151.0,34.5 151.5,35.0 152.0,35.5 152.5,36.0 152.5,37.0 153.0,37.5 154.0,37.5 154.5,38.0 155.0,38.5 155.5,39.0 156.0,39.5 156.5,40.0 157.0,40.5 157.5,41.0 157.5,42.0 158.0,42.5 158.5,43.0 159.0,43.5 159.5,44.0 160.0,44.5 161.0,44.5 161.5,45.0 162.0,45.5 162.5,46.0 163.0,46.5 163.5,47.0 164.0,47.5 164.5,47.0 165.0,46.5 165.5,46.0 166.0,45.5 166.5,45.0 167.0,44.5 167.5,44.0 168.0,43.5 168.5,43.0 169.0,42.5 169.5,42.0 170.0,41.5 170.5,41.0 171.0,40.5 171.5,40.0 172.0,39.5 172.5,39.0 173.0,38.5 173.5,38.0 174.0,37.5 174.5,37.0 175.0,36.5 175.5,36.0 175.5,35.0 176.0,34.5 177.0,34.5 177.5,34.0 178.0,33.5 178.5,33.0 178.5,32.0 179.0,31.5 179.5,31.0 180.0,30.5 180.5,30.0 181.0,29.5 182.0,29.5 182.5,29.0 183.0,28.5 183.5,28.0 184.0,27.5 184.5,27.0 185.0,26.5 185.5,26.0 186.0,25.5 186.5,25.0 187.0,24.5 187.5,24.0 188.0,23.5 189.0,23.5 189.5,23.0 190.0,22.5 190.5,22.0 191.0,21.5 192.0,21.5 192.5,21.0 193.0,20.5 193.5,20.0 194.0,19.5 195.0,19.5 195.5,19.0 196.0,18.5 197.0,18.5 197.5,18.0 198.0,17.5 199.0,17.5 200.0,17.5 200.5,17.0 201.0,16.5 202.0,16.5 202.5,16.0 203.0,15.5 204.0,15.5 205.0,15.5 205.5,15.0 206.0,14.5 207.0,14.5 208.0,14.5 209.0,14.5 209.5,14.0 210.0,13.5 211.0,13.5 212.0,13.5 213.0,13.5 213.5,13.0 214.0,12.5 215.0,12.5 216.0,12.5 217.0,12.5 218.0,12.5 219.0,12.5 220.0,12.5 221.0,12.5 222.0,12.5 223.0,12.5 224.0,12.5 225.0,12.5 226.0,12.5 227.0,12.5 228.0,12.5 229.0,12.5 230.0,12.5 231.0,12.5 232.0,12.5 232.5,13.0 233.0,13.5 234.0,13.5 235.0,13.5 236.0,13.5 237.0,13.5 237.5,14.0 238.0,14.5 239.0,14.5 240.0,14.5 241.0,14.5 241.5,15.0 242.0,15.5 243.0,15.5 243.5,16.0 244.0,16.5 245.0,16.5 246.0,16.5 246.5,17.0 247.0,17.5 248.0,17.5 248.5,18.0 249.0,18.5 250.0,18.5 250.5,19.0 251.0,19.5 252.0,19.5 252.5,20.0 253.0,20.5 254.0,20.5 254.5,21.0 255.0,21.5 255.5,22.0 256.0,22.5 257.0,22.5 257.5,23.0 258.0,23.5 258.5,24.0 259.0,24.5 259.5,25.0 260.0,25.5 261.0,25.5 261.5,26.0 262.0,26.5 262.5,27.0 263.0,27.5 263.5,28.0 264.0,28.5 264.5,29.0 265.0,29.5 265.5,30.0 266.0,30.5 266.5,31.0 267.0,31.5 267.5,32.0 268.0,32.5 268.5,33.0 269.0,33.5 269.5,34.0 269.5,35.0 270.0,35.5 270.5,36.0 271.0,36.5 271.5,37.0 272.0,37.5 272.5,38.0 272.5,39.0 273.0,39.5 273.5,40.0 273.5,41.0 274.0,41.5 274.5,42.0 275.0,42.5 275.5,43.0 275.5,44.0 276.0,44.5 276.5,45.0 276.5,46.0 277.0,46.5 277.5,47.0 277.5,48.0 277.5,49.0 278.0,49.5 278.5,50.0 278.5,51.0 279.0,51.5 279.5,52.0 279.5,53.0 279.5,54.0 279.5,55.0 280.0,55.5 280.5,56.0 280.5,57.0 280.5,58.0 280.5,59.0 281.0,59.5 281.5,60.0 281.5,61.0 281.5,62.0 281.5,63.0 281.5,64.0 281.5,65.0 282.0,65.5 282.5,66.0 282.5,67.0 282.5,68.0 282.5,69.0 282.5,70.0 282.5,71.0 282.5,72.0 282.5,73.0 282.5,74.0 282.5,75.0 282.5,76.0 282.5,77.0 282.0,77.5 281.5,78.0 281.5,79.0 281.5,80.0 281.5,81.0 281.5,82.0 281.5,83.0 281.0,83.5 280.5,84.0 280.5,85.0 280.5,86.0 280.5,87.0 280.0,87.5 279.5,88.0 279.5,89.0 279.5,90.0 279.0,90.5 278.5,91.0 278.5,92.0 278.5,93.0 278.0,93.5 277.5,94.0 277.5,95.0 277.0,95.5 276.5,96.0 276.5,97.0 276.5,98.0 276.0,98.5 275.5,99.0 275.0,99.5 274.5,100.0 274.5,101.0 274.0,101.5 273.5,102.0 273.5,103.0 273.0,103.5 272.5,104.0 272.0,104.5 271.5,105.0 271.5,106.0 271.0,106.5 270.5,107.0 270.0,107.5 269.5,108.0 269.0,108.5 268.5,109.0 268.0,109.5 267.5,110.0 267.5,111.0 267.0,111.5 266.5,112.0 266.0,112.5 265.5,113.0 265.0,113.5 264.5,114.0 264.0,114.5 263.5,115.0 263.0,115.5 262.0,115.5 261.5,116.0 261.0,116.5 260.5,117.0 260.0,117.5 259.5,118.0 259.0,118.5 258.5,119.0 258.0,119.5 257.0,119.5 256.5,120.0 256.0,120.5 255.5,121.0 255.0,121.5 254.0,121.5 253.5,122.0 253.0,122.5 252.0,122.5 251.5,123.0 251.0,123.5 250.5,124.0 250.0,124.5 249.0,124.5 248.0,124.5 247.5,125.0 247.0,125.5 246.0,125.5 245.5,126.0 245.0,126.5 244.0,126.5 243.5,127.0 243.0,127.5 242.0,127.5 241.0,127.5 240.0,127.5 239.5,128.0 239.0,128.5 238.0,128.5 237.0,128.5 236.0,128.5 235.5,129.0 235.0,129.5 234.0,129.5 233.0,129.5 232.0,129.5 231.0,129.5 230.0,129.5 229.5,130.0 229.0,130.5" fill="none" stroke="black" stroke-width="2" /><path d="M 74.5,122.0 75.0,121.5 76.0,121.5 77.0,121.5 78.0,121.5 79.0,121.5 79.5,121.0 80.0,120.5 81.0,120.5 82.0,120.5 83.0,120.5 83.5,120.0 84.0,119.5 85.0,119.5 85.5,119.0 86.0,118.5 87.0,118.5 88.0,118.5 88.5,118.0 89.0,117.5 90.0,117.5 90.5,117.0 91.0,116.5 92.0,116.5 92.5,116.0 93.0,115.5 94.0,115.5 94.5,115.0 95.0,114.5 95.5,114.0 96.0,113.5 97.0,113.5 97.5,113.0 98.0,112.5 98.5,112.0 99.0,111.5 99.5,111.0 100.0,110.5 101.0,110.5 101.5,110.0 102.0,109.5 102.5,109.0 103.0,108.5 103.5,108.0 104.0,107.5 104.5,107.0 105.0,106.5 105.5,106.0 106.0,105.5 106.5,105.0 107.0,104.5 107.5,104.0 108.0,103.5 108.5,103.0 109.0,102.5 109.5,102.0 110.0,101.5 110.5,101.0 111.0,100.5 111.5,100.0 112.0,99.5 112.5,99.0 113.0,98.5 113.5,98.0 114.0,97.5 114.5,97.0 115.0,96.5 115.5,96.0 116.0,95.5 116.5,95.0 117.0,94.5 117.5,94.0 118.0,93.5 118.5,93.0 119.0,92.5 119.5,92.0 120.0,91.5 120.5,91.0 121.0,90.5 121.5,90.0 122.0,89.5 122.5,89.0 123.0,88.5 123.5,88.0 124.0,87.5 124.5,87.0 125.0,86.5 125.5,86.0 126.0,85.5 126.5,85.0 127.0,84.5 127.5,84.0 128.0,83.5 128.5,83.0 129.0,82.5 129.5,82.0 130.0,81.5 130.5,81.0 131.0,80.5 131.5,80.0 132.0,79.5 132.5,79.0 133.0,78.5 133.5,78.0 134.0,77.5 134.5,77.0 135.0,76.5 135.5,76.0 136.0,75.5 136.5,75.0 137.0,74.5 137.5,74.0 138.0,73.5 138.5,73.0 139.0,72.5 139.5,72.0 140.0,71.5 140.5,71.0 141.0,70.5 141.5,70.0 142.0,69.5 142.5,69.0 143.0,68.5 143.5,68.0 144.0,67.5 144.5,67.0 145.0,66.5 145.5,66.0 146.0,65.5 146.5,65.0 147.0,64.5 147.5,64.0 148.0,63.5 148.5,63.0 149.0,62.5 149.5,62.0 150.0,61.5 150.5,61.0 150.0,60.5 149.5,60.0 149.0,59.5 148.5,59.0 148.0,58.5 147.5,58.0 147.0,57.5 146.5,57.0 146.0,56.5 145.5,56.0 145.0,55.5 144.5,55.0 144.0,54.5 143.5,54.0 143.0,53.5 142.5,53.0 142.0,52.5 141.5,52.0 141.0,51.5 140.5,51.0 140.0,50.5 139.5,51.0 139.0,51.5 138.5,52.0 138.0,52.5 137.5,53.0 137.0,53.5 136.5,54.0 136.0,54.5 135.5,55.0 135.0,55.5 134.5,56.0 134.5,57.0 134.0,57.5 133.5,58.0 133.0,58.5 132.5,59.0 132.0,59.5 131.5,60.0 131.0,60.5 130.0,60.5 129.0,60.5 128.5,60.0 128.0,59.5 127.5,59.0 127.0,58.5 126.5,58.0 126.0,57.5 125.5,57.0 125.0,56.5 124.5,56.0 124.0,55.5 123.5,55.0 123.0,54.5 122.5,54.0 122.0,53.5 121.5,53.0 121.0,52.5 120.5,52.0 120.0,51.5 119.5,51.0 119.0,50.5 118.5,50.0 118.0,49.5 117.5,49.0 117.0,48.5 116.5,48.0 116.0,47.5 115.5,47.0 115.0,46.5 114.5,46.0 114.0,45.5 113.5,45.0 113.0,44.5 112.5,44.0 112.0,43.5 111.5,43.0 111.0,42.5 110.5,42.0 110.0,41.5 109.5,41.0 109.0,40.5 108.5,40.0 108.0,39.5 107.5,39.0 107.0,38.5 106.5,38.0 106.0,37.5 105.5,37.0 105.0,36.5 104.5,36.0 104.0,35.5 103.5,35.0 103.0,34.5 102.5,34.0 102.0,33.5 101.5,33.0 101.0,32.5 100.5,32.0 100.0,31.5 99.5,31.0 99.0,30.5 98.0,30.5 97.5,30.0 97.0,29.5 96.5,29.0 96.0,28.5 95.0,28.5 94.5,28.0 94.0,27.5 93.0,27.5 92.5,27.0 92.0,26.5 91.5,26.0 91.0,25.5 90.0,25.5 89.5,25.0 89.0,24.5 88.0,24.5 87.5,24.0 87.0,23.5 86.0,23.5 85.0,23.5 84.5,23.0 84.0,22.5 83.0,22.5 82.0,22.5 81.5,22.0 81.0,21.5 80.0,21.5 79.0,21.5 78.0,21.5 77.0,21.5 76.5,21.0 76.0,20.5 75.0,20.5 74.0,20.5 73.0,20.5 72.0,20.5 71.0,20.5 70.0,20.5 69.0,20.5 68.0,20.5 67.0,20.5 66.0,20.5 65.0,20.5 64.0,20.5 63.0,20.5 62.0,20.5 61.0,20.5 60.0,20.5 59.0,20.5 58.5,21.0 58.0,21.5 57.0,21.5 56.0,21.5 55.0,21.5 54.5,22.0 54.0,22.5 53.0,22.5 52.0,22.5 51.0,22.5 50.5,23.0 50.0,23.5 49.0,23.5 48.5,24.0 48.0,24.5 47.0,24.5 46.0,24.5 45.5,25.0 45.0,25.5 44.0,25.5 43.5,26.0 43.0,26.5 42.5,27.0 42.0,27.5 41.0,27.5 40.5,28.0 40.0,28.5 39.0,28.5 38.5,29.0 38.0,29.5 37.5,30.0 37.0,30.5 36.5,31.0 36.0,31.5 35.0,31.5 34.5,32.0 34.0,32.5 33.5,33.0 33.0,33.5 32.5,34.0 32.0,34.5 31.5,35.0 31.0,35.5 30.5,36.0 30.0,36.5 29.5,37.0 29.0,37.5 28.5,38.0 28.0,38.5 27.5,39.0 27.5,40.0 27.0,40.5 26.5,41.0 26.0,41.5 25.5,42.0 25.0,42.5 24.5,43.0 24.5,44.0 24.0,44.5 23.5,45.0 23.5,46.0 23.0,46.5 22.5,47.0 22.0,47.5 21.5,48.0 21.5,49.0 21.5,50.0 21.0,50.5 20.5,51.0 20.5,52.0 20.0,52.5 19.5,53.0 19.5,54.0 19.5,55.0 19.0,55.5 18.5,56.0 18.5,57.0 18.5,58.0 18.0,58.5 17.5,59.0 17.5,60.0 17.5,61.0 17.5,62.0 17.5,63.0 17.0,63.5 16.5,64.0 16.5,65.0 16.5,66.0 16.5,67.0 16.5,68.0 16.5,69.0 16.5,70.0 16.5,71.0 16.5,72.0 16.5,73.0 16.5,74.0 16.5,75.0 16.5,76.0 16.5,77.0 16.5,78.0 16.5,79.0 17.0,79.5 17.5,80.0 17.5,81.0 17.5,82.0 17.5,83.0 17.5,84.0 18.0,84.5 18.5,85.0 18.5,86.0 18.5,87.0 19.0,87.5 19.5,88.0 19.5,89.0 19.5,90.0 20.0,90.5 20.5,91.0 20.5,92.0 21.0,92.5 21.5,93.0 21.5,94.0 22.0,94.5 22.5,95.0 22.5,96.0 23.0,96.5 23.5,97.0 23.5,98.0 24.0,98.5 24.5,99.0 25.0,99.5 25.5,100.0 25.5,101.0 26.0,101.5 26.5,102.0 27.0,102.5 27.5,103.0 28.0,103.5 28.5,104.0 28.5,105.0 29.0,105.5 29.5,106.0 30.0,106.5 30.5,107.0 31.0,107.5 31.5,108.0 32.0,108.5 32.5,109.0 33.0,109.5 34.0,109.5 34.5,110.0 35.0,110.5 35.5,111.0 36.0,111.5 36.5,112.0 37.0,112.5 37.5,113.0 38.0,113.5 39.0,113.5 39.5,114.0 40.0,114.5 40.5,115.0 41.0,115.5 42.0,115.5 42.5,116.0 43.0,116.5 44.0,116.5 44.5,117.0 45.0,117.5 46.0,117.5 46.5,118.0 47.0,118.5 48.0,118.5 49.0,118.5 49.5,119.0 50.0,119.5 51.0,119.5 51.5,120.0 52.0,120.5 53.0,120.5 54.0,120.5 55.0,120.5 55.5,121.0 56.0,121.5 57.0,121.5 58.0,121.5 59.0,121.5 60.0,121.5 60.5,122.0 61.0,122.5 62.0,122.5 63.0,122.5 64.0,122.5 65.0,122.5 66.0,122.5 67.0,122.5 68.0,122.5 69.0,122.5 70.0,122.5 71.0,122.5 72.0,122.5 73.0,122.5 74.0,122.5 74.5,122.0" fill="none" stroke="black" stroke-width="2" /></svg>