<?xml version="1.0" encoding="UTF-8"?>
<svg id="Layer_1" xmlns="http://www.w3.org/2000/svg" xmlns:xlink="http://www.w3.org/1999/xlink" xmlns:ev="http://www.w3.org/2001/xml-events" version="1.1" viewBox="0 0 403 236.1">
  <!-- Generator: Adobe Illustrator 29.3.1, SVG Export Plug-In . SVG Version: 2.1.0 Build 151)  -->
  <defs>
    <style>
      .st0, .st1, .st2, .st3, .st4, .st5 {
        fill: none;
      }

      .st6, .st7, .st8, .st9, .st10 {
        fill: #0096ff;
      }

      .st7 {
        font-size: 8px;
      }

      .st7, .st11, .st12, .st8, .st13, .st9, .st14, .st15, .st10 {
        isolation: isolate;
      }

      .st7, .st11, .st8, .st13, .st14, .st15, .st10 {
        font-family: ArialMT, Arial;
      }

      .st1 {
        stroke: #0096ff;
        stroke-width: 2px;
      }

      .st1, .st2, .st3, .st4, .st5 {
        stroke-miterlimit: 1.4;
      }

      .st2, .st3, .st4, .st5 {
        stroke: #000;
        stroke-width: 1.1px;
      }

      .st2, .st4 {
        stroke-dasharray: 0 2.2;
      }

      .st2, .st5 {
        stroke-linecap: round;
      }

      .st11, .st8, .st9 {
        font-size: 10px;
      }

      .st13, .st10 {
        font-size: 8.7px;
      }

      .st9 {
        font-family: Arial-ItalicMT, Arial;
        font-style: italic;
      }

      .st14 {
        font-size: 5.8px;
      }

      .st15 {
        font-size: 3.6px;
      }
    </style>
  </defs>
  <line class="st5" x1="307.8" y1="58.9" x2="247.2" y2="58.9"/>
  <line class="st5" x1="341.1" y1="59.3" x2="307.8" y2="58.9"/>
  <line class="st5" x1="204.6" y1="105.1" x2="141" y2="105.1"/>
  <line class="st5" x1="357.9" y1="105.5" x2="357.9" y2="88.2"/>
  <line class="st5" x1="262.5" y1="116.7" x2="256.7" y2="116.7"/>
  <line class="st5" x1="287.7" y1="116.7" x2="262.5" y2="116.7"/>
  <line class="st5" x1="204.6" y1="128.3" x2="141.3" y2="128.8"/>
  <line class="st5" x1="357.9" y1="134.5" x2="357.9" y2="128.7"/>
  <line class="st5" x1="357.9" y1="134.5" x2="328.9" y2="134.5"/>
  <line class="st5" x1="357.9" y1="146.1" x2="357.9" y2="134.5"/>
  <line class="st5" x1="140.9" y1="143.4" x2="141.3" y2="128.8"/>
  <line class="st5" x1="287.7" y1="152" x2="287.7" y2="117.3"/>
  <line class="st5" x1="31.4" y1="141" x2="31.3" y2="113.4"/>
  <line class="st5" x1="328.9" y1="163.4" x2="328.9" y2="134.5"/>
  <line class="st5" x1="340.5" y1="163.4" x2="328.9" y2="163.4"/>
  <line class="st5" x1="193.1" y1="169.5" x2="141.3" y2="129"/>
  <line class="st5" x1="287.7" y1="198.3" x2="287.7" y2="175.2"/>
  <line class="st5" x1="262.5" y1="197.7" x2="97.1" y2="197.7"/>
  <line class="st5" x1="357.9" y1="198.1" x2="357.9" y2="175"/>
  <line class="st5" x1="141" y1="203.5" x2="141" y2="197.7"/>
  <circle cx="141" cy="128.4" r="1.6"/>
  <circle cx="262.5" cy="116.7" r="1.6"/>
  <circle cx="357.9" cy="134.5" r="1.6"/>
  <circle cx="141" cy="197.7" r="1.6"/>
  <circle cx="287.7" cy="198.1" r="1.6"/>
  <path class="st2" d="M321.7,104.1h66.6v117.2h-66.6v-117.2Z"/>
  <g>
    <g class="st12">
      <g class="st12">
        <text class="st10" transform="translate(40.1 172.6)"><tspan x="0" y="0">2.5V</tspan></text>
      </g>
    </g>
    <line class="st5" x1="28.5" y1="148.3" x2="34.3" y2="148.3"/>
    <line class="st5" x1="28.5" y1="162.7" x2="34.3" y2="162.7"/>
    <line class="st5" x1="31.4" y1="145.4" x2="31.4" y2="151.1"/>
    <line class="st5" x1="31.4" y1="197.7" x2="31.4" y2="167.1"/>
    <line class="st5" x1="31.4" y1="141" x2="31.4" y2="143.9"/>
    <circle class="st3" cx="31.4" cy="155.5" r="11.6"/>
  </g>
  <g>
    <g class="st12">
      <g class="st12">
        <text class="st15" transform="translate(250.4 114.9)"><tspan x="0" y="0">54</tspan></text>
      </g>
    </g>
    <g class="st12">
      <g class="st12">
        <text class="st13" transform="translate(218 106.3)"><tspan x="0" y="0">+</tspan></text>
      </g>
    </g>
    <g class="st12">
      <g class="st12">
        <text class="st13" transform="translate(219.1 130.9)"><tspan x="0" y="0">-</tspan></text>
      </g>
    </g>
    <g class="st12">
      <g class="st12">
        <text class="st15" transform="translate(207 123.6)"><tspan x="0" y="0">55</tspan></text>
      </g>
    </g>
    <g class="st12">
      <g class="st12">
        <text class="st15" transform="translate(207 110.6)"><tspan x="0" y="0">56</tspan></text>
      </g>
    </g>
    <g class="st12">
      <g class="st12">
        <text class="st13" transform="translate(235.6 92.9)"><tspan x="0" y="0">OTA_pMOS</tspan></text>
      </g>
    </g>
    <g class="st12">
      <g class="st12">
        <text class="st14" transform="translate(214.4 30.2)"><tspan x="0" y="0">VDD</tspan></text>
      </g>
    </g>
    <g class="st12">
      <g class="st12">
        <text class="st15" transform="translate(250.5 64.6)"><tspan x="0" y="0">68</tspan></text>
      </g>
    </g>
    <g class="st12">
      <g class="st12">
        <text class="st14" transform="translate(240 41.5)"><tspan x="0" y="0">2x</tspan></text>
      </g>
    </g>
    <line class="st5" x1="228.4" y1="41.5" x2="228.4" y2="47.3"/>
    <line class="st5" x1="228.4" y1="53.1" x2="236.7" y2="53.1"/>
    <line class="st5" x1="242.9" y1="58.9" x2="245.8" y2="58.9"/>
    <line class="st5" x1="242.9" y1="47.3" x2="242.9" y2="70.4"/>
    <line class="st5" x1="240" y1="70.4" x2="228.4" y2="70.4"/>
    <line class="st5" x1="228.4" y1="70.4" x2="228.4" y2="76.2"/>
    <line class="st5" x1="228.4" y1="53.1" x2="222.6" y2="53.1"/>
    <line class="st5" x1="222.6" y1="53.1" x2="222.6" y2="41.5"/>
    <line class="st5" x1="222.6" y1="41.5" x2="228.4" y2="41.5"/>
    <line class="st5" x1="228.4" y1="41.5" x2="228.4" y2="41.5"/>
    <line class="st5" x1="240" y1="47.3" x2="240" y2="70.4"/>
    <line class="st5" x1="240" y1="47.3" x2="234.2" y2="48.7"/>
    <line class="st5" x1="234.2" y1="48.7" x2="234.2" y2="45.8"/>
    <line class="st5" x1="234.2" y1="45.8" x2="240" y2="47.3"/>
    <line class="st5" x1="234.2" y1="47.3" x2="228.4" y2="47.3"/>
    <line class="st5" x1="228.4" y1="31.4" x2="228.4" y2="41.5"/>
    <line class="st5" x1="224.9" y1="32.8" x2="230.7" y2="29.9"/>
    <line class="st5" x1="228.4" y1="76.2" x2="228.4" y2="103.7"/>
    <line class="st5" x1="245.8" y1="58.9" x2="248.7" y2="58.9"/>
    <line class="st5" x1="248.7" y1="58.9" x2="251.6" y2="58.9"/>
    <line class="st5" x1="216.2" y1="93.6" x2="216.2" y2="139.9"/>
    <line class="st5" x1="245.1" y1="116.7" x2="216.2" y2="93.6"/>
    <line class="st5" x1="216.2" y1="93.6" x2="245.1" y2="116.7"/>
    <line class="st5" x1="245.1" y1="116.7" x2="216.2" y2="139.9"/>
    <line class="st5" x1="216.2" y1="105.1" x2="204.6" y2="105.1"/>
    <line class="st5" x1="204.6" y1="128.3" x2="216.2" y2="128.3"/>
    <line class="st5" x1="245.1" y1="116.7" x2="256.7" y2="116.7"/>
    <rect class="st4" x="204.6" y="24.1" width="52.1" height="120.1"/>
  </g>
  <g>
    <line class="st5" x1="357.9" y1="172.1" x2="357.9" y2="175"/>
    <line class="st5" x1="363.7" y1="169.2" x2="357.9" y2="172.1"/>
    <line class="st5" x1="352.1" y1="163.4" x2="363.7" y2="169.2"/>
    <line class="st5" x1="363.7" y1="157.6" x2="352.1" y2="163.4"/>
    <line class="st5" x1="352.1" y1="151.8" x2="363.7" y2="157.6"/>
    <line class="st5" x1="357.9" y1="146.1" x2="357.9" y2="149"/>
    <line class="st5" x1="357.9" y1="149" x2="352.1" y2="151.8"/>
    <line class="st5" x1="349.2" y1="163.4" x2="340.5" y2="163.4"/>
    <line class="st5" x1="349.2" y1="163.4" x2="346.3" y2="160.5"/>
    <line class="st5" x1="349.2" y1="163.4" x2="346.3" y2="166.3"/>
  </g>
  <g>
    <line class="st5" x1="357.9" y1="108.4" x2="357.9" y2="105.5"/>
    <line class="st5" x1="357.9" y1="125.8" x2="357.9" y2="128.7"/>
    <circle class="st3" cx="357.9" cy="124.4" r="1.4"/>
    <circle class="st3" cx="357.9" cy="109.9" r="1.4"/>
    <path class="st3" d="M359.3,124.2c3.9-.8,6.5-4.6,5.7-8.5-.6-2.9-2.8-5.1-5.7-5.7"/>
  </g>
  <g>
    <g class="st12">
      <g class="st12">
        <text class="st13" transform="translate(290.6 157.5)"><tspan x="0" y="0">CL1</tspan></text>
      </g>
    </g>
    <line class="st5" x1="287.7" y1="165.1" x2="287.7" y2="175.2"/>
    <line class="st5" x1="287.7" y1="162.2" x2="287.7" y2="152"/>
    <line class="st5" x1="281.9" y1="162.2" x2="293.5" y2="162.2"/>
    <line class="st5" x1="281.9" y1="165.1" x2="293.5" y2="165.1"/>
  </g>
  <g>
    <line class="st5" x1="210.5" y1="169.5" x2="193.1" y2="169.5"/>
    <line class="st5" x1="213.5" y1="163.8" x2="210.5" y2="169.5"/>
    <line class="st5" x1="219.4" y1="175.3" x2="213.5" y2="163.8"/>
    <line class="st5" x1="225.2" y1="163.8" x2="219.4" y2="175.3"/>
    <line class="st5" x1="231.1" y1="175.3" x2="225.2" y2="163.8"/>
    <line class="st5" x1="250.2" y1="169.5" x2="234.1" y2="169.5"/>
    <line class="st5" x1="234.1" y1="169.5" x2="231.1" y2="175.3"/>
  </g>
  <g>
    <line class="st5" x1="135.2" y1="203.5" x2="146.8" y2="203.5"/>
    <line class="st5" x1="135.2" y1="203.5" x2="141" y2="209.3"/>
    <line class="st5" x1="146.8" y1="203.5" x2="141" y2="209.3"/>
  </g>
  <g>
    <line class="st5" x1="25.6" y1="107.6" x2="31.4" y2="113.4"/>
    <line class="st5" x1="37.2" y1="83" x2="37.2" y2="107.6"/>
    <line class="st5" x1="25.6" y1="107.6" x2="25.6" y2="83"/>
    <line class="st5" x1="31.4" y1="113.4" x2="37.2" y2="107.6"/>
    <line class="st5" x1="31.4" y1="77.2" x2="37.2" y2="83"/>
    <line class="st5" x1="31.4" y1="77.2" x2="25.6" y2="83"/>
  </g>
  <g class="st12">
    <g class="st12">
      <text class="st13" transform="translate(34.4 103.7) rotate(-90)"><tspan x="0" y="0">VDD</tspan></text>
    </g>
  </g>
  <g>
    <g>
      <line class="st5" x1="141.1" y1="105.3" x2="135.2" y2="111"/>
      <line class="st5" x1="135.2" y1="111" x2="112.1" y2="111"/>
      <line class="st5" x1="112.1" y1="111" x2="112.1" y2="99.5"/>
      <line class="st5" x1="112.1" y1="99.5" x2="135.2" y2="99.5"/>
      <line class="st5" x1="135.2" y1="99.5" x2="141.1" y2="105.3"/>
    </g>
    <g class="st12">
      <g class="st12">
        <text class="st10" transform="translate(118.9 108.3)"><tspan x="0" y="0">in</tspan></text>
      </g>
    </g>
  </g>
  <g class="st12">
    <g class="st12">
      <text class="st11" transform="translate(317.6 231.5)"><tspan x="0" y="0">On MOSbius PCB</tspan></text>
    </g>
  </g>
  <g class="st12">
    <g class="st12">
      <text class="st11" transform="translate(364.3 67.2)"><tspan x="0" y="0">M8</tspan></text>
    </g>
  </g>
  <path class="st5" d="M276.9,117.1"/>
  <path class="st5" d="M281.9,205"/>
  <path class="st5" d="M276.9,198.1"/>
  <line class="st5" x1="357.9" y1="198.1" x2="262.5" y2="197.7"/>
  <g>
    <g class="st12">
      <g class="st12">
        <text class="st15" transform="translate(348.1 86.4)"><tspan x="0" y="0">68</tspan></text>
      </g>
    </g>
    <g class="st12">
      <g class="st12">
        <text class="st14" transform="translate(334.7 43.3)"><tspan x="0" y="0">1x</tspan></text>
      </g>
    </g>
    <g class="st12">
      <g class="st12">
        <text class="st14" transform="translate(357.9 26.5)"><tspan x="0" y="0">VDD</tspan></text>
      </g>
    </g>
    <line class="st5" x1="357.9" y1="88.2" x2="357.9" y2="76.6"/>
    <line class="st5" x1="357.9" y1="41.9" x2="357.9" y2="28.9"/>
    <line class="st5" x1="360.8" y1="30.3" x2="355" y2="27.4"/>
    <line class="st5" x1="357.9" y1="47.7" x2="357.9" y2="41.9"/>
    <line class="st5" x1="349.6" y1="53.5" x2="357.9" y2="53.5"/>
    <line class="st5" x1="340.5" y1="59.3" x2="343.4" y2="59.3"/>
    <line class="st5" x1="343.4" y1="70.8" x2="343.4" y2="47.7"/>
    <line class="st5" x1="357.9" y1="70.8" x2="346.3" y2="70.8"/>
    <line class="st5" x1="357.9" y1="76.6" x2="357.9" y2="70.8"/>
    <line class="st5" x1="363.7" y1="53.5" x2="357.9" y2="53.5"/>
    <line class="st5" x1="363.7" y1="41.9" x2="363.7" y2="53.5"/>
    <line class="st5" x1="357.9" y1="41.9" x2="363.7" y2="41.9"/>
    <line class="st5" x1="357.9" y1="41.9" x2="357.9" y2="41.9"/>
    <line class="st5" x1="346.3" y1="70.8" x2="346.3" y2="47.7"/>
    <line class="st5" x1="352.1" y1="49.1" x2="346.3" y2="47.7"/>
    <line class="st5" x1="352.1" y1="46.2" x2="352.1" y2="49.1"/>
    <line class="st5" x1="346.3" y1="47.7" x2="352.1" y2="46.2"/>
    <line class="st5" x1="357.9" y1="47.7" x2="352.1" y2="47.7"/>
    <path class="st5" d="M340.5,59.3"/>
    <path class="st5" d="M178.5,59.3"/>
    <line class="st5" x1="331.8" y1="79.5" x2="357.9" y2="79.5"/>
    <line class="st5" x1="331.8" y1="59.3" x2="331.8" y2="79.5"/>
  </g>
  <g>
    <g class="st12">
      <g class="st12">
        <text class="st13" transform="translate(100.4 174.9)"><tspan x="0" y="0">CREF</tspan></text>
        <text/>
      </g>
    </g>
    <line class="st5" x1="97.1" y1="182.5" x2="97.1" y2="197.7"/>
    <line class="st5" x1="97.1" y1="179.6" x2="97" y2="149.2"/>
    <line class="st5" x1="91.3" y1="179.6" x2="102.8" y2="179.6"/>
    <line class="st5" x1="91.3" y1="182.5" x2="102.8" y2="182.5"/>
  </g>
  <path class="st5" d="M357.9,34.7"/>
  <g class="st12">
    <g class="st12">
      <text class="st11" transform="translate(211.5 66.8)"><tspan x="0" y="0">M7</tspan></text>
    </g>
  </g>
  <g class="st12">
    <g class="st12">
      <text class="st8" transform="translate(371.2 92.9)"><tspan x="0" y="0">I</tspan></text>
    </g>
  </g>
  <g class="st12">
    <g class="st12">
      <text class="st7" transform="translate(374.6 95.1)"><tspan x="0" y="0">REF</tspan></text>
    </g>
  </g>
  <g>
    <line class="st0" x1="365" y1="76.6" x2="365" y2="98.1"/>
    <g>
      <line class="st1" x1="365" y1="76.6" x2="365" y2="91"/>
      <polygon class="st6" points="365 98.1 360.9 88.2 365 90.5 369.1 88.2 365 98.1"/>
    </g>
  </g>
  <g class="st12">
    <g class="st12">
      <text class="st9" transform="translate(265.6 112.6)"><tspan x="0" y="0">OTAout</tspan></text>
    </g>
  </g>
  <g>
    <line class="st5" x1="72.9" y1="160.9" x2="72.9" y2="157.9"/>
    <line class="st5" x1="72.9" y1="157.9" x2="67.1" y2="155.1"/>
    <line class="st5" x1="67.1" y1="155.1" x2="78.7" y2="149.2"/>
    <line class="st5" x1="78.7" y1="149.2" x2="67.1" y2="143.4"/>
    <line class="st5" x1="67.1" y1="143.4" x2="78.7" y2="137.6"/>
    <line class="st5" x1="72.9" y1="134.9" x2="72.9" y2="131.9"/>
    <line class="st5" x1="78.7" y1="137.6" x2="72.9" y2="134.9"/>
    <line class="st5" x1="97" y1="149.2" x2="81.6" y2="149.2"/>
    <line class="st5" x1="84.5" y1="146.4" x2="81.6" y2="149.2"/>
    <line class="st5" x1="84.5" y1="152.1" x2="81.6" y2="149.2"/>
  </g>
  <line class="st5" x1="72.9" y1="121" x2="31.7" y2="121"/>
  <line class="st5" x1="97.1" y1="197.7" x2="31.8" y2="198"/>
  <line class="st5" x1="72.9" y1="197.7" x2="72.9" y2="158.7"/>
  <line class="st5" x1="72.9" y1="131.2" x2="72.9" y2="121"/>
  <g class="st12">
    <g class="st12">
      <text class="st13" transform="translate(217.5 160)"><tspan x="0" y="0">R2</tspan></text>
      <text/>
    </g>
  </g>
  <g>
    <g class="st12">
      <g class="st12">
        <text class="st8" transform="translate(90.5 141.4)"><tspan x="0" y="0">V</tspan></text>
      </g>
    </g>
    <g class="st12">
      <g class="st12">
        <text class="st7" transform="translate(96.2 143.6)"><tspan x="0" y="0">REF</tspan></text>
      </g>
    </g>
  </g>
  <line class="st0" x1="108.3" y1="161.7" x2="108.3" y2="183.1"/>
  <g>
    <g class="st12">
      <g class="st12">
        <text class="st13" transform="translate(150.3 186.8)"><tspan x="0" y="0">CB1</tspan></text>
      </g>
    </g>
    <line class="st5" x1="141" y1="185.6" x2="141" y2="195.8"/>
    <line class="st5" x1="141" y1="182.8" x2="141" y2="172.5"/>
    <line class="st5" x1="135.2" y1="182.8" x2="146.7" y2="182.8"/>
    <line class="st5" x1="135.2" y1="185.6" x2="146.7" y2="185.6"/>
  </g>
  <g>
    <line class="st5" x1="140.9" y1="169.4" x2="140.9" y2="172.2"/>
    <line class="st5" x1="135.2" y1="166.5" x2="140.9" y2="169.4"/>
    <line class="st5" x1="146.7" y1="160.7" x2="135.2" y2="166.5"/>
    <line class="st5" x1="135.2" y1="155" x2="146.7" y2="160.7"/>
    <line class="st5" x1="146.7" y1="149.2" x2="135.2" y2="155"/>
    <line class="st5" x1="140.9" y1="143.4" x2="140.9" y2="146.2"/>
    <line class="st5" x1="140.9" y1="146.2" x2="146.7" y2="149.2"/>
  </g>
  <line class="st5" x1="287.7" y1="117.3" x2="250.2" y2="169.5"/>
  <g class="st12">
    <g class="st12">
      <text class="st13" transform="translate(149.6 160.8)"><tspan x="0" y="0">R1</tspan></text>
      <text/>
    </g>
  </g>
</svg>