<?xml version="1.0" encoding="UTF-8"?>
<svg id="Layer_1" xmlns="http://www.w3.org/2000/svg" xmlns:xlink="http://www.w3.org/1999/xlink" xmlns:ev="http://www.w3.org/2001/xml-events" version="1.1" viewBox="0 0 396.1 286.9">
  <!-- Generator: Adobe Illustrator 29.3.1, SVG Export Plug-In . SVG Version: 2.1.0 Build 151)  -->
  <defs>
    <style>
      .st0, .st1, .st2, .st3, .st4, .st5, .st6, .st7, .st8, .st9, .st10 {
        fill: none;
      }

      .st11, .st12, .st13, .st14, .st15 {
        fill: #0096ff;
      }

      .st12 {
        font-size: 8px;
      }

      .st12, .st16, .st17, .st13, .st18, .st19, .st20, .st21, .st15 {
        font-family: ArialMT, Arial;
      }

      .st12, .st16, .st22, .st13, .st19, .st14, .st20, .st21, .st15 {
        isolation: isolate;
      }

      .st1 {
        stroke: #0096ff;
      }

      .st1, .st2, .st3, .st8, .st10 {
        stroke-miterlimit: 1.4;
      }

      .st1, .st6 {
        stroke-width: 2px;
      }

      .st2, .st3, .st4, .st8, .st9, .st10 {
        stroke: #000;
      }

      .st2, .st3, .st8, .st10 {
        stroke-width: 1.1px;
      }

      .st2, .st5, .st6, .st9, .st10 {
        stroke-linecap: round;
      }

      .st2, .st8 {
        stroke-dasharray: 0 2.2;
      }

      .st16, .st13, .st14 {
        font-size: 10px;
      }

      .st4 {
        stroke-width: 0px;
      }

      .st4, .st5, .st6, .st7 {
        stroke-miterlimit: 10;
      }

      .st5, .st6 {
        stroke: #ffd479;
      }

      .st17 {
        fill: #57595b;
        font-size: 3.2px;
      }

      .st23 {
        fill: #ffd479;
      }

      .st7 {
        stroke: #6b6b6b;
        stroke-width: .4px;
      }

      .st24 {
        clip-path: url(#clippath-1);
      }

      .st25 {
        clip-path: url(#clippath-3);
      }

      .st26 {
        clip-path: url(#clippath-4);
      }

      .st27 {
        clip-path: url(#clippath-2);
      }

      .st28 {
        clip-path: url(#clippath-7);
      }

      .st29 {
        clip-path: url(#clippath-6);
      }

      .st30 {
        clip-path: url(#clippath-8);
      }

      .st31 {
        clip-path: url(#clippath-5);
      }

      .st18 {
        font-size: 4.2px;
      }

      .st19, .st15 {
        font-size: 8.7px;
      }

      .st14 {
        font-family: Arial-ItalicMT, Arial;
        font-style: italic;
      }

      .st20 {
        font-size: 5.8px;
      }

      .st9 {
        stroke-miterlimit: 3.9;
        stroke-width: .5px;
      }

      .st21 {
        font-size: 3.6px;
      }

      .st32 {
        clip-path: url(#clippath);
      }
    </style>
    <clipPath id="clippath">
      <rect class="st0" x="89" y="29.3" width="73.6" height="96.5"/>
    </clipPath>
    <clipPath id="clippath-1">
      <rect class="st0" x="89" y="29.3" width="73.6" height="96.5"/>
    </clipPath>
    <clipPath id="clippath-2">
      <rect class="st0" x="98.5" y="79.2" width="5.9" height="5"/>
    </clipPath>
    <clipPath id="clippath-3">
      <rect class="st0" x="147.8" y="79.2" width="5.9" height="5"/>
    </clipPath>
    <clipPath id="clippath-4">
      <rect class="st0" x="101.4" y="99" width="5.9" height="5"/>
    </clipPath>
    <clipPath id="clippath-5">
      <rect class="st0" x="132.4" y="98.9" width="5.9" height="5"/>
    </clipPath>
    <clipPath id="clippath-6">
      <rect class="st0" x="134.5" y="50.9" width="5.9" height="5"/>
    </clipPath>
    <clipPath id="clippath-7">
      <rect class="st0" x="89" y="29.3" width="73.6" height="96.5"/>
    </clipPath>
    <clipPath id="clippath-8">
      <rect class="st0" x="89" y="29.3" width="73.6" height="96.5"/>
    </clipPath>
  </defs>
  <line class="st10" x1="300.9" y1="109.7" x2="240.3" y2="109.7"/>
  <line class="st10" x1="334.2" y1="110.1" x2="300.9" y2="109.7"/>
  <line class="st10" x1="197.7" y1="155.9" x2="134.1" y2="155.9"/>
  <line class="st10" x1="351" y1="156.3" x2="351" y2="139"/>
  <line class="st10" x1="255.6" y1="167.5" x2="249.8" y2="167.5"/>
  <line class="st10" x1="280.8" y1="167.5" x2="255.6" y2="167.5"/>
  <line class="st10" x1="197.7" y1="179.1" x2="134.4" y2="179.6"/>
  <line class="st10" x1="351" y1="185.3" x2="351" y2="179.5"/>
  <line class="st10" x1="351" y1="185.3" x2="322" y2="185.3"/>
  <line class="st10" x1="351" y1="196.9" x2="351" y2="185.3"/>
  <line class="st10" x1="134" y1="194.2" x2="134.4" y2="179.6"/>
  <line class="st10" x1="280.8" y1="202.8" x2="280.8" y2="168.1"/>
  <line class="st10" x1="24.5" y1="191.8" x2="24.4" y2="164.2"/>
  <line class="st10" x1="322" y1="214.2" x2="322" y2="185.3"/>
  <line class="st10" x1="333.6" y1="214.2" x2="322" y2="214.2"/>
  <line class="st10" x1="186.2" y1="220.3" x2="134.4" y2="179.8"/>
  <line class="st10" x1="280.8" y1="249.1" x2="280.8" y2="226"/>
  <line class="st10" x1="255.6" y1="248.5" x2="90.2" y2="248.5"/>
  <line class="st10" x1="351" y1="248.9" x2="351" y2="225.8"/>
  <line class="st10" x1="134.1" y1="254.3" x2="134.1" y2="248.5"/>
  <circle cx="134.1" cy="179.2" r="1.6"/>
  <circle cx="255.6" cy="167.5" r="1.6"/>
  <circle cx="351" cy="185.3" r="1.6"/>
  <circle cx="134.1" cy="248.5" r="1.6"/>
  <circle cx="280.8" cy="248.9" r="1.6"/>
  <path class="st2" d="M314.8,154.9h66.6v117.2h-66.6s0-117.2,0-117.2Z"/>
  <g>
    <g class="st22">
      <g class="st22">
        <g class="st22">
          <text class="st15" transform="translate(33.2 223.4)"><tspan x="0" y="0">2.5V</tspan></text>
        </g>
      </g>
    </g>
    <line class="st10" x1="21.6" y1="199.1" x2="27.4" y2="199.1"/>
    <line class="st10" x1="21.6" y1="213.5" x2="27.4" y2="213.5"/>
    <line class="st10" x1="24.5" y1="196.2" x2="24.5" y2="201.9"/>
    <line class="st10" x1="24.5" y1="248.5" x2="24.5" y2="217.9"/>
    <line class="st10" x1="24.5" y1="191.8" x2="24.5" y2="194.7"/>
    <circle class="st3" cx="24.5" cy="206.3" r="11.6"/>
  </g>
  <g>
    <g class="st22">
      <g class="st22">
        <g class="st22">
          <text class="st21" transform="translate(243.5 165.7)"><tspan x="0" y="0">54</tspan></text>
        </g>
      </g>
    </g>
    <g class="st22">
      <g class="st22">
        <g class="st22">
          <text class="st19" transform="translate(211.1 157.1)"><tspan x="0" y="0">+</tspan></text>
        </g>
      </g>
    </g>
    <g class="st22">
      <g class="st22">
        <g class="st22">
          <text class="st19" transform="translate(212.2 181.7)"><tspan x="0" y="0">-</tspan></text>
        </g>
      </g>
    </g>
    <g class="st22">
      <g class="st22">
        <g class="st22">
          <text class="st21" transform="translate(200.1 174.4)"><tspan x="0" y="0">55</tspan></text>
        </g>
      </g>
    </g>
    <g class="st22">
      <g class="st22">
        <g class="st22">
          <text class="st21" transform="translate(200.1 161.4)"><tspan x="0" y="0">56</tspan></text>
        </g>
      </g>
    </g>
    <g class="st22">
      <g class="st22">
        <g class="st22">
          <text class="st19" transform="translate(228.7 143.7)"><tspan x="0" y="0">OTA_pMOS</tspan></text>
        </g>
      </g>
    </g>
    <g class="st22">
      <g class="st22">
        <g class="st22">
          <text class="st20" transform="translate(207.5 81)"><tspan x="0" y="0">VDD</tspan></text>
        </g>
      </g>
    </g>
    <g class="st22">
      <g class="st22">
        <g class="st22">
          <text class="st21" transform="translate(243.6 115.4)"><tspan x="0" y="0">68</tspan></text>
        </g>
      </g>
    </g>
    <g class="st22">
      <g class="st22">
        <g class="st22">
          <text class="st20" transform="translate(233.1 92.3)"><tspan x="0" y="0">2x</tspan></text>
        </g>
      </g>
    </g>
    <line class="st10" x1="221.5" y1="92.3" x2="221.5" y2="98.1"/>
    <line class="st10" x1="221.5" y1="103.9" x2="229.8" y2="103.9"/>
    <line class="st10" x1="236" y1="109.7" x2="238.9" y2="109.7"/>
    <line class="st10" x1="236" y1="98.1" x2="236" y2="121.2"/>
    <line class="st10" x1="233.1" y1="121.2" x2="221.5" y2="121.2"/>
    <line class="st10" x1="221.5" y1="121.2" x2="221.5" y2="127"/>
    <line class="st10" x1="221.5" y1="103.9" x2="215.7" y2="103.9"/>
    <line class="st10" x1="215.7" y1="103.9" x2="215.7" y2="92.3"/>
    <line class="st10" x1="215.7" y1="92.3" x2="221.5" y2="92.3"/>
    <line class="st10" x1="221.5" y1="92.3" x2="221.5" y2="92.3"/>
    <line class="st10" x1="233.1" y1="98.1" x2="233.1" y2="121.2"/>
    <line class="st10" x1="233.1" y1="98.1" x2="227.3" y2="99.5"/>
    <line class="st10" x1="227.3" y1="99.5" x2="227.3" y2="96.6"/>
    <line class="st10" x1="227.3" y1="96.6" x2="233.1" y2="98.1"/>
    <line class="st10" x1="227.3" y1="98.1" x2="221.5" y2="98.1"/>
    <line class="st10" x1="221.5" y1="82.2" x2="221.5" y2="92.3"/>
    <line class="st10" x1="218" y1="83.6" x2="223.8" y2="80.7"/>
    <line class="st10" x1="221.5" y1="127" x2="221.5" y2="154.5"/>
    <line class="st10" x1="238.9" y1="109.7" x2="241.8" y2="109.7"/>
    <line class="st10" x1="241.8" y1="109.7" x2="244.7" y2="109.7"/>
    <line class="st10" x1="209.3" y1="144.4" x2="209.3" y2="190.7"/>
    <line class="st10" x1="238.2" y1="167.5" x2="209.3" y2="144.4"/>
    <line class="st10" x1="209.3" y1="144.4" x2="238.2" y2="167.5"/>
    <line class="st10" x1="238.2" y1="167.5" x2="209.3" y2="190.7"/>
    <line class="st10" x1="209.3" y1="155.9" x2="197.7" y2="155.9"/>
    <line class="st10" x1="197.7" y1="179.1" x2="209.3" y2="179.1"/>
    <line class="st10" x1="238.2" y1="167.5" x2="249.8" y2="167.5"/>
    <rect class="st8" x="197.7" y="74.9" width="52.1" height="120.1"/>
  </g>
  <g>
    <line class="st10" x1="351" y1="222.9" x2="351" y2="225.8"/>
    <line class="st10" x1="356.8" y1="220" x2="351" y2="222.9"/>
    <line class="st10" x1="345.2" y1="214.2" x2="356.8" y2="220"/>
    <line class="st10" x1="356.8" y1="208.4" x2="345.2" y2="214.2"/>
    <line class="st10" x1="345.2" y1="202.6" x2="356.8" y2="208.4"/>
    <line class="st10" x1="351" y1="196.9" x2="351" y2="199.8"/>
    <line class="st10" x1="351" y1="199.8" x2="345.2" y2="202.6"/>
    <line class="st10" x1="342.3" y1="214.2" x2="333.6" y2="214.2"/>
    <line class="st10" x1="342.3" y1="214.2" x2="339.4" y2="211.3"/>
    <line class="st10" x1="342.3" y1="214.2" x2="339.4" y2="217.1"/>
  </g>
  <g>
    <line class="st10" x1="351" y1="159.2" x2="351" y2="156.3"/>
    <line class="st10" x1="351" y1="176.6" x2="351" y2="179.5"/>
    <circle class="st3" cx="351" cy="175.2" r="1.4"/>
    <circle class="st3" cx="351" cy="160.7" r="1.4"/>
    <path class="st3" d="M352.4,175c3.9-.8,6.5-4.6,5.7-8.5-.6-2.9-2.8-5.1-5.7-5.7"/>
  </g>
  <g>
    <g class="st22">
      <g class="st22">
        <g class="st22">
          <text class="st19" transform="translate(283.7 208.3)"><tspan x="0" y="0">CL1</tspan></text>
        </g>
      </g>
    </g>
    <line class="st10" x1="280.8" y1="215.9" x2="280.8" y2="226"/>
    <line class="st10" x1="280.8" y1="213" x2="280.8" y2="202.8"/>
    <line class="st10" x1="275" y1="213" x2="286.6" y2="213"/>
    <line class="st10" x1="275" y1="215.9" x2="286.6" y2="215.9"/>
  </g>
  <g>
    <line class="st10" x1="203.6" y1="220.3" x2="186.2" y2="220.3"/>
    <line class="st10" x1="206.6" y1="214.6" x2="203.6" y2="220.3"/>
    <line class="st10" x1="212.5" y1="226.1" x2="206.6" y2="214.6"/>
    <line class="st10" x1="218.3" y1="214.6" x2="212.5" y2="226.1"/>
    <line class="st10" x1="224.2" y1="226.1" x2="218.3" y2="214.6"/>
    <line class="st10" x1="243.3" y1="220.3" x2="227.2" y2="220.3"/>
    <line class="st10" x1="227.2" y1="220.3" x2="224.2" y2="226.1"/>
  </g>
  <g>
    <line class="st10" x1="128.3" y1="254.3" x2="139.9" y2="254.3"/>
    <line class="st10" x1="128.3" y1="254.3" x2="134.1" y2="260.1"/>
    <line class="st10" x1="139.9" y1="254.3" x2="134.1" y2="260.1"/>
  </g>
  <g>
    <line class="st10" x1="18.7" y1="158.4" x2="24.5" y2="164.2"/>
    <line class="st10" x1="30.3" y1="133.8" x2="30.3" y2="158.4"/>
    <line class="st10" x1="18.7" y1="158.4" x2="18.7" y2="133.8"/>
    <line class="st10" x1="24.5" y1="164.2" x2="30.3" y2="158.4"/>
    <line class="st10" x1="24.5" y1="128" x2="30.3" y2="133.8"/>
    <line class="st10" x1="24.5" y1="128" x2="18.7" y2="133.8"/>
  </g>
  <g class="st22">
    <g class="st22">
      <g class="st22">
        <text class="st19" transform="translate(27.5 154.5) rotate(-90)"><tspan x="0" y="0">VDD</tspan></text>
      </g>
    </g>
  </g>
  <g>
    <g>
      <line class="st10" x1="134.2" y1="156.1" x2="128.3" y2="161.8"/>
      <line class="st10" x1="128.3" y1="161.8" x2="105.2" y2="161.8"/>
      <line class="st10" x1="105.2" y1="161.8" x2="105.2" y2="150.3"/>
      <line class="st10" x1="105.2" y1="150.3" x2="128.3" y2="150.3"/>
      <line class="st10" x1="128.3" y1="150.3" x2="134.2" y2="156.1"/>
    </g>
    <g class="st22">
      <g class="st22">
        <g class="st22">
          <text class="st15" transform="translate(112 159.1)"><tspan x="0" y="0">in</tspan></text>
        </g>
      </g>
    </g>
  </g>
  <g class="st22">
    <g class="st22">
      <g class="st22">
        <text class="st16" transform="translate(310.7 282.3)"><tspan x="0" y="0">On MOSbius PCB</tspan></text>
      </g>
    </g>
  </g>
  <g class="st22">
    <g class="st22">
      <g class="st22">
        <text class="st16" transform="translate(357.4 118)"><tspan x="0" y="0">M8</tspan></text>
      </g>
    </g>
  </g>
  <path class="st10" d="M270,167.9"/>
  <path class="st10" d="M275,255.8"/>
  <path class="st10" d="M270,248.9"/>
  <line class="st10" x1="351" y1="248.9" x2="255.6" y2="248.5"/>
  <g>
    <g class="st22">
      <g class="st22">
        <g class="st22">
          <text class="st21" transform="translate(341.2 137.2)"><tspan x="0" y="0">68</tspan></text>
        </g>
      </g>
    </g>
    <g class="st22">
      <g class="st22">
        <g class="st22">
          <text class="st20" transform="translate(327.8 94.1)"><tspan x="0" y="0">1x</tspan></text>
        </g>
      </g>
    </g>
    <g class="st22">
      <g class="st22">
        <g class="st22">
          <text class="st20" transform="translate(351 77.3)"><tspan x="0" y="0">VDD</tspan></text>
        </g>
      </g>
    </g>
    <line class="st10" x1="351" y1="139" x2="351" y2="127.4"/>
    <line class="st10" x1="351" y1="92.7" x2="351" y2="79.7"/>
    <line class="st10" x1="353.9" y1="81.1" x2="348.1" y2="78.2"/>
    <line class="st10" x1="351" y1="98.5" x2="351" y2="92.7"/>
    <line class="st10" x1="342.7" y1="104.3" x2="351" y2="104.3"/>
    <line class="st10" x1="333.6" y1="110.1" x2="336.5" y2="110.1"/>
    <line class="st10" x1="336.5" y1="121.6" x2="336.5" y2="98.5"/>
    <line class="st10" x1="351" y1="121.6" x2="339.4" y2="121.6"/>
    <line class="st10" x1="351" y1="127.4" x2="351" y2="121.6"/>
    <line class="st10" x1="356.8" y1="104.3" x2="351" y2="104.3"/>
    <line class="st10" x1="356.8" y1="92.7" x2="356.8" y2="104.3"/>
    <line class="st10" x1="351" y1="92.7" x2="356.8" y2="92.7"/>
    <line class="st10" x1="351" y1="92.7" x2="351" y2="92.7"/>
    <line class="st10" x1="339.4" y1="121.6" x2="339.4" y2="98.5"/>
    <line class="st10" x1="345.2" y1="99.9" x2="339.4" y2="98.5"/>
    <line class="st10" x1="345.2" y1="97" x2="345.2" y2="99.9"/>
    <line class="st10" x1="339.4" y1="98.5" x2="345.2" y2="97"/>
    <line class="st10" x1="351" y1="98.5" x2="345.2" y2="98.5"/>
    <path class="st10" d="M333.6,110.1"/>
    <path class="st10" d="M171.6,110.1"/>
    <line class="st10" x1="324.9" y1="130.3" x2="351" y2="130.3"/>
    <line class="st10" x1="324.9" y1="110.1" x2="324.9" y2="130.3"/>
  </g>
  <g>
    <g class="st22">
      <g class="st22">
        <g class="st22">
          <text class="st19" transform="translate(93.5 225.7)"><tspan x="0" y="0">CREF</tspan></text>
        </g>
      </g>
    </g>
    <line class="st10" x1="90.2" y1="233.3" x2="90.2" y2="248.5"/>
    <line class="st10" x1="90.2" y1="230.4" x2="90.1" y2="200"/>
    <line class="st10" x1="84.4" y1="230.4" x2="95.9" y2="230.4"/>
    <line class="st10" x1="84.4" y1="233.3" x2="95.9" y2="233.3"/>
  </g>
  <path class="st10" d="M351,85.5"/>
  <g class="st22">
    <g class="st22">
      <g class="st22">
        <text class="st16" transform="translate(204.6 117.6)"><tspan x="0" y="0">M7</tspan></text>
      </g>
    </g>
  </g>
  <g class="st22">
    <g class="st22">
      <g class="st22">
        <text class="st13" transform="translate(364.3 143.7)"><tspan x="0" y="0">I</tspan></text>
      </g>
    </g>
  </g>
  <g class="st22">
    <g class="st22">
      <g class="st22">
        <text class="st12" transform="translate(367.7 145.9)"><tspan x="0" y="0">REF</tspan></text>
      </g>
    </g>
  </g>
  <g>
    <line class="st0" x1="358.1" y1="127.4" x2="358.1" y2="148.9"/>
    <g>
      <line class="st1" x1="358.1" y1="127.4" x2="358.1" y2="141.8"/>
      <polygon class="st11" points="358.1 148.9 354 139 358.1 141.3 362.2 139 358.1 148.9"/>
    </g>
  </g>
  <g class="st22">
    <g class="st22">
      <g class="st22">
        <text class="st14" transform="translate(258.7 163.4)"><tspan x="0" y="0">OTAout</tspan></text>
      </g>
    </g>
  </g>
  <g>
    <line class="st10" x1="66" y1="211.7" x2="66" y2="208.7"/>
    <line class="st10" x1="66" y1="208.7" x2="60.2" y2="205.9"/>
    <line class="st10" x1="60.2" y1="205.9" x2="71.8" y2="200"/>
    <line class="st10" x1="71.8" y1="200" x2="60.2" y2="194.2"/>
    <line class="st10" x1="60.2" y1="194.2" x2="71.8" y2="188.4"/>
    <line class="st10" x1="66" y1="185.7" x2="66" y2="182.7"/>
    <line class="st10" x1="71.8" y1="188.4" x2="66" y2="185.7"/>
    <line class="st10" x1="90.1" y1="200" x2="74.7" y2="200"/>
    <line class="st10" x1="77.6" y1="197.2" x2="74.7" y2="200"/>
    <line class="st10" x1="77.6" y1="202.9" x2="74.7" y2="200"/>
  </g>
  <line class="st10" x1="66" y1="171.8" x2="24.8" y2="171.8"/>
  <line class="st10" x1="90.2" y1="248.5" x2="24.9" y2="248.8"/>
  <line class="st10" x1="66" y1="248.5" x2="66" y2="209.5"/>
  <line class="st10" x1="66" y1="182" x2="66" y2="171.8"/>
  <g class="st22">
    <g class="st22">
      <g class="st22">
        <text class="st19" transform="translate(210.6 210.8)"><tspan x="0" y="0">R2</tspan></text>
      </g>
    </g>
  </g>
  <g>
    <g class="st22">
      <g class="st22">
        <g class="st22">
          <text class="st13" transform="translate(83.6 192.2)"><tspan x="0" y="0">V</tspan></text>
        </g>
      </g>
    </g>
    <g class="st22">
      <g class="st22">
        <g class="st22">
          <text class="st12" transform="translate(89.3 194.4)"><tspan x="0" y="0">REF</tspan></text>
        </g>
      </g>
    </g>
  </g>
  <line class="st0" x1="101.4" y1="212.5" x2="101.4" y2="233.9"/>
  <g>
    <g class="st22">
      <g class="st22">
        <g class="st22">
          <text class="st19" transform="translate(143.4 237.6)"><tspan x="0" y="0">CB1</tspan></text>
        </g>
      </g>
    </g>
    <line class="st10" x1="134.1" y1="236.4" x2="134.1" y2="246.6"/>
    <line class="st10" x1="134.1" y1="233.6" x2="134.1" y2="223.3"/>
    <line class="st10" x1="128.3" y1="233.6" x2="139.8" y2="233.6"/>
    <line class="st10" x1="128.3" y1="236.4" x2="139.8" y2="236.4"/>
  </g>
  <g>
    <line class="st10" x1="134" y1="220.2" x2="134" y2="223"/>
    <line class="st10" x1="128.3" y1="217.3" x2="134" y2="220.2"/>
    <line class="st10" x1="139.8" y1="211.5" x2="128.3" y2="217.3"/>
    <line class="st10" x1="128.3" y1="205.8" x2="139.8" y2="211.5"/>
    <line class="st10" x1="139.8" y1="200" x2="128.3" y2="205.8"/>
    <line class="st10" x1="134" y1="194.2" x2="134" y2="197"/>
    <line class="st10" x1="134" y1="197" x2="139.8" y2="200"/>
  </g>
  <line class="st10" x1="280.8" y1="168.1" x2="243.3" y2="220.3"/>
  <g class="st22">
    <g class="st22">
      <g class="st22">
        <text class="st19" transform="translate(142.7 211.6)"><tspan x="0" y="0">R1</tspan></text>
      </g>
    </g>
  </g>
  <g class="st32">
    <line class="st9" x1="119.7" y1="30.8" x2="102.8" y2="30.8"/>
    <line class="st9" x1="125.3" y1="30.8" x2="119.7" y2="30.8"/>
    <line class="st9" x1="147.8" y1="30.8" x2="125.3" y2="30.8"/>
    <line class="st9" x1="125.3" y1="36.4" x2="125.3" y2="30.8"/>
    <line class="st9" x1="119.7" y1="44.9" x2="119.7" y2="30.8"/>
    <line class="st9" x1="122.5" y1="44.9" x2="119.7" y2="44.9"/>
    <line class="st9" x1="156.3" y1="47.7" x2="136.6" y2="47.7"/>
    <line class="st9" x1="125.3" y1="59" x2="108.4" y2="59"/>
    <line class="st9" x1="142.2" y1="59" x2="125.3" y2="59"/>
    <line class="st9" x1="108.4" y1="61.8" x2="108.4" y2="59"/>
    <line class="st9" x1="142.2" y1="61.8" x2="142.2" y2="59"/>
    <line class="st9" x1="119.7" y1="70.2" x2="119.7" y2="44.9"/>
    <line class="st9" x1="119.7" y1="70.2" x2="111.2" y2="70.2"/>
    <line class="st9" x1="139.4" y1="70.2" x2="119.7" y2="70.2"/>
    <line class="st9" x1="97.1" y1="73.1" x2="94.3" y2="73.1"/>
    <line class="st9" x1="156.3" y1="73.1" x2="153.5" y2="73.1"/>
    <line class="st9" x1="142.2" y1="92.8" x2="142.2" y2="84.3"/>
    <line class="st9" x1="156.3" y1="92.8" x2="142.2" y2="92.8"/>
    <line class="st9" x1="108.4" y1="98.4" x2="108.4" y2="84.3"/>
    <line class="st9" x1="125.3" y1="98.4" x2="108.4" y2="98.4"/>
    <line class="st9" x1="142.2" y1="98.4" x2="142.2" y2="92.8"/>
    <line class="st9" x1="125.3" y1="109.7" x2="125.3" y2="98.4"/>
    <line class="st9" x1="125.3" y1="109.7" x2="119.7" y2="109.7"/>
    <line class="st9" x1="130.9" y1="109.7" x2="125.3" y2="109.7"/>
    <line class="st9" x1="105.6" y1="112.5" x2="102.8" y2="112.5"/>
    <line class="st9" x1="147.8" y1="112.5" x2="145" y2="112.5"/>
    <line class="st9" x1="102.8" y1="123.8" x2="102.8" y2="112.5"/>
    <line class="st9" x1="108.4" y1="123.8" x2="108.4" y2="121"/>
    <line class="st9" x1="108.4" y1="123.8" x2="102.8" y2="123.8"/>
    <line class="st9" x1="142.2" y1="123.8" x2="142.2" y2="121"/>
    <line class="st9" x1="142.2" y1="123.8" x2="108.4" y2="123.8"/>
    <line class="st9" x1="147.8" y1="123.8" x2="147.8" y2="112.5"/>
    <line class="st9" x1="147.8" y1="123.8" x2="142.2" y2="123.8"/>
    <g class="st24">
      <path d="M119.7,30c.4,0,.8.4.8.8s-.4.8-.8.8-.8-.4-.8-.8.4-.8.8-.8"/>
      <path d="M125.3,30c.4,0,.8.4.8.8s-.4.8-.8.8-.8-.4-.8-.8.4-.8.8-.8"/>
      <path d="M119.7,44.1c.4,0,.8.4.8.8s-.4.8-.8.8-.8-.4-.8-.8.4-.8.8-.8"/>
      <path d="M119.7,69.5c.4,0,.8.4.8.8s-.4.8-.8.8-.8-.4-.8-.8.4-.8.8-.8"/>
      <path d="M142.2,92c.4,0,.8.4.8.8s-.4.8-.8.8-.8-.4-.8-.8.4-.8.8-.8"/>
      <path d="M125.3,108.9c.4,0,.8.4.8.8s-.4.8-.8.8-.8-.4-.8-.8.4-.8.8-.8"/>
      <path d="M108.4,123c.4,0,.8.4.8.8s-.4.8-.8.8-.8-.4-.8-.8.4-.8.8-.8"/>
      <path d="M142.2,123c.4,0,.8.4.8.8s-.4.8-.8.8-.8-.4-.8-.8.4-.8.8-.8"/>
      <g class="st22">
        <g class="st27">
          <text class="st18" transform="translate(98.5 82.8)"><tspan x="0" y="0">M1</tspan></text>
        </g>
      </g>
      <line class="st9" x1="108.4" y1="67.4" x2="108.4" y2="64.6"/>
      <line class="st9" x1="101.4" y1="78.7" x2="101.4" y2="67.4"/>
      <line class="st9" x1="108.4" y1="78.7" x2="102.8" y2="78.7"/>
      <line class="st9" x1="108.4" y1="81.5" x2="108.4" y2="78.7"/>
      <line class="st9" x1="108.4" y1="64.6" x2="108.4" y2="64.6"/>
      <line class="st9" x1="102.8" y1="78.7" x2="102.8" y2="67.4"/>
      <line class="st9" x1="105.6" y1="68.1" x2="102.8" y2="67.4"/>
      <line class="st9" x1="105.6" y1="66.7" x2="105.6" y2="68.1"/>
      <line class="st9" x1="102.8" y1="67.4" x2="105.6" y2="66.7"/>
      <line class="st9" x1="108.4" y1="67.4" x2="105.6" y2="67.4"/>
      <line class="st9" x1="108.4" y1="84.3" x2="108.4" y2="81.5"/>
      <line class="st9" x1="108.4" y1="84.3" x2="108.4" y2="81.5"/>
      <line class="st9" x1="97.1" y1="73.1" x2="101.4" y2="73.1"/>
      <line class="st9" x1="108.4" y1="61.8" x2="108.4" y2="64.6"/>
      <line class="st9" x1="111.2" y1="70.2" x2="105.6" y2="70.2"/>
      <g class="st22">
        <g class="st25">
          <text class="st18" transform="translate(147.8 82.8)"><tspan x="0" y="0">M2</tspan></text>
        </g>
      </g>
      <line class="st9" x1="142.2" y1="67.4" x2="142.2" y2="64.6"/>
      <line class="st9" x1="149.3" y1="78.7" x2="149.3" y2="67.4"/>
      <line class="st9" x1="142.2" y1="78.7" x2="147.8" y2="78.7"/>
      <line class="st9" x1="142.2" y1="81.5" x2="142.2" y2="78.7"/>
      <line class="st9" x1="142.2" y1="64.6" x2="142.2" y2="64.6"/>
      <line class="st9" x1="147.8" y1="78.7" x2="147.8" y2="67.4"/>
      <line class="st9" x1="145" y1="68.1" x2="147.8" y2="67.4"/>
      <line class="st9" x1="145" y1="66.7" x2="145" y2="68.1"/>
      <line class="st9" x1="147.8" y1="67.4" x2="145" y2="66.7"/>
      <line class="st9" x1="142.2" y1="67.4" x2="145" y2="67.4"/>
      <line class="st9" x1="142.2" y1="84.3" x2="142.2" y2="81.5"/>
      <line class="st9" x1="142.2" y1="84.3" x2="142.2" y2="81.5"/>
      <line class="st9" x1="153.5" y1="73.1" x2="149.3" y2="73.1"/>
      <line class="st9" x1="142.2" y1="61.8" x2="142.2" y2="64.6"/>
      <line class="st9" x1="139.4" y1="70.2" x2="145" y2="70.2"/>
      <g class="st22">
        <g class="st26">
          <text class="st18" transform="translate(101.4 102.6)"><tspan x="0" y="0">M3</tspan></text>
        </g>
      </g>
      <line class="st9" x1="108.4" y1="104.1" x2="108.4" y2="101.2"/>
      <line class="st9" x1="115.5" y1="115.3" x2="115.5" y2="104.1"/>
      <line class="st9" x1="108.4" y1="104.1" x2="114" y2="104.1"/>
      <line class="st9" x1="108.4" y1="118.1" x2="108.4" y2="115.3"/>
      <line class="st9" x1="108.4" y1="101.2" x2="108.4" y2="101.2"/>
      <line class="st9" x1="114" y1="115.3" x2="114" y2="104.1"/>
      <line class="st9" x1="111.2" y1="114.6" x2="108.4" y2="115.3"/>
      <line class="st9" x1="111.2" y1="116" x2="111.2" y2="114.6"/>
      <line class="st9" x1="108.4" y1="115.3" x2="111.2" y2="116"/>
      <line class="st9" x1="114" y1="115.3" x2="111.2" y2="115.3"/>
      <line class="st9" x1="108.4" y1="121" x2="108.4" y2="118.1"/>
      <line class="st9" x1="108.4" y1="121" x2="108.4" y2="118.1"/>
      <line class="st9" x1="119.7" y1="109.7" x2="115.5" y2="109.7"/>
      <line class="st9" x1="108.4" y1="98.4" x2="108.4" y2="101.2"/>
      <line class="st9" x1="105.6" y1="112.5" x2="111.2" y2="112.5"/>
      <g class="st22">
        <g class="st31">
          <text class="st18" transform="translate(132.4 102.5)"><tspan x="0" y="0">M4</tspan></text>
        </g>
      </g>
      <line class="st9" x1="142.2" y1="104.1" x2="142.2" y2="101.2"/>
      <line class="st9" x1="135.2" y1="115.3" x2="135.2" y2="104.1"/>
      <line class="st9" x1="142.2" y1="104.1" x2="136.6" y2="104.1"/>
      <line class="st9" x1="142.2" y1="118.1" x2="142.2" y2="115.3"/>
      <line class="st9" x1="142.2" y1="101.2" x2="142.2" y2="101.2"/>
      <line class="st9" x1="136.6" y1="115.3" x2="136.6" y2="104.1"/>
      <line class="st9" x1="139.4" y1="114.6" x2="142.2" y2="115.3"/>
      <line class="st9" x1="139.4" y1="116" x2="139.4" y2="114.6"/>
      <line class="st9" x1="142.2" y1="115.3" x2="139.4" y2="116"/>
      <line class="st9" x1="136.6" y1="115.3" x2="139.4" y2="115.3"/>
      <line class="st9" x1="142.2" y1="121" x2="142.2" y2="118.1"/>
      <line class="st9" x1="142.2" y1="121" x2="142.2" y2="118.1"/>
      <line class="st9" x1="130.9" y1="109.7" x2="135.2" y2="109.7"/>
      <line class="st9" x1="142.2" y1="98.4" x2="142.2" y2="101.2"/>
      <line class="st9" x1="145" y1="112.5" x2="139.4" y2="112.5"/>
      <g class="st22">
        <g class="st29">
          <text class="st18" transform="translate(134.5 54.5)"><tspan x="0" y="0">M7</tspan></text>
        </g>
      </g>
      <line class="st9" x1="125.3" y1="42.1" x2="125.3" y2="39.3"/>
      <line class="st9" x1="132.4" y1="53.3" x2="132.4" y2="42.1"/>
      <line class="st9" x1="125.3" y1="53.3" x2="130.9" y2="53.3"/>
      <line class="st9" x1="125.3" y1="56.2" x2="125.3" y2="53.3"/>
      <line class="st9" x1="125.3" y1="39.3" x2="125.3" y2="39.3"/>
      <line class="st9" x1="130.9" y1="53.3" x2="130.9" y2="42.1"/>
      <line class="st9" x1="128.1" y1="42.8" x2="130.9" y2="42.1"/>
      <line class="st9" x1="128.1" y1="41.4" x2="128.1" y2="42.8"/>
      <line class="st9" x1="130.9" y1="42.1" x2="128.1" y2="41.4"/>
      <line class="st9" x1="125.3" y1="42.1" x2="128.1" y2="42.1"/>
      <line class="st9" x1="125.3" y1="59" x2="125.3" y2="56.2"/>
      <line class="st9" x1="125.3" y1="59" x2="125.3" y2="56.2"/>
      <line class="st9" x1="136.6" y1="47.7" x2="132.4" y2="47.7"/>
      <line class="st9" x1="125.3" y1="36.4" x2="125.3" y2="39.3"/>
      <line class="st9" x1="122.5" y1="44.9" x2="128.1" y2="44.9"/>
    </g>
    <text class="st18" transform="translate(154.9 71)"><tspan x="0" y="0">inn</tspan></text>
    <text class="st18" transform="translate(90.9 71)"><tspan x="0" y="0">inp</tspan></text>
    <text class="st18" transform="translate(154.9 91.4)"><tspan x="0" y="0">out</tspan></text>
    <text class="st18" transform="translate(114 121)"><tspan x="0" y="0">1x</tspan></text>
    <text class="st18" transform="translate(133.1 121)"><tspan x="0" y="0">1x</tspan></text>
    <text class="st18" transform="translate(109.8 76.8)"><tspan x="0" y="0">1x</tspan></text>
    <text class="st18" transform="translate(136.6 76.8)"><tspan x="0" y="0">1x</tspan></text>
    <text class="st18" transform="translate(128.8 37.9)"><tspan x="0" y="0">2x</tspan></text>
    <text class="st17" transform="translate(151.4 45.7)"><tspan x="0" y="0">68</tspan></text>
    <g class="st28">
      <path class="st4" d="M151.9,44.6c0,0,.2-.1.3-.1s.2,0,.3.1.1.2.1.4,0,.3-.1.4c0,0-.2.1-.3.1s-.2,0-.2,0c0,0-.1-.1-.2-.2,0,0,0-.2,0-.3,0-.1,0-.3.1-.4ZM152.8,43.5c-.1-.1-.3-.2-.4-.2s-.4,0-.6.3c-.2.2-.2.5-.2,1s0,.7.2.9.3.3.6.3.3,0,.4,0c.1,0,.2-.2.3-.3,0-.1,0-.3,0-.4,0-.2,0-.4-.2-.5s-.3-.2-.5-.2-.2,0-.3,0c0,0-.2.1-.2.2,0-.2,0-.4,0-.5,0-.1.1-.2.2-.3,0,0,.1,0,.2,0s.2,0,.3.1c0,0,0,.1.1.2h.3c0-.2,0-.3-.2-.4Z"/>
      <path class="st4" d="M153.7,44.7c0,0,.2-.1.3-.1s.2,0,.3.1c0,0,.1.2.1.3s0,.2-.1.3c0,0-.2.1-.3.1s-.2,0-.2,0c0,0-.1,0-.2-.2,0,0,0-.2,0-.2,0-.1,0-.2.1-.3ZM153.8,43.7c0,0,.2-.1.3-.1s.2,0,.3.1c0,0,.1.2.1.3s0,.2-.1.3c0,0-.2.1-.3.1s-.2,0-.3-.1c0,0-.1-.2-.1-.3s0-.2.1-.2ZM153.4,44.6c0,.1-.1.2-.1.4s0,.4.2.5c.1.1.3.2.5.2s.4,0,.5-.2c.1-.1.2-.3.2-.5s0-.3-.1-.4c0-.1-.2-.2-.3-.2.1,0,.2-.1.3-.2,0,0,0-.2,0-.3,0-.2,0-.3-.2-.4-.1-.1-.3-.2-.5-.2s-.4,0-.5.2c-.1.1-.2.3-.2.4s0,.2,0,.3c0,0,.1.1.3.2-.1,0-.2.1-.3.2Z"/>
    </g>
    <text class="st17" transform="translate(156.4 77.5)"><tspan x="0" y="0">55</tspan></text>
    <text class="st17" transform="translate(156.1 97.2)"><tspan x="0" y="0">54</tspan></text>
    <text class="st17" transform="translate(91.6 78.4)"><tspan x="0" y="0">56</tspan></text>
    <g class="st30">
      <rect class="st7" x="150.7" y="42.1" width="4.9" height="4.9"/>
      <rect class="st7" x="155.6" y="73.8" width="4.9" height="4.9"/>
      <rect class="st7" x="155.3" y="93.5" width="4.9" height="4.9"/>
      <rect class="st7" x="90.8" y="74.8" width="4.9" height="4.9"/>
    </g>
  </g>
  <circle class="st5" cx="124.5" cy="77.2" r="61.2"/>
  <g>
    <line class="st6" x1="207.6" y1="141.8" x2="177.4" y2="120.4"/>
    <polygon class="st23" points="171.6 116.3 182.1 118.8 177.8 120.7 177.4 125.4 171.6 116.3"/>
  </g>
</svg>