<?xml version="1.0" encoding="utf-8" ?>
<svg baseProfile="tiny" height="100%" version="1.2" viewBox="-198,26,732,556" width="100%" xmlns="http://www.w3.org/2000/svg" xmlns:ev="http://www.w3.org/2001/xml-events" xmlns:xlink="http://www.w3.org/1999/xlink"><defs /><circle cx="368" cy="192" fill="black" r="4.5" /><circle cx="176" cy="464" fill="black" r="4.5" /><line stroke="black" stroke-linecap="round" stroke-width="3.0" x1="32" x2="-48" y1="192" y2="192" /><line stroke="black" stroke-linecap="round" stroke-width="3.0" x1="112" x2="32" y1="192" y2="192" /><line stroke="black" stroke-linecap="round" stroke-width="3.0" x1="368" x2="192" y1="192" y2="192" /><line stroke="black" stroke-linecap="round" stroke-width="3.0" x1="448" x2="368" y1="192" y2="192" /><line stroke="black" stroke-linecap="round" stroke-width="3.0" x1="-48" x2="-48" y1="224" y2="192" /><line stroke="black" stroke-linecap="round" stroke-width="3.0" x1="368" x2="368" y1="240" y2="192" /><line stroke="black" stroke-linecap="round" stroke-width="3.0" x1="-48" x2="-48" y1="368" y2="304" /><line stroke="black" stroke-linecap="round" stroke-width="3.0" x1="368" x2="368" y1="368" y2="320" /><line stroke="black" stroke-linecap="round" stroke-width="3.0" x1="-48" x2="-48" y1="464" y2="448" /><line stroke="black" stroke-linecap="round" stroke-width="3.0" x1="176" x2="-48" y1="464" y2="464" /><line stroke="black" stroke-linecap="round" stroke-width="3.0" x1="368" x2="368" y1="464" y2="432" /><line stroke="black" stroke-linecap="round" stroke-width="3.0" x1="368" x2="176" y1="464" y2="464" /><line stroke="black" stroke-linecap="round" stroke-width="3.0" x1="176" x2="176" y1="480" y2="464" /><g transform="translate(-48,352)"><g><g><text fill="black" font-family="Arial" font-size="24.0px" text-anchor="start" x="24" y="23.2">Voffset</text></g></g><g><g><text fill="black" font-family="Arial" font-size="24.0px" text-anchor="start" x="24" y="103.2">""</text></g></g><line stroke="black" stroke-linecap="round" stroke-width="3.0" x1="-8" x2="8" y1="36" y2="36" /><line stroke="black" stroke-linecap="round" stroke-width="3.0" x1="-8" x2="8" y1="76" y2="76" /><line stroke="black" stroke-linecap="round" stroke-width="3.0" x1="0" x2="0" y1="28" y2="44" /><line stroke="black" stroke-linecap="round" stroke-width="3.0" x1="0" x2="0" y1="96" y2="88" /><line stroke="black" stroke-linecap="round" stroke-width="3.0" x1="0" x2="0" y1="16" y2="24" /><circle cx="0.0" cy="56.0" fill="none" r="32.0" stroke="black" stroke-width="3.0" /></g><g transform="translate(-48,208)"><g><g><text fill="black" font-family="Arial" font-size="24.0px" text-anchor="start" x="24" y="23.2">Vsignal</text></g></g><g><g><text fill="black" font-family="Arial" font-size="24.0px" text-anchor="start" x="24" y="103.2">SINE()</text></g></g><line stroke="black" stroke-linecap="round" stroke-width="3.0" x1="-8" x2="8" y1="36" y2="36" /><line stroke="black" stroke-linecap="round" stroke-width="3.0" x1="-8" x2="8" y1="76" y2="76" /><line stroke="black" stroke-linecap="round" stroke-width="3.0" x1="0" x2="0" y1="28" y2="44" /><line stroke="black" stroke-linecap="round" stroke-width="3.0" x1="0" x2="0" y1="96" y2="88" /><line stroke="black" stroke-linecap="round" stroke-width="3.0" x1="0" x2="0" y1="16" y2="24" /><circle cx="0.0" cy="56.0" fill="none" r="32.0" stroke="black" stroke-width="3.0" /></g><g transform="translate(208,176) rotate(90)"><g><g><text fill="black" font-family="Arial" font-size="24.0px" text-anchor="start" x="36" y="47.2">Ratten1</text></g></g><g><g><text fill="black" font-family="Arial" font-size="24.0px" text-anchor="start" x="36" y="83.2">""</text></g></g><line stroke="black" stroke-linecap="round" stroke-width="3.0" x1="16" x2="16" y1="88" y2="96" /><line stroke="black" stroke-linecap="round" stroke-width="3.0" x1="0" x2="16" y1="80" y2="88" /><line stroke="black" stroke-linecap="round" stroke-width="3.0" x1="32" x2="0" y1="64" y2="80" /><line stroke="black" stroke-linecap="round" stroke-width="3.0" x1="0" x2="32" y1="48" y2="64" /><line stroke="black" stroke-linecap="round" stroke-width="3.0" x1="32" x2="0" y1="32" y2="48" /><line stroke="black" stroke-linecap="round" stroke-width="3.0" x1="16" x2="16" y1="16" y2="24" /><line stroke="black" stroke-linecap="round" stroke-width="3.0" x1="16" x2="32" y1="24" y2="32" /></g><g transform="translate(384,336) rotate(180)"><g><g><text fill="black" font-family="Arial" font-size="24.0px" text-anchor="start" x="36" y="47.2">Ratten2</text></g></g><g><g><text fill="black" font-family="Arial" font-size="24.0px" text-anchor="start" x="36" y="83.2">""</text></g></g><line stroke="black" stroke-linecap="round" stroke-width="3.0" x1="16" x2="16" y1="88" y2="96" /><line stroke="black" stroke-linecap="round" stroke-width="3.0" x1="0" x2="16" y1="80" y2="88" /><line stroke="black" stroke-linecap="round" stroke-width="3.0" x1="32" x2="0" y1="64" y2="80" /><line stroke="black" stroke-linecap="round" stroke-width="3.0" x1="0" x2="32" y1="48" y2="64" /><line stroke="black" stroke-linecap="round" stroke-width="3.0" x1="32" x2="0" y1="32" y2="48" /><line stroke="black" stroke-linecap="round" stroke-width="3.0" x1="16" x2="16" y1="16" y2="24" /><line stroke="black" stroke-linecap="round" stroke-width="3.0" x1="16" x2="32" y1="24" y2="32" /></g><g transform="translate(384,432) rotate(180)"><g><g><text fill="black" font-family="Arial" font-size="24.0px" text-anchor="start" x="24" y="15.2">CBin</text></g></g><g><g><text fill="black" font-family="Arial" font-size="24.0px" text-anchor="start" x="24" y="63.2">""</text></g></g><line stroke="black" stroke-linecap="round" stroke-width="3.0" x1="16" x2="16" y1="36" y2="64" /><line stroke="black" stroke-linecap="round" stroke-width="3.0" x1="16" x2="16" y1="28" y2="0" /><line stroke="black" stroke-linecap="round" stroke-width="3.0" x1="0" x2="32" y1="28" y2="28" /><line stroke="black" stroke-linecap="round" stroke-width="3.0" x1="0" x2="32" y1="36" y2="36" /></g><g transform="translate(176,480) rotate(0)"><line stroke="black" stroke-linecap="round" stroke-width="3.0" x1="-16" x2="16" y1="0" y2="0" /><line stroke="black" stroke-linecap="round" stroke-width="3.0" x1="-16" x2="0" y1="0" y2="16" /><line stroke="black" stroke-linecap="round" stroke-width="3.0" x1="16" x2="0" y1="0" y2="16" /></g><g transform="translate(32,192) rotate(180)"><g transform="rotate(-180)"><text fill="black" font-family="Arial" font-size="24.0px" text-anchor="middle" x="0" y="-8">W1</text></g></g><g transform="translate(448,192) rotate(270)"><line stroke="black" stroke-linecap="round" stroke-width="3.0" x1="-16" x2="0" y1="80" y2="96" /><line stroke="black" stroke-linecap="round" stroke-width="3.0" x1="16" x2="16" y1="16" y2="80" /><line stroke="black" stroke-linecap="round" stroke-width="3.0" x1="16" x2="-16" y1="16" y2="16" /><line stroke="black" stroke-linecap="round" stroke-width="3.0" x1="-16" x2="-16" y1="80" y2="16" /><line stroke="black" stroke-linecap="round" stroke-width="3.0" x1="0" x2="16" y1="96" y2="80" /><line stroke="black" stroke-linecap="round" stroke-width="3.0" x1="0" x2="0" y1="16" y2="0" /></g><g><text fill="black" font-family="Arial" font-size="24.0px" text-anchor="middle" x="500" y="200.4">to_in</text></g></svg>