<?xml version="1.0" encoding="UTF-8"?>
<svg id="Layer_1" xmlns="http://www.w3.org/2000/svg" xmlns:ev="http://www.w3.org/2001/xml-events" baseProfile="tiny" version="1.2" viewBox="0 0 969 801.9">
  <!-- Generator: Adobe Illustrator 29.4.0, SVG Export Plug-In . SVG Version: 2.1.0 Build 152)  -->
  <defs>
    <style>
      .st0, .st1, .st2, .st3, .st4 {
        fill: none;
        stroke-miterlimit: 6.7;
        stroke-width: 5px;
      }

      .st0, .st2 {
        stroke-linecap: round;
      }

      .st0, .st3, .st4, .st5 {
        stroke: #6b98ff;
      }

      .st6, .st5 {
        font-family: ArialMT, Arial;
        font-size: 40.4px;
        isolation: isolate;
      }

      .st1, .st2 {
        stroke: #000;
      }

      .st3 {
        stroke-dasharray: 0 10.1;
      }

      .st5 {
        stroke-miterlimit: 10;
      }
    </style>
  </defs>
  <line class="st2" x1="350.9" y1="149" x2="216.3" y2="149"/>
  <line class="st0" x1="566.2" y1="149" x2="485.5" y2="149"/>
  <line class="st0" x1="889.2" y1="202.8" x2="754.7" y2="202.8"/>
  <line class="st2" x1="216.3" y1="229.7" x2="216.3" y2="149"/>
  <line class="st0" x1="566.2" y1="256.6" x2="512.4" y2="256.6"/>
  <line class="st2" x1="216.3" y1="445.1" x2="216.3" y2="364.3"/>
  <line class="st0" x1="512.4" y1="404.7" x2="512.4" y2="256.6"/>
  <line class="st2" x1="673.9" y1="404.7" x2="512.4" y2="404.7"/>
  <line class="st2" x1="889.2" y1="404.7" x2="889.2" y2="202.8"/>
  <line class="st2" x1="889.2" y1="404.7" x2="808.5" y2="404.7"/>
  <line class="st2" x1="512.4" y1="431.6" x2="512.4" y2="404.7"/>
  <line class="st2" x1="512.4" y1="593.1" x2="512.4" y2="566.2"/>
  <line class="st2" x1="512.4" y1="754.6" x2="512.4" y2="700.8"/>
  <circle cx="512.4" cy="404.7" r="7.6"/>
  <g>
    <text class="st5" transform="translate(620.1 53.4)"><tspan x="0" y="0">OTA</tspan></text>
    <line class="st0" x1="620.1" y1="95.2" x2="620.1" y2="310.5"/>
    <line class="st0" x1="620.1" y1="149" x2="566.2" y2="149"/>
    <line class="st0" x1="566.2" y1="256.6" x2="620.1" y2="256.6"/>
    <line class="st0" x1="700.8" y1="202.8" x2="754.7" y2="202.8"/>
    <line class="st0" x1="700.8" y1="162.4" x2="700.8" y2="243.2"/>
    <line class="st0" x1="620.1" y1="95.2" x2="700.8" y2="162.4"/>
    <line class="st0" x1="700.8" y1="243.2" x2="620.1" y2="310.5"/>
    <line class="st0" x1="633.5" y1="149" x2="647" y2="149"/>
    <line class="st0" x1="640.3" y1="142.3" x2="640.3" y2="155.7"/>
    <line class="st0" x1="633.5" y1="256.6" x2="647" y2="256.6"/>
    <rect class="st3" x="566.2" y="68.2" width="188.4" height="269.2"/>
    <g>
      <text class="st5" transform="translate(365.7 85.9)"><tspan x="0" y="0">vn,eq</tspan></text>
      <text/>
    </g>
  </g>
  <g>
    <text class="st6" transform="translate(22.8 310.5)"><tspan x="0" y="0">VDD/2</tspan></text>
    <line class="st2" x1="202.9" y1="263.4" x2="229.8" y2="263.4"/>
    <line class="st2" x1="202.9" y1="330.7" x2="229.8" y2="330.7"/>
    <line class="st2" x1="216.3" y1="249.9" x2="216.3" y2="276.8"/>
    <line class="st2" x1="216.3" y1="364.3" x2="216.3" y2="350.9"/>
    <line class="st2" x1="216.3" y1="229.7" x2="216.3" y2="243.2"/>
    <circle class="st1" cx="216.3" cy="297" r="53.8"/>
  </g>
  <g>
    <text class="st6" transform="translate(566.2 653.7)"><tspan x="0" y="0">1u</tspan></text>
    <line class="st2" x1="512.4" y1="653.7" x2="512.4" y2="700.8"/>
    <line class="st2" x1="512.4" y1="640.2" x2="512.4" y2="593.1"/>
    <line class="st2" x1="485.5" y1="640.2" x2="539.3" y2="640.2"/>
    <line class="st2" x1="485.5" y1="653.7" x2="539.3" y2="653.7"/>
  </g>
  <g>
    <text class="st6" transform="translate(700.8 478.1)"><tspan x="0" y="0">100K</tspan></text>
    <line class="st2" x1="687.4" y1="404.7" x2="673.9" y2="404.7"/>
    <line class="st2" x1="700.8" y1="377.8" x2="687.4" y2="404.7"/>
    <line class="st2" x1="727.7" y1="431.6" x2="700.8" y2="377.8"/>
    <line class="st2" x1="754.7" y1="377.8" x2="727.7" y2="431.6"/>
    <line class="st2" x1="781.6" y1="431.6" x2="754.7" y2="377.8"/>
    <line class="st2" x1="808.5" y1="404.7" x2="795" y2="404.7"/>
    <line class="st2" x1="795" y1="404.7" x2="781.6" y2="431.6"/>
  </g>
  <g>
    <text class="st6" transform="translate(401.7 535.2)"><tspan x="0" y="0">100</tspan></text>
    <line class="st2" x1="512.4" y1="445.1" x2="512.4" y2="431.6"/>
    <line class="st2" x1="539.3" y1="458.5" x2="512.4" y2="445.1"/>
    <line class="st2" x1="485.5" y1="485.4" x2="539.3" y2="458.5"/>
    <line class="st2" x1="539.3" y1="512.4" x2="485.5" y2="485.4"/>
    <line class="st2" x1="485.5" y1="539.3" x2="539.3" y2="512.4"/>
    <line class="st2" x1="512.4" y1="566.2" x2="512.4" y2="552.7"/>
    <line class="st2" x1="512.4" y1="552.7" x2="485.5" y2="539.3"/>
  </g>
  <g>
    <line class="st0" x1="418.2" y1="122.6" x2="418.2" y2="178.9"/>
    <line class="st0" x1="350.9" y1="149" x2="364.4" y2="149"/>
    <line class="st0" x1="485.5" y1="149" x2="472" y2="149"/>
    <circle class="st4" cx="418.2" cy="149" r="53.8"/>
    <line class="st0" x1="378.4" y1="149" x2="460.5" y2="149"/>
    <line class="st0" x1="402.6" y1="131.4" x2="433.6" y2="164.4"/>
    <line class="st0" x1="434.7" y1="132.3" x2="401.7" y2="163.3"/>
  </g>
  <g>
    <line class="st2" x1="189.4" y1="445.1" x2="243.3" y2="445.1"/>
    <line class="st2" x1="189.4" y1="445.1" x2="216.3" y2="472"/>
    <line class="st2" x1="243.3" y1="445.1" x2="216.3" y2="472"/>
  </g>
  <g>
    <line class="st2" x1="485.5" y1="754.6" x2="539.3" y2="754.6"/>
    <line class="st2" x1="485.5" y1="754.6" x2="512.4" y2="781.5"/>
    <line class="st2" x1="539.3" y1="754.6" x2="512.4" y2="781.5"/>
  </g>
</svg>