<?xml version="1.0" encoding="UTF-8"?>
<svg id="Layer_1" xmlns="http://www.w3.org/2000/svg" xmlns:xlink="http://www.w3.org/1999/xlink" xmlns:ev="http://www.w3.org/2001/xml-events" version="1.1" viewBox="0 0 547 321">
  <!-- Generator: Adobe Illustrator 29.3.1, SVG Export Plug-In . SVG Version: 2.1.0 Build 151)  -->
  <defs>
    <style>
      .st0 {
        font-family: ArialMT, Arial;
        font-size: 20.1px;
        isolation: isolate;
      }

      .st1 {
        stroke-width: 2px;
      }

      .st1, .st2, .st3 {
        fill: none;
        stroke: #000;
        stroke-miterlimit: 3.3;
      }

      .st2 {
        stroke-linecap: round;
      }

      .st2, .st3 {
        stroke-width: 2.5px;
      }
    </style>
  </defs>
  <circle cx="390.2" cy="53.4" r="3.8"/>
  <circle cx="229.7" cy="280.8" r="3.8"/>
  <line class="st2" x1="109.3" y1="53.4" x2="42.4" y2="53.4"/>
  <line class="st2" x1="176.2" y1="53.4" x2="109.3" y2="53.4"/>
  <line class="st2" x1="390.2" y1="53.4" x2="243.1" y2="53.4"/>
  <line class="st2" x1="457.1" y1="53.4" x2="390.2" y2="53.4"/>
  <line class="st2" x1="42.4" y1="80.1" x2="42.4" y2="53.4"/>
  <line class="st2" x1="390.2" y1="93.5" x2="390.2" y2="53.4"/>
  <line class="st2" x1="42.4" y1="200.5" x2="42.4" y2="147"/>
  <line class="st2" x1="390.2" y1="200.5" x2="390.2" y2="160.4"/>
  <line class="st2" x1="42.4" y1="280.8" x2="42.4" y2="267.4"/>
  <line class="st2" x1="229.7" y1="280.8" x2="42.4" y2="280.8"/>
  <line class="st2" x1="390.2" y1="280.8" x2="390.2" y2="254"/>
  <line class="st2" x1="390.2" y1="280.8" x2="229.7" y2="280.8"/>
  <line class="st2" x1="229.7" y1="294.1" x2="229.7" y2="280.8"/>
  <g>
    <text class="st0" transform="translate(75.9 239.6)"><tspan x="0" y="0">Voffset</tspan></text>
    <line class="st2" x1="35.7" y1="217.2" x2="49.1" y2="217.2"/>
    <line class="st2" x1="35.7" y1="250.7" x2="49.1" y2="250.7"/>
    <line class="st2" x1="42.4" y1="210.5" x2="42.4" y2="223.9"/>
    <line class="st2" x1="42.4" y1="267.4" x2="42.4" y2="260.7"/>
    <line class="st2" x1="42.4" y1="200.5" x2="42.4" y2="207.2"/>
    <circle class="st3" cx="42.4" cy="234" r="26.8"/>
  </g>
  <g>
    <text class="st0" transform="translate(73.3 118.5)"><tspan x="0" y="0">Vsignal</tspan></text>
    <line class="st2" x1="42.4" y1="147" x2="42.4" y2="140.3"/>
    <line class="st2" x1="42.4" y1="80.1" x2="42.4" y2="86.8"/>
    <circle class="st3" cx="42.4" cy="113.6" r="26.8"/>
    <path d="M267.7,152.3"/>
    <path class="st1" d="M23.1,114.8c.9-2.5,5.2-18.3,11.1-17.3,3.3.5,4.5,4.4,9.1,15.2,4.3,10.3,6.1,16.5,8.4,17,2,.4,5.1-2.2,10-15.7"/>
  </g>
  <g>
    <text class="st0" transform="translate(179.5 27.9)"><tspan x="0" y="0">Ratten1</tspan></text>
    <line class="st2" x1="182.9" y1="53.4" x2="176.2" y2="53.4"/>
    <line class="st2" x1="189.6" y1="40" x2="182.9" y2="53.4"/>
    <line class="st2" x1="202.9" y1="66.7" x2="189.6" y2="40"/>
    <line class="st2" x1="216.3" y1="40" x2="202.9" y2="66.7"/>
    <line class="st2" x1="229.7" y1="66.7" x2="216.3" y2="40"/>
    <line class="st2" x1="243.1" y1="53.4" x2="236.4" y2="53.4"/>
    <line class="st2" x1="236.4" y1="53.4" x2="229.7" y2="66.7"/>
  </g>
  <g>
    <text class="st0" transform="translate(415 133.6)"><tspan x="0" y="0">Ratten2</tspan></text>
    <line class="st2" x1="390.2" y1="100.2" x2="390.2" y2="93.5"/>
    <line class="st2" x1="403.6" y1="106.9" x2="390.2" y2="100.2"/>
    <line class="st2" x1="376.8" y1="120.2" x2="403.6" y2="106.9"/>
    <line class="st2" x1="403.6" y1="133.6" x2="376.8" y2="120.2"/>
    <line class="st2" x1="376.8" y1="147" x2="403.6" y2="133.6"/>
    <line class="st2" x1="390.2" y1="160.4" x2="390.2" y2="153.7"/>
    <line class="st2" x1="390.2" y1="153.7" x2="376.8" y2="147"/>
  </g>
  <g>
    <text class="st0" transform="translate(416.6 234.2)"><tspan x="0" y="0">CBin</tspan></text>
    <line class="st2" x1="390.2" y1="223.9" x2="390.2" y2="200.5"/>
    <line class="st2" x1="390.2" y1="230.6" x2="390.2" y2="254"/>
    <line class="st2" x1="403.6" y1="230.6" x2="376.8" y2="230.6"/>
    <line class="st2" x1="403.6" y1="223.9" x2="376.8" y2="223.9"/>
  </g>
  <g>
    <line class="st2" x1="216.3" y1="294.1" x2="243.1" y2="294.1"/>
    <line class="st2" x1="216.3" y1="294.1" x2="229.7" y2="307.5"/>
    <line class="st2" x1="243.1" y1="294.1" x2="229.7" y2="307.5"/>
  </g>
  <text class="st0" transform="translate(94.2 46.7)"><tspan x="0" y="0">W1</tspan></text>
  <g>
    <line class="st2" x1="524" y1="66.7" x2="537.4" y2="53.4"/>
    <line class="st2" x1="470.5" y1="40" x2="524" y2="40"/>
    <line class="st2" x1="470.5" y1="40" x2="470.5" y2="66.7"/>
    <line class="st2" x1="524" y1="66.7" x2="470.5" y2="66.7"/>
    <line class="st2" x1="537.4" y1="53.4" x2="524" y2="40"/>
    <line class="st2" x1="470.5" y1="53.4" x2="457.1" y2="53.4"/>
  </g>
  <text class="st0" transform="translate(478.8 60.4)"><tspan x="0" y="0">to_in</tspan></text>
</svg>