<?xml version="1.0" encoding="UTF-8"?>
<svg id="Layer_1" xmlns="http://www.w3.org/2000/svg" xmlns:ev="http://www.w3.org/2001/xml-events" baseProfile="tiny" version="1.2" viewBox="0 0 2132.3 801.9">
  <!-- Generator: Adobe Illustrator 29.4.0, SVG Export Plug-In . SVG Version: 2.1.0 Build 152)  -->
  <line x1="485.5" y1="149" x2="216.3" y2="149" fill="none" stroke="#000" stroke-linecap="round" stroke-miterlimit="6.7" stroke-width="5"/>
  <line x1="566.2" y1="149" x2="485.5" y2="149" fill="none" stroke="#6b98ff" stroke-linecap="round" stroke-miterlimit="6.7" stroke-width="5"/>
  <line x1="889.2" y1="202.8" x2="754.7" y2="202.8" fill="none" stroke="#6b98ff" stroke-linecap="round" stroke-miterlimit="6.7" stroke-width="5"/>
  <line x1="216.3" y1="229.7" x2="216.3" y2="149" fill="none" stroke="#000" stroke-linecap="round" stroke-miterlimit="6.7" stroke-width="5"/>
  <line x1="566.2" y1="256.6" x2="512.4" y2="256.6" fill="none" stroke="#6b98ff" stroke-linecap="round" stroke-miterlimit="6.7" stroke-width="5"/>
  <line x1="216.3" y1="445.1" x2="216.3" y2="364.3" fill="none" stroke="#000" stroke-linecap="round" stroke-miterlimit="6.7" stroke-width="5"/>
  <line x1="512.4" y1="404.7" x2="512.4" y2="256.6" fill="none" stroke="#6b98ff" stroke-linecap="round" stroke-miterlimit="6.7" stroke-width="5"/>
  <line x1="673.9" y1="404.7" x2="512.4" y2="404.7" fill="none" stroke="#000" stroke-linecap="round" stroke-miterlimit="6.7" stroke-width="5"/>
  <line x1="889.2" y1="404.7" x2="889.2" y2="202.8" fill="none" stroke="#000" stroke-linecap="round" stroke-miterlimit="6.7" stroke-width="5"/>
  <line x1="889.2" y1="404.7" x2="808.5" y2="404.7" fill="none" stroke="#000" stroke-linecap="round" stroke-miterlimit="6.7" stroke-width="5"/>
  <line x1="512.4" y1="431.6" x2="512.4" y2="404.7" fill="none" stroke="#000" stroke-linecap="round" stroke-miterlimit="6.7" stroke-width="5"/>
  <line x1="512.4" y1="593.1" x2="512.4" y2="566.2" fill="none" stroke="#000" stroke-linecap="round" stroke-miterlimit="6.7" stroke-width="5"/>
  <line x1="512.4" y1="754.6" x2="512.4" y2="700.8" fill="none" stroke="#000" stroke-linecap="round" stroke-miterlimit="6.7" stroke-width="5"/>
  <circle cx="512.4" cy="404.7" r="7.6"/>
  <g>
    <text transform="translate(620.1 53.4)" font-family="ArialMT, Arial" font-size="40.4" isolation="isolate" stroke="#6b98ff" stroke-miterlimit="10"><tspan x="0" y="0">OTA</tspan></text>
    <line x1="620.1" y1="95.2" x2="620.1" y2="310.5" fill="none" stroke="#6b98ff" stroke-linecap="round" stroke-miterlimit="6.7" stroke-width="5"/>
    <line x1="620.1" y1="149" x2="566.2" y2="149" fill="none" stroke="#6b98ff" stroke-linecap="round" stroke-miterlimit="6.7" stroke-width="5"/>
    <line x1="566.2" y1="256.6" x2="620.1" y2="256.6" fill="none" stroke="#6b98ff" stroke-linecap="round" stroke-miterlimit="6.7" stroke-width="5"/>
    <line x1="700.8" y1="202.8" x2="754.7" y2="202.8" fill="none" stroke="#6b98ff" stroke-linecap="round" stroke-miterlimit="6.7" stroke-width="5"/>
    <line x1="700.8" y1="162.4" x2="700.8" y2="243.2" fill="none" stroke="#6b98ff" stroke-linecap="round" stroke-miterlimit="6.7" stroke-width="5"/>
    <line x1="620.1" y1="95.2" x2="700.8" y2="162.4" fill="none" stroke="#6b98ff" stroke-linecap="round" stroke-miterlimit="6.7" stroke-width="5"/>
    <line x1="700.8" y1="243.2" x2="620.1" y2="310.5" fill="none" stroke="#6b98ff" stroke-linecap="round" stroke-miterlimit="6.7" stroke-width="5"/>
    <line x1="633.5" y1="149" x2="647" y2="149" fill="none" stroke="#6b98ff" stroke-linecap="round" stroke-miterlimit="6.7" stroke-width="5"/>
    <line x1="640.3" y1="142.3" x2="640.3" y2="155.7" fill="none" stroke="#6b98ff" stroke-linecap="round" stroke-miterlimit="6.7" stroke-width="5"/>
    <line x1="633.5" y1="256.6" x2="647" y2="256.6" fill="none" stroke="#6b98ff" stroke-linecap="round" stroke-miterlimit="6.7" stroke-width="5"/>
    <rect x="566.2" y="68.2" width="188.4" height="269.2" fill="none" stroke="#6b98ff" stroke-dasharray="0 10.1" stroke-miterlimit="6.7" stroke-width="5"/>
  </g>
  <g>
    <text transform="translate(22.8 310.5)" font-family="ArialMT, Arial" font-size="40.4" isolation="isolate"><tspan x="0" y="0">VDD/2</tspan></text>
    <line x1="202.9" y1="263.4" x2="229.8" y2="263.4" fill="none" stroke="#000" stroke-linecap="round" stroke-miterlimit="6.7" stroke-width="5"/>
    <line x1="202.9" y1="330.7" x2="229.8" y2="330.7" fill="none" stroke="#000" stroke-linecap="round" stroke-miterlimit="6.7" stroke-width="5"/>
    <line x1="216.3" y1="249.9" x2="216.3" y2="276.8" fill="none" stroke="#000" stroke-linecap="round" stroke-miterlimit="6.7" stroke-width="5"/>
    <line x1="216.3" y1="364.3" x2="216.3" y2="350.9" fill="none" stroke="#000" stroke-linecap="round" stroke-miterlimit="6.7" stroke-width="5"/>
    <line x1="216.3" y1="229.7" x2="216.3" y2="243.2" fill="none" stroke="#000" stroke-linecap="round" stroke-miterlimit="6.7" stroke-width="5"/>
    <circle cx="216.3" cy="297" r="53.8" fill="none" stroke="#000" stroke-miterlimit="6.7" stroke-width="5"/>
  </g>
  <g>
    <text transform="translate(566.2 653.7)" font-family="ArialMT, Arial" font-size="40.4" isolation="isolate"><tspan x="0" y="0">1u</tspan></text>
    <line x1="512.4" y1="653.7" x2="512.4" y2="700.8" fill="none" stroke="#000" stroke-linecap="round" stroke-miterlimit="6.7" stroke-width="5"/>
    <line x1="512.4" y1="640.2" x2="512.4" y2="593.1" fill="none" stroke="#000" stroke-linecap="round" stroke-miterlimit="6.7" stroke-width="5"/>
    <line x1="485.5" y1="640.2" x2="539.3" y2="640.2" fill="none" stroke="#000" stroke-linecap="round" stroke-miterlimit="6.7" stroke-width="5"/>
    <line x1="485.5" y1="653.7" x2="539.3" y2="653.7" fill="none" stroke="#000" stroke-linecap="round" stroke-miterlimit="6.7" stroke-width="5"/>
  </g>
  <g>
    <text transform="translate(700.8 478.1)" font-family="ArialMT, Arial" font-size="40.4" isolation="isolate"><tspan x="0" y="0">100K</tspan></text>
    <line x1="687.4" y1="404.7" x2="673.9" y2="404.7" fill="none" stroke="#000" stroke-linecap="round" stroke-miterlimit="6.7" stroke-width="5"/>
    <line x1="700.8" y1="377.8" x2="687.4" y2="404.7" fill="none" stroke="#000" stroke-linecap="round" stroke-miterlimit="6.7" stroke-width="5"/>
    <line x1="727.7" y1="431.6" x2="700.8" y2="377.8" fill="none" stroke="#000" stroke-linecap="round" stroke-miterlimit="6.7" stroke-width="5"/>
    <line x1="754.7" y1="377.8" x2="727.7" y2="431.6" fill="none" stroke="#000" stroke-linecap="round" stroke-miterlimit="6.7" stroke-width="5"/>
    <line x1="781.6" y1="431.6" x2="754.7" y2="377.8" fill="none" stroke="#000" stroke-linecap="round" stroke-miterlimit="6.7" stroke-width="5"/>
    <line x1="808.5" y1="404.7" x2="795" y2="404.7" fill="none" stroke="#000" stroke-linecap="round" stroke-miterlimit="6.7" stroke-width="5"/>
    <line x1="795" y1="404.7" x2="781.6" y2="431.6" fill="none" stroke="#000" stroke-linecap="round" stroke-miterlimit="6.7" stroke-width="5"/>
  </g>
  <g>
    <text transform="translate(401.7 535.2)" font-family="ArialMT, Arial" font-size="40.4" isolation="isolate"><tspan x="0" y="0">100</tspan></text>
    <line x1="512.4" y1="445.1" x2="512.4" y2="431.6" fill="none" stroke="#000" stroke-linecap="round" stroke-miterlimit="6.7" stroke-width="5"/>
    <line x1="539.3" y1="458.5" x2="512.4" y2="445.1" fill="none" stroke="#000" stroke-linecap="round" stroke-miterlimit="6.7" stroke-width="5"/>
    <line x1="485.5" y1="485.4" x2="539.3" y2="458.5" fill="none" stroke="#000" stroke-linecap="round" stroke-miterlimit="6.7" stroke-width="5"/>
    <line x1="539.3" y1="512.4" x2="485.5" y2="485.4" fill="none" stroke="#000" stroke-linecap="round" stroke-miterlimit="6.7" stroke-width="5"/>
    <line x1="485.5" y1="539.3" x2="539.3" y2="512.4" fill="none" stroke="#000" stroke-linecap="round" stroke-miterlimit="6.7" stroke-width="5"/>
    <line x1="512.4" y1="566.2" x2="512.4" y2="552.7" fill="none" stroke="#000" stroke-linecap="round" stroke-miterlimit="6.7" stroke-width="5"/>
    <line x1="512.4" y1="552.7" x2="485.5" y2="539.3" fill="none" stroke="#000" stroke-linecap="round" stroke-miterlimit="6.7" stroke-width="5"/>
  </g>
  <g>
    <line x1="189.4" y1="445.1" x2="243.3" y2="445.1" fill="none" stroke="#000" stroke-linecap="round" stroke-miterlimit="6.7" stroke-width="5"/>
    <line x1="189.4" y1="445.1" x2="216.3" y2="472" fill="none" stroke="#000" stroke-linecap="round" stroke-miterlimit="6.7" stroke-width="5"/>
    <line x1="243.3" y1="445.1" x2="216.3" y2="472" fill="none" stroke="#000" stroke-linecap="round" stroke-miterlimit="6.7" stroke-width="5"/>
  </g>
  <g>
    <line x1="485.5" y1="754.6" x2="539.3" y2="754.6" fill="none" stroke="#000" stroke-linecap="round" stroke-miterlimit="6.7" stroke-width="5"/>
    <line x1="485.5" y1="754.6" x2="512.4" y2="781.5" fill="none" stroke="#000" stroke-linecap="round" stroke-miterlimit="6.7" stroke-width="5"/>
    <line x1="539.3" y1="754.6" x2="512.4" y2="781.5" fill="none" stroke="#000" stroke-linecap="round" stroke-miterlimit="6.7" stroke-width="5"/>
  </g>
  <line x1="1394.2" y1="136.2" x2="1259.6" y2="136.2" fill="none" stroke="#000" stroke-linecap="round" stroke-miterlimit="6.7" stroke-width="5"/>
  <line x1="1609.5" y1="136.2" x2="1528.8" y2="136.2" fill="none" stroke="#6b98ff" stroke-linecap="round" stroke-miterlimit="6.7" stroke-width="5"/>
  <line x1="1932.5" y1="190" x2="1797.9" y2="190" fill="none" stroke="#6b98ff" stroke-linecap="round" stroke-miterlimit="6.7" stroke-width="5"/>
  <line x1="1259.6" y1="216.9" x2="1259.6" y2="136.2" fill="none" stroke="#000" stroke-linecap="round" stroke-miterlimit="6.7" stroke-width="5"/>
  <line x1="1609.5" y1="243.9" x2="1555.7" y2="243.9" fill="none" stroke="#6b98ff" stroke-linecap="round" stroke-miterlimit="6.7" stroke-width="5"/>
  <line x1="1259.6" y1="432.3" x2="1259.6" y2="351.5" fill="none" stroke="#000" stroke-linecap="round" stroke-miterlimit="6.7" stroke-width="5"/>
  <line x1="1555.7" y1="391.9" x2="1555.7" y2="243.9" fill="none" stroke="#6b98ff" stroke-linecap="round" stroke-miterlimit="6.7" stroke-width="5"/>
  <line x1="1717.2" y1="391.9" x2="1555.7" y2="391.9" fill="none" stroke="#000" stroke-linecap="round" stroke-miterlimit="6.7" stroke-width="5"/>
  <line x1="1932.5" y1="391.9" x2="1932.5" y2="190" fill="none" stroke="#000" stroke-linecap="round" stroke-miterlimit="6.7" stroke-width="5"/>
  <line x1="1932.5" y1="391.9" x2="1851.8" y2="391.9" fill="none" stroke="#000" stroke-linecap="round" stroke-miterlimit="6.7" stroke-width="5"/>
  <line x1="1555.7" y1="418.8" x2="1555.7" y2="391.9" fill="none" stroke="#000" stroke-linecap="round" stroke-miterlimit="6.7" stroke-width="5"/>
  <line x1="1555.7" y1="580.3" x2="1555.7" y2="553.4" fill="none" stroke="#000" stroke-linecap="round" stroke-miterlimit="6.7" stroke-width="5"/>
  <line x1="1555.7" y1="741.8" x2="1555.7" y2="688" fill="none" stroke="#000" stroke-linecap="round" stroke-miterlimit="6.7" stroke-width="5"/>
  <circle cx="1555.7" cy="391.9" r="7.6"/>
  <g>
    <text transform="translate(1663.4 40.6)" font-family="ArialMT, Arial" font-size="40.4" isolation="isolate" stroke="#6b98ff" stroke-miterlimit="10"><tspan x="0" y="0">OTA</tspan></text>
    <line x1="1663.4" y1="82.4" x2="1663.4" y2="297.7" fill="none" stroke="#6b98ff" stroke-linecap="round" stroke-miterlimit="6.7" stroke-width="5"/>
    <line x1="1663.4" y1="136.2" x2="1609.5" y2="136.2" fill="none" stroke="#6b98ff" stroke-linecap="round" stroke-miterlimit="6.7" stroke-width="5"/>
    <line x1="1609.5" y1="243.9" x2="1663.4" y2="243.9" fill="none" stroke="#6b98ff" stroke-linecap="round" stroke-miterlimit="6.7" stroke-width="5"/>
    <line x1="1744.1" y1="190" x2="1797.9" y2="190" fill="none" stroke="#6b98ff" stroke-linecap="round" stroke-miterlimit="6.7" stroke-width="5"/>
    <line x1="1744.1" y1="149.7" x2="1744.1" y2="230.4" fill="none" stroke="#6b98ff" stroke-linecap="round" stroke-miterlimit="6.7" stroke-width="5"/>
    <line x1="1663.4" y1="82.4" x2="1744.1" y2="149.7" fill="none" stroke="#6b98ff" stroke-linecap="round" stroke-miterlimit="6.7" stroke-width="5"/>
    <line x1="1744.1" y1="230.4" x2="1663.4" y2="297.7" fill="none" stroke="#6b98ff" stroke-linecap="round" stroke-miterlimit="6.7" stroke-width="5"/>
    <line x1="1676.8" y1="136.2" x2="1690.3" y2="136.2" fill="none" stroke="#6b98ff" stroke-linecap="round" stroke-miterlimit="6.7" stroke-width="5"/>
    <line x1="1683.5" y1="129.5" x2="1683.5" y2="142.9" fill="none" stroke="#6b98ff" stroke-linecap="round" stroke-miterlimit="6.7" stroke-width="5"/>
    <line x1="1676.8" y1="243.9" x2="1690.3" y2="243.9" fill="none" stroke="#6b98ff" stroke-linecap="round" stroke-miterlimit="6.7" stroke-width="5"/>
    <rect x="1609.5" y="55.5" width="188.4" height="269.2" fill="none" stroke="#6b98ff" stroke-dasharray="0 10.1" stroke-miterlimit="6.7" stroke-width="5"/>
    <g>
      <text transform="translate(1409 73.1)" font-family="ArialMT, Arial" font-size="40.4" isolation="isolate" stroke="#6b98ff" stroke-miterlimit="10"><tspan x="0" y="0">vn,eq</tspan></text>
      <text/>
    </g>
  </g>
  <g>
    <text transform="translate(1066.1 297.7)" font-family="ArialMT, Arial" font-size="40.4" isolation="isolate"><tspan x="0" y="0">VDD/2</tspan></text>
    <line x1="1246.2" y1="250.6" x2="1273.1" y2="250.6" fill="none" stroke="#000" stroke-linecap="round" stroke-miterlimit="6.7" stroke-width="5"/>
    <line x1="1246.2" y1="317.9" x2="1273.1" y2="317.9" fill="none" stroke="#000" stroke-linecap="round" stroke-miterlimit="6.7" stroke-width="5"/>
    <line x1="1259.6" y1="237.1" x2="1259.6" y2="264.1" fill="none" stroke="#000" stroke-linecap="round" stroke-miterlimit="6.7" stroke-width="5"/>
    <line x1="1259.6" y1="351.5" x2="1259.6" y2="338.1" fill="none" stroke="#000" stroke-linecap="round" stroke-miterlimit="6.7" stroke-width="5"/>
    <line x1="1259.6" y1="216.9" x2="1259.6" y2="230.4" fill="none" stroke="#000" stroke-linecap="round" stroke-miterlimit="6.7" stroke-width="5"/>
    <circle cx="1259.6" cy="284.2" r="53.8" fill="none" stroke="#000" stroke-miterlimit="6.7" stroke-width="5"/>
  </g>
  <g>
    <text transform="translate(1609.5 640.9)" font-family="ArialMT, Arial" font-size="40.4" isolation="isolate"><tspan x="0" y="0">1u</tspan></text>
    <line x1="1555.7" y1="640.9" x2="1555.7" y2="688" fill="none" stroke="#000" stroke-linecap="round" stroke-miterlimit="6.7" stroke-width="5"/>
    <line x1="1555.7" y1="627.4" x2="1555.7" y2="580.3" fill="none" stroke="#000" stroke-linecap="round" stroke-miterlimit="6.7" stroke-width="5"/>
    <line x1="1528.8" y1="627.4" x2="1582.6" y2="627.4" fill="none" stroke="#000" stroke-linecap="round" stroke-miterlimit="6.7" stroke-width="5"/>
    <line x1="1528.8" y1="640.9" x2="1582.6" y2="640.9" fill="none" stroke="#000" stroke-linecap="round" stroke-miterlimit="6.7" stroke-width="5"/>
  </g>
  <g>
    <text transform="translate(1744.1 465.3)" font-family="ArialMT, Arial" font-size="40.4" isolation="isolate"><tspan x="0" y="0">100K</tspan></text>
    <line x1="1730.7" y1="391.9" x2="1717.2" y2="391.9" fill="none" stroke="#000" stroke-linecap="round" stroke-miterlimit="6.7" stroke-width="5"/>
    <line x1="1744.1" y1="365" x2="1730.7" y2="391.9" fill="none" stroke="#000" stroke-linecap="round" stroke-miterlimit="6.7" stroke-width="5"/>
    <line x1="1771" y1="418.8" x2="1744.1" y2="365" fill="none" stroke="#000" stroke-linecap="round" stroke-miterlimit="6.7" stroke-width="5"/>
    <line x1="1797.9" y1="365" x2="1771" y2="418.8" fill="none" stroke="#000" stroke-linecap="round" stroke-miterlimit="6.7" stroke-width="5"/>
    <line x1="1824.9" y1="418.8" x2="1797.9" y2="365" fill="none" stroke="#000" stroke-linecap="round" stroke-miterlimit="6.7" stroke-width="5"/>
    <line x1="1851.8" y1="391.9" x2="1838.3" y2="391.9" fill="none" stroke="#000" stroke-linecap="round" stroke-miterlimit="6.7" stroke-width="5"/>
    <line x1="1838.3" y1="391.9" x2="1824.9" y2="418.8" fill="none" stroke="#000" stroke-linecap="round" stroke-miterlimit="6.7" stroke-width="5"/>
  </g>
  <g>
    <text transform="translate(1445 522.5)" font-family="ArialMT, Arial" font-size="40.4" isolation="isolate"><tspan x="0" y="0">100</tspan></text>
    <line x1="1555.7" y1="432.3" x2="1555.7" y2="418.8" fill="none" stroke="#000" stroke-linecap="round" stroke-miterlimit="6.7" stroke-width="5"/>
    <line x1="1582.6" y1="445.7" x2="1555.7" y2="432.3" fill="none" stroke="#000" stroke-linecap="round" stroke-miterlimit="6.7" stroke-width="5"/>
    <line x1="1528.8" y1="472.6" x2="1582.6" y2="445.7" fill="none" stroke="#000" stroke-linecap="round" stroke-miterlimit="6.7" stroke-width="5"/>
    <line x1="1582.6" y1="499.6" x2="1528.8" y2="472.6" fill="none" stroke="#000" stroke-linecap="round" stroke-miterlimit="6.7" stroke-width="5"/>
    <line x1="1528.8" y1="526.5" x2="1582.6" y2="499.6" fill="none" stroke="#000" stroke-linecap="round" stroke-miterlimit="6.7" stroke-width="5"/>
    <line x1="1555.7" y1="553.4" x2="1555.7" y2="539.9" fill="none" stroke="#000" stroke-linecap="round" stroke-miterlimit="6.7" stroke-width="5"/>
    <line x1="1555.7" y1="539.9" x2="1528.8" y2="526.5" fill="none" stroke="#000" stroke-linecap="round" stroke-miterlimit="6.7" stroke-width="5"/>
  </g>
  <g>
    <line x1="1461.5" y1="109.8" x2="1461.5" y2="166.1" fill="none" stroke="#6b98ff" stroke-linecap="round" stroke-miterlimit="6.7" stroke-width="5"/>
    <line x1="1394.2" y1="136.2" x2="1407.7" y2="136.2" fill="none" stroke="#6b98ff" stroke-linecap="round" stroke-miterlimit="6.7" stroke-width="5"/>
    <line x1="1528.8" y1="136.2" x2="1515.3" y2="136.2" fill="none" stroke="#6b98ff" stroke-linecap="round" stroke-miterlimit="6.7" stroke-width="5"/>
    <circle cx="1461.5" cy="136.2" r="53.8" fill="none" stroke="#6b98ff" stroke-miterlimit="6.7" stroke-width="5"/>
    <line x1="1421.7" y1="136.2" x2="1503.8" y2="136.2" fill="none" stroke="#6b98ff" stroke-linecap="round" stroke-miterlimit="6.7" stroke-width="5"/>
    <line x1="1445.9" y1="118.6" x2="1476.9" y2="151.6" fill="none" stroke="#6b98ff" stroke-linecap="round" stroke-miterlimit="6.7" stroke-width="5"/>
    <line x1="1478" y1="119.5" x2="1445" y2="150.5" fill="none" stroke="#6b98ff" stroke-linecap="round" stroke-miterlimit="6.7" stroke-width="5"/>
  </g>
  <g>
    <line x1="1232.7" y1="432.3" x2="1286.5" y2="432.3" fill="none" stroke="#000" stroke-linecap="round" stroke-miterlimit="6.7" stroke-width="5"/>
    <line x1="1232.7" y1="432.3" x2="1259.6" y2="459.2" fill="none" stroke="#000" stroke-linecap="round" stroke-miterlimit="6.7" stroke-width="5"/>
    <line x1="1286.5" y1="432.3" x2="1259.6" y2="459.2" fill="none" stroke="#000" stroke-linecap="round" stroke-miterlimit="6.7" stroke-width="5"/>
  </g>
  <g>
    <line x1="1528.8" y1="741.8" x2="1582.6" y2="741.8" fill="none" stroke="#000" stroke-linecap="round" stroke-miterlimit="6.7" stroke-width="5"/>
    <line x1="1528.8" y1="741.8" x2="1555.7" y2="768.7" fill="none" stroke="#000" stroke-linecap="round" stroke-miterlimit="6.7" stroke-width="5"/>
    <line x1="1582.6" y1="741.8" x2="1555.7" y2="768.7" fill="none" stroke="#000" stroke-linecap="round" stroke-miterlimit="6.7" stroke-width="5"/>
  </g>
</svg>