<?xml version="1.0" encoding="UTF-8"?>
<svg id="Layer_1" xmlns="http://www.w3.org/2000/svg" xmlns:xlink="http://www.w3.org/1999/xlink" xmlns:ev="http://www.w3.org/2001/xml-events" version="1.1" viewBox="0 0 547.2 236.1">
  <!-- Generator: Adobe Illustrator 29.3.1, SVG Export Plug-In . SVG Version: 2.1.0 Build 151)  -->
  <defs>
    <style>
      .st0, .st1, .st2, .st3 {
        fill: #0096ff;
      }

      .st4, .st5, .st6, .st7, .st8 {
        stroke-miterlimit: 1.4;
      }

      .st4, .st5, .st6, .st7, .st8, .st9 {
        fill: none;
      }

      .st4, .st5, .st7, .st8 {
        stroke-width: 1.1px;
      }

      .st4, .st5, .st7, .st8, .st9 {
        stroke: #000;
      }

      .st10, .st1, .st11 {
        font-size: 8.7px;
      }

      .st10, .st1, .st11, .st2, .st12, .st13, .st14, .st3, .st15 {
        font-family: ArialMT, Arial;
      }

      .st10, .st1, .st11, .st14, .st15 {
        isolation: isolate;
      }

      .st11, .st16 {
        fill: #0096ff;
      }

      .st2 {
        font-size: 8px;
      }

      .st12 {
        font-size: 12px;
      }

      .st13, .st16, .st3 {
        font-size: 10px;
      }

      .st5, .st7 {
        stroke-dasharray: 0 2.2;
      }

      .st5, .st8, .st9 {
        stroke-linecap: round;
      }

      .st14 {
        font-size: 3.6px;
      }

      .st16 {
        font-family: Arial-ItalicMT, Arial;
        font-style: italic;
      }

      .st6 {
        stroke: #0096ff;
        stroke-width: 2px;
      }

      .st15 {
        font-size: 5.8px;
      }

      .st9 {
        stroke-miterlimit: 1.4;
        stroke-width: 1.1px;
      }
    </style>
  </defs>
  <line class="st8" x1="175.7" y1="58.9" x2="88.9" y2="58.9"/>
  <line class="st8" x1="307.8" y1="58.9" x2="247.2" y2="58.9"/>
  <line class="st8" x1="331.9" y1="58.9" x2="307.8" y2="58.9"/>
  <line class="st8" x1="88.9" y1="105.1" x2="77.3" y2="105.1"/>
  <line class="st8" x1="141" y1="105.1" x2="117.8" y2="105.1"/>
  <line class="st8" x1="204.6" y1="105.1" x2="141" y2="105.1"/>
  <line class="st8" x1="499.8" y1="105.1" x2="499.8" y2="87.8"/>
  <line class="st8" x1="141" y1="116.7" x2="141" y2="105.1"/>
  <line class="st8" x1="262.5" y1="116.7" x2="256.7" y2="116.7"/>
  <line class="st8" x1="297.2" y1="116.7" x2="262.5" y2="116.7"/>
  <line class="st8" x1="372.5" y1="116.7" x2="372.5" y2="87.8"/>
  <line class="st8" x1="418.8" y1="116.7" x2="372.5" y2="116.7"/>
  <line class="st8" x1="453.5" y1="116.7" x2="418.8" y2="116.7"/>
  <line class="st8" x1="175.7" y1="128.3" x2="175.7" y2="58.9"/>
  <line class="st8" x1="204.6" y1="128.3" x2="175.7" y2="128.3"/>
  <line class="st8" x1="499.8" y1="134.1" x2="499.8" y2="128.3"/>
  <line class="st8" x1="499.8" y1="134.1" x2="470.8" y2="134.1"/>
  <line class="st8" x1="499.8" y1="145.7" x2="499.8" y2="134.1"/>
  <line class="st8" x1="141" y1="151.4" x2="141" y2="145.7"/>
  <line class="st8" x1="262.5" y1="151.4" x2="262.5" y2="116.7"/>
  <line class="st8" x1="372.5" y1="151.4" x2="372.5" y2="116.7"/>
  <line class="st8" x1="418.8" y1="151.4" x2="418.8" y2="116.7"/>
  <line class="st8" x1="19.4" y1="163" x2="19.4" y2="145.7"/>
  <line class="st8" x1="470.8" y1="163" x2="470.8" y2="134.1"/>
  <line class="st8" x1="482.4" y1="163" x2="470.8" y2="163"/>
  <line class="st8" x1="297.2" y1="174.6" x2="297.2" y2="116.7"/>
  <line class="st8" x1="343.5" y1="174.6" x2="297.2" y2="174.6"/>
  <line class="st8" x1="141" y1="197.7" x2="141" y2="174.6"/>
  <line class="st8" x1="262.5" y1="197.7" x2="262.5" y2="174.6"/>
  <line class="st8" x1="262.5" y1="197.7" x2="141" y2="197.7"/>
  <line class="st8" x1="418.8" y1="197.7" x2="418.8" y2="174.6"/>
  <line class="st8" x1="418.8" y1="197.7" x2="262.5" y2="197.7"/>
  <line class="st8" x1="499.8" y1="197.7" x2="499.8" y2="174.6"/>
  <line class="st8" x1="499.8" y1="197.7" x2="418.8" y2="197.7"/>
  <line class="st8" x1="141" y1="203.5" x2="141" y2="197.7"/>
  <line class="st8" x1="19.4" y1="209.3" x2="19.4" y2="192"/>
  <line class="st8" x1="77.3" y1="220.9" x2="77.3" y2="105.1"/>
  <line class="st8" x1="453.5" y1="220.9" x2="453.5" y2="116.7"/>
  <line class="st8" x1="453.5" y1="220.9" x2="77.3" y2="220.9"/>
  <circle cx="141" cy="105.1" r="1.6"/>
  <circle cx="262.5" cy="116.7" r="1.6"/>
  <circle cx="372.5" cy="116.7" r="1.6"/>
  <circle cx="418.8" cy="116.7" r="1.6"/>
  <circle cx="499.8" cy="134.1" r="1.6"/>
  <circle cx="141" cy="197.7" r="1.6"/>
  <circle cx="262.5" cy="197.7" r="1.6"/>
  <circle cx="418.8" cy="197.7" r="1.6"/>
  <path class="st5" d="M463.6,103.7h66.6v117.2h-66.6v-117.2Z"/>
  <g>
    <text/>
    <text class="st1" transform="translate(28.1 194.6)"><tspan x="0" y="0">2.5V</tspan></text>
    <line class="st8" x1="16.5" y1="170.3" x2="22.3" y2="170.3"/>
    <line class="st8" x1="16.5" y1="184.7" x2="22.3" y2="184.7"/>
    <line class="st8" x1="19.4" y1="167.4" x2="19.4" y2="173.1"/>
    <line class="st8" x1="19.4" y1="192" x2="19.4" y2="189.1"/>
    <line class="st8" x1="19.4" y1="163" x2="19.4" y2="165.9"/>
    <circle class="st4" cx="19.4" cy="177.5" r="11.6"/>
  </g>
  <g>
    <text/>
    <text class="st14" transform="translate(490 86)"><tspan x="0" y="0">68</tspan></text>
    <text class="st15" transform="translate(476.6 42.9)"><tspan x="0" y="0">1x</tspan></text>
    <text class="st15" transform="translate(499.8 26.1)"><tspan x="0" y="0">VDD</tspan></text>
    <text class="st14" transform="translate(380.3 86)"><tspan x="0" y="0">65</tspan></text>
    <text class="st15" transform="translate(386.9 41.8)"><tspan x="0" y="0">4x</tspan></text>
    <line class="st8" x1="499.8" y1="87.8" x2="499.8" y2="76.2"/>
    <line class="st8" x1="499.8" y1="41.5" x2="499.8" y2="28.5"/>
    <line class="st8" x1="502.7" y1="29.9" x2="496.9" y2="27"/>
    <line class="st8" x1="372.5" y1="41.5" x2="372.5" y2="34.3"/>
    <line class="st8" x1="372.5" y1="47.3" x2="372.5" y2="41.5"/>
    <line class="st8" x1="380.8" y1="53.1" x2="372.5" y2="53.1"/>
    <line class="st8" x1="389.8" y1="58.9" x2="386.9" y2="58.9"/>
    <line class="st8" x1="386.9" y1="70.4" x2="386.9" y2="47.3"/>
    <line class="st8" x1="372.5" y1="70.4" x2="384" y2="70.4"/>
    <line class="st8" x1="372.5" y1="76.2" x2="372.5" y2="70.4"/>
    <line class="st8" x1="366.7" y1="53.1" x2="372.5" y2="53.1"/>
    <line class="st8" x1="366.7" y1="41.5" x2="366.7" y2="53.1"/>
    <line class="st8" x1="372.5" y1="41.5" x2="366.7" y2="41.5"/>
    <line class="st8" x1="372.5" y1="41.5" x2="372.5" y2="41.5"/>
    <line class="st8" x1="384" y1="70.4" x2="384" y2="47.3"/>
    <line class="st8" x1="378.2" y1="48.7" x2="384" y2="47.3"/>
    <line class="st8" x1="378.2" y1="45.8" x2="378.2" y2="48.7"/>
    <line class="st8" x1="384" y1="47.3" x2="378.2" y2="45.8"/>
    <line class="st8" x1="372.5" y1="47.3" x2="378.2" y2="47.3"/>
    <line class="st8" x1="499.8" y1="47.3" x2="499.8" y2="41.5"/>
    <line class="st8" x1="491.5" y1="53.1" x2="499.8" y2="53.1"/>
    <line class="st8" x1="482.4" y1="58.9" x2="485.3" y2="58.9"/>
    <line class="st8" x1="485.3" y1="70.4" x2="485.3" y2="47.3"/>
    <line class="st8" x1="499.8" y1="70.4" x2="488.2" y2="70.4"/>
    <line class="st8" x1="499.8" y1="76.2" x2="499.8" y2="70.4"/>
    <line class="st8" x1="505.6" y1="53.1" x2="499.8" y2="53.1"/>
    <line class="st8" x1="505.6" y1="41.5" x2="505.6" y2="53.1"/>
    <line class="st8" x1="499.8" y1="41.5" x2="505.6" y2="41.5"/>
    <line class="st8" x1="499.8" y1="41.5" x2="499.8" y2="41.5"/>
    <line class="st8" x1="488.2" y1="70.4" x2="488.2" y2="47.3"/>
    <line class="st8" x1="494" y1="48.7" x2="488.2" y2="47.3"/>
    <line class="st8" x1="494" y1="45.8" x2="494" y2="48.7"/>
    <line class="st8" x1="488.2" y1="47.3" x2="494" y2="45.8"/>
    <line class="st8" x1="499.8" y1="47.3" x2="494" y2="47.3"/>
    <line class="st8" x1="372.5" y1="87.8" x2="372.5" y2="76.2"/>
    <line class="st8" x1="320.4" y1="58.9" x2="482.4" y2="58.9"/>
    <line class="st8" x1="473.7" y1="79.1" x2="499.8" y2="79.1"/>
    <line class="st8" x1="473.7" y1="58.9" x2="473.7" y2="79.1"/>
  </g>
  <g>
    <text/>
    <text class="st15" transform="translate(343.5 192)"><tspan x="0" y="0">4x B</tspan></text>
    <text class="st14" transform="translate(346.2 173.1)"><tspan x="0" y="0">30</tspan></text>
    <text class="st14" transform="translate(366.1 155.4)"><tspan x="0" y="0">31</tspan></text>
    <line class="st8" x1="372.5" y1="186.2" x2="372.5" y2="192"/>
    <line class="st8" x1="364.1" y1="180.4" x2="372.5" y2="180.4"/>
    <line class="st8" x1="355.1" y1="174.6" x2="358" y2="174.6"/>
    <line class="st8" x1="358" y1="163" x2="358" y2="186.2"/>
    <line class="st8" x1="372.5" y1="163" x2="360.9" y2="163"/>
    <line class="st8" x1="372.5" y1="157.2" x2="372.5" y2="163"/>
    <line class="st8" x1="378.2" y1="180.4" x2="372.5" y2="180.4"/>
    <line class="st8" x1="378.2" y1="192" x2="378.2" y2="180.4"/>
    <line class="st8" x1="372.5" y1="192" x2="378.2" y2="192"/>
    <line class="st8" x1="372.5" y1="192" x2="372.5" y2="203.5"/>
    <line class="st8" x1="372.5" y1="192" x2="372.5" y2="192"/>
    <line class="st8" x1="366.7" y1="203.5" x2="372.5" y2="209.3"/>
    <line class="st8" x1="372.5" y1="203.5" x2="366.7" y2="203.5"/>
    <line class="st8" x1="343.5" y1="174.6" x2="355.1" y2="174.6"/>
    <line class="st8" x1="360.9" y1="163" x2="360.9" y2="186.2"/>
    <line class="st8" x1="366.7" y1="184.7" x2="372.5" y2="186.2"/>
    <line class="st8" x1="366.7" y1="187.6" x2="366.7" y2="184.7"/>
    <line class="st8" x1="372.5" y1="186.2" x2="366.7" y2="187.6"/>
    <line class="st8" x1="360.9" y1="186.2" x2="366.7" y2="186.2"/>
    <line class="st8" x1="372.5" y1="151.4" x2="372.5" y2="157.2"/>
    <line class="st8" x1="378.2" y1="203.5" x2="372.5" y2="203.5"/>
    <line class="st8" x1="372.5" y1="209.3" x2="378.2" y2="203.5"/>
  </g>
  <g>
    <text/>
    <text class="st14" transform="translate(250.4 114.9)"><tspan x="0" y="0">54</tspan></text>
    <text class="st10" transform="translate(218 106.3)"><tspan x="0" y="0">+</tspan></text>
    <text class="st10" transform="translate(219.1 130.9)"><tspan x="0" y="0">-</tspan></text>
    <text class="st14" transform="translate(207 123.6)"><tspan x="0" y="0">55</tspan></text>
    <text class="st14" transform="translate(207 110.6)"><tspan x="0" y="0">56</tspan></text>
    <text class="st10" transform="translate(207.5 152.8)"><tspan x="0" y="0">OTA_pMOS</tspan></text>
    <text class="st15" transform="translate(214.4 30.2)"><tspan x="0" y="0">VDD</tspan></text>
    <text class="st14" transform="translate(250.5 64.6)"><tspan x="0" y="0">68</tspan></text>
    <text class="st15" transform="translate(240 41.5)"><tspan x="0" y="0">2x</tspan></text>
    <line class="st8" x1="228.4" y1="41.5" x2="228.4" y2="47.3"/>
    <line class="st8" x1="228.4" y1="53.1" x2="236.7" y2="53.1"/>
    <line class="st8" x1="242.9" y1="58.9" x2="245.8" y2="58.9"/>
    <line class="st8" x1="242.9" y1="47.3" x2="242.9" y2="70.4"/>
    <line class="st8" x1="240" y1="70.4" x2="228.4" y2="70.4"/>
    <line class="st8" x1="228.4" y1="70.4" x2="228.4" y2="76.2"/>
    <line class="st8" x1="228.4" y1="53.1" x2="222.6" y2="53.1"/>
    <line class="st8" x1="222.6" y1="53.1" x2="222.6" y2="41.5"/>
    <line class="st8" x1="222.6" y1="41.5" x2="228.4" y2="41.5"/>
    <line class="st8" x1="228.4" y1="41.5" x2="228.4" y2="41.5"/>
    <line class="st8" x1="240" y1="47.3" x2="240" y2="70.4"/>
    <line class="st8" x1="240" y1="47.3" x2="234.2" y2="48.7"/>
    <line class="st8" x1="234.2" y1="48.7" x2="234.2" y2="45.8"/>
    <line class="st8" x1="234.2" y1="45.8" x2="240" y2="47.3"/>
    <line class="st8" x1="234.2" y1="47.3" x2="228.4" y2="47.3"/>
    <line class="st8" x1="228.4" y1="31.4" x2="228.4" y2="41.5"/>
    <line class="st8" x1="224.9" y1="32.8" x2="230.7" y2="29.9"/>
    <line class="st8" x1="228.4" y1="76.2" x2="228.4" y2="103.7"/>
    <line class="st8" x1="245.8" y1="58.9" x2="248.7" y2="58.9"/>
    <line class="st8" x1="248.7" y1="58.9" x2="251.6" y2="58.9"/>
    <line class="st8" x1="216.2" y1="93.6" x2="216.2" y2="139.9"/>
    <line class="st8" x1="245.1" y1="116.7" x2="216.2" y2="93.6"/>
    <line class="st8" x1="216.2" y1="93.6" x2="245.1" y2="116.7"/>
    <line class="st8" x1="245.1" y1="116.7" x2="216.2" y2="139.9"/>
    <line class="st8" x1="216.2" y1="105.1" x2="204.6" y2="105.1"/>
    <line class="st8" x1="204.6" y1="128.3" x2="216.2" y2="128.3"/>
    <line class="st8" x1="245.1" y1="116.7" x2="256.7" y2="116.7"/>
    <rect class="st7" x="204.6" y="24.1" width="52.1" height="120.1"/>
  </g>
  <g>
    <text/>
    <line class="st8" x1="499.8" y1="171.7" x2="499.8" y2="174.6"/>
    <line class="st8" x1="505.6" y1="168.8" x2="499.8" y2="171.7"/>
    <line class="st8" x1="494" y1="163" x2="505.6" y2="168.8"/>
    <line class="st8" x1="505.6" y1="157.2" x2="494" y2="163"/>
    <line class="st8" x1="494" y1="151.4" x2="505.6" y2="157.2"/>
    <line class="st8" x1="499.8" y1="145.7" x2="499.8" y2="148.6"/>
    <line class="st8" x1="499.8" y1="148.6" x2="494" y2="151.4"/>
    <line class="st8" x1="491.1" y1="163" x2="482.4" y2="163"/>
    <line class="st8" x1="491.1" y1="163" x2="488.2" y2="160.1"/>
    <line class="st8" x1="491.1" y1="163" x2="488.2" y2="165.9"/>
  </g>
  <g>
    <text/>
    <line class="st8" x1="499.8" y1="108" x2="499.8" y2="105.1"/>
    <line class="st8" x1="499.8" y1="125.4" x2="499.8" y2="128.3"/>
    <circle class="st4" cx="499.8" cy="124" r="1.4"/>
    <circle class="st4" cx="499.8" cy="109.5" r="1.4"/>
    <path class="st4" d="M501.2,123.8c3.9-.8,6.5-4.6,5.7-8.5-.6-2.9-2.8-5.1-5.7-5.7"/>
  </g>
  <g>
    <text class="st10" transform="translate(421.6 156.9)"><tspan x="0" y="0">CL2</tspan></text>
    <text/>
    <line class="st8" x1="418.8" y1="164.5" x2="418.8" y2="174.6"/>
    <line class="st8" x1="418.8" y1="161.6" x2="418.8" y2="151.4"/>
    <line class="st8" x1="413" y1="161.6" x2="424.5" y2="161.6"/>
    <line class="st8" x1="413" y1="164.5" x2="424.5" y2="164.5"/>
  </g>
  <g>
    <text class="st10" transform="translate(143.9 156.9)"><tspan x="0" y="0">CB1</tspan></text>
    <line class="st8" x1="141" y1="164.5" x2="141" y2="174.6"/>
    <line class="st8" x1="141" y1="161.6" x2="141" y2="151.4"/>
    <line class="st8" x1="135.2" y1="161.6" x2="146.8" y2="161.6"/>
    <line class="st8" x1="135.2" y1="164.5" x2="146.8" y2="164.5"/>
  </g>
  <g>
    <text class="st10" transform="translate(265.4 156.9)"><tspan x="0" y="0">CL1</tspan></text>
    <line class="st8" x1="262.5" y1="164.5" x2="262.5" y2="174.6"/>
    <line class="st8" x1="262.5" y1="161.6" x2="262.5" y2="151.4"/>
    <line class="st8" x1="256.7" y1="161.6" x2="268.3" y2="161.6"/>
    <line class="st8" x1="256.7" y1="164.5" x2="268.3" y2="164.5"/>
  </g>
  <g>
    <text/>
    <text/>
    <line class="st9" x1="91.8" y1="105.1" x2="88.9" y2="105.1"/>
    <line class="st9" x1="94.7" y1="99.4" x2="91.8" y2="105.1"/>
    <line class="st9" x1="100.5" y1="110.9" x2="94.7" y2="99.4"/>
    <line class="st9" x1="106.2" y1="99.4" x2="100.5" y2="110.9"/>
    <line class="st9" x1="112" y1="110.9" x2="106.2" y2="99.4"/>
    <line class="st9" x1="117.8" y1="105.1" x2="114.9" y2="105.1"/>
    <line class="st9" x1="114.9" y1="105.1" x2="112" y2="110.9"/>
  </g>
  <g>
    <text/>
    <text/>
    <line class="st8" x1="141" y1="119.6" x2="141" y2="116.7"/>
    <line class="st8" x1="146.8" y1="122.5" x2="141" y2="119.6"/>
    <line class="st8" x1="135.2" y1="128.3" x2="146.8" y2="122.5"/>
    <line class="st8" x1="146.8" y1="134.1" x2="135.2" y2="128.3"/>
    <line class="st8" x1="135.2" y1="139.9" x2="146.8" y2="134.1"/>
    <line class="st8" x1="141" y1="145.7" x2="141" y2="142.8"/>
    <line class="st8" x1="141" y1="142.8" x2="135.2" y2="139.9"/>
  </g>
  <g>
    <line class="st8" x1="13.6" y1="209.3" x2="25.2" y2="209.3"/>
    <line class="st8" x1="13.6" y1="209.3" x2="19.4" y2="215.1"/>
    <line class="st8" x1="25.2" y1="209.3" x2="19.4" y2="215.1"/>
  </g>
  <g>
    <line class="st8" x1="135.2" y1="203.5" x2="146.8" y2="203.5"/>
    <line class="st8" x1="135.2" y1="203.5" x2="141" y2="209.3"/>
    <line class="st8" x1="146.8" y1="203.5" x2="141" y2="209.3"/>
  </g>
  <g>
    <line class="st8" x1="13.6" y1="139.9" x2="19.4" y2="145.7"/>
    <line class="st8" x1="25.2" y1="115.3" x2="25.2" y2="139.9"/>
    <line class="st8" x1="13.6" y1="139.9" x2="13.6" y2="115.3"/>
    <line class="st8" x1="19.4" y1="145.7" x2="25.2" y2="139.9"/>
    <line class="st8" x1="19.4" y1="109.5" x2="25.2" y2="115.3"/>
    <line class="st8" x1="19.4" y1="109.5" x2="13.6" y2="115.3"/>
  </g>
  <text class="st10" transform="translate(22.5 136) rotate(-90)"><tspan x="0" y="0">VDD</tspan></text>
  <g>
    <line class="st9" x1="88.9" y1="58.9" x2="83.1" y2="64.6"/>
    <line class="st9" x1="83.1" y1="64.6" x2="59.9" y2="64.6"/>
    <line class="st9" x1="59.9" y1="64.6" x2="59.9" y2="53.1"/>
    <line class="st9" x1="59.9" y1="53.1" x2="83.1" y2="53.1"/>
    <line class="st9" x1="83.1" y1="53.1" x2="88.9" y2="58.9"/>
  </g>
  <text class="st11" transform="translate(66.7 61.9)"><tspan x="0" y="0">in</tspan></text>
  <line class="st8" x1="499.8" y1="34.3" x2="372.9" y2="34.3"/>
  <text class="st12" transform="translate(97.5 93.6)"><tspan x="0" y="0">R2</tspan></text>
  <text class="st12" transform="translate(149.6 132.5)"><tspan x="0" y="0">R1</tspan></text>
  <text class="st13" transform="translate(459.5 231.1)"><tspan x="0" y="0">On MOSbius PCB</tspan></text>
  <text class="st13" transform="translate(377.2 173.1)"><tspan x="0" y="0">M5</tspan></text>
  <text class="st13" transform="translate(339.4 69)"><tspan x="0" y="0">M6</tspan></text>
  <text class="st13" transform="translate(506.2 66.8)"><tspan x="0" y="0">M8</tspan></text>
  <text class="st16" transform="translate(387.4 112.4)"><tspan x="0" y="0">out</tspan></text>
  <text class="st13" transform="translate(211.5 66.8)"><tspan x="0" y="0">M7</tspan></text>
  <text class="st3" transform="translate(513.1 92.5)"><tspan x="0" y="0">I</tspan></text>
  <text class="st2" transform="translate(516.5 94.7)"><tspan x="0" y="0">REF</tspan></text>
  <g>
    <line class="st0" x1="506.9" y1="76.2" x2="506.9" y2="97.7"/>
    <g>
      <line class="st6" x1="506.9" y1="76.2" x2="506.9" y2="90.6"/>
      <polygon class="st0" points="506.9 97.7 502.8 87.8 506.9 90.1 511 87.8 506.9 97.7"/>
    </g>
  </g>
  <text class="st16" transform="translate(265.6 112.6)"><tspan x="0" y="0">OTAout</tspan></text>
</svg>