<?xml version="1.0" encoding="UTF-8"?>
<svg id="Layer_1" xmlns="http://www.w3.org/2000/svg" xmlns:xlink="http://www.w3.org/1999/xlink" xmlns:ev="http://www.w3.org/2001/xml-events" version="1.1" viewBox="0 0 547.2 258.8">
  <!-- Generator: Adobe Illustrator 29.3.1, SVG Export Plug-In . SVG Version: 2.1.0 Build 151)  -->
  <defs>
    <style>
      .st0, .st1, .st2, .st3, .st4, .st5, .st6, .st7 {
        fill: none;
      }

      .st1 {
        stroke: #de4d27;
        stroke-linejoin: round;
      }

      .st1, .st3, .st8, .st5, .st9, .st10, .st7 {
        stroke-linecap: round;
      }

      .st11, .st12, .st13, .st14, .st15 {
        fill: #0096ff;
      }

      .st12 {
        font-size: 8px;
      }

      .st12, .st16, .st17, .st18, .st13, .st19, .st14, .st20, .st21, .st22, .st15 {
        isolation: isolate;
      }

      .st12, .st16, .st18, .st13, .st19, .st20, .st21, .st22, .st15 {
        font-family: ArialMT, Arial;
      }

      .st2 {
        stroke: #0096ff;
        stroke-width: 2px;
      }

      .st2, .st3, .st4, .st8, .st5, .st9, .st10, .st6, .st7 {
        stroke-miterlimit: 1.4;
      }

      .st3, .st4, .st8, .st5, .st9, .st6, .st7 {
        stroke-width: 1.1px;
      }

      .st3, .st4, .st6, .st7 {
        stroke: #000;
      }

      .st3, .st6 {
        stroke-dasharray: 0 2.2;
      }

      .st16, .st13, .st14 {
        font-size: 10px;
      }

      .st8, .st9, .st23, .st10 {
        fill: #ede2e6;
      }

      .st8, .st23, .st10 {
        stroke: #e00b44;
      }

      .st18, .st23 {
        font-size: 12px;
      }

      .st5, .st22 {
        stroke: #0f23db;
      }

      .st9 {
        stroke: #ec3200;
      }

      .st24 {
        stroke: #fafafc;
      }

      .st24, .st25 {
        fill: #eaecf9;
      }

      .st24, .st22 {
        stroke-miterlimit: 10;
      }

      .st23 {
        font-family: Avenir-Light, Avenir;
        font-weight: 300;
      }

      .st19, .st22, .st15 {
        font-size: 8.7px;
      }

      .st14 {
        font-family: Arial-ItalicMT, Arial;
        font-style: italic;
      }

      .st20 {
        font-size: 5.8px;
      }

      .st26 {
        fill: #de4d27;
      }

      .st21 {
        font-size: 3.6px;
      }
    </style>
  </defs>
  <rect class="st24" x="275.4" y="137.6" width="16.1" height="86.9"/>
  <ellipse class="st10" cx="304.8" cy="36.3" rx="39.9" ry="32.6"/>
  <line class="st7" x1="175.7" y1="81.6" x2="88.9" y2="81.6"/>
  <line class="st7" x1="307.8" y1="81.6" x2="247.2" y2="81.6"/>
  <line class="st7" x1="331.9" y1="81.6" x2="307.8" y2="81.6"/>
  <line class="st7" x1="88.9" y1="127.8" x2="77.3" y2="127.8"/>
  <line class="st7" x1="141" y1="127.8" x2="117.8" y2="127.8"/>
  <line class="st7" x1="204.6" y1="127.8" x2="141" y2="127.8"/>
  <line class="st7" x1="499.8" y1="127.8" x2="499.8" y2="110.5"/>
  <line class="st7" x1="141" y1="139.4" x2="141" y2="127.8"/>
  <line class="st7" x1="262.5" y1="139.4" x2="256.7" y2="139.4"/>
  <line class="st7" x1="297.2" y1="139.4" x2="262.5" y2="139.4"/>
  <line class="st7" x1="372.5" y1="139.4" x2="372.5" y2="110.5"/>
  <line class="st7" x1="418.8" y1="139.4" x2="372.5" y2="139.4"/>
  <line class="st7" x1="453.5" y1="139.4" x2="418.8" y2="139.4"/>
  <line class="st7" x1="175.7" y1="151" x2="175.7" y2="81.6"/>
  <line class="st7" x1="204.6" y1="151" x2="175.7" y2="151"/>
  <line class="st7" x1="499.8" y1="156.8" x2="499.8" y2="151"/>
  <line class="st7" x1="499.8" y1="156.8" x2="470.8" y2="156.8"/>
  <line class="st7" x1="499.8" y1="168.4" x2="499.8" y2="156.8"/>
  <line class="st7" x1="141" y1="174.1" x2="141" y2="168.4"/>
  <line class="st7" x1="262.5" y1="174.1" x2="262.5" y2="139.4"/>
  <line class="st7" x1="372.5" y1="174.1" x2="372.5" y2="139.4"/>
  <line class="st7" x1="418.8" y1="174.1" x2="418.8" y2="139.4"/>
  <line class="st7" x1="19.4" y1="185.7" x2="19.4" y2="168.4"/>
  <line class="st7" x1="470.8" y1="185.7" x2="470.8" y2="156.8"/>
  <line class="st7" x1="482.4" y1="185.7" x2="470.8" y2="185.7"/>
  <line class="st7" x1="297.2" y1="197.3" x2="297.2" y2="139.4"/>
  <line class="st7" x1="343.5" y1="197.3" x2="297.2" y2="197.3"/>
  <line class="st7" x1="141" y1="220.4" x2="141" y2="197.3"/>
  <line class="st7" x1="262.5" y1="220.4" x2="262.5" y2="197.3"/>
  <line class="st7" x1="262.5" y1="220.4" x2="141" y2="220.4"/>
  <line class="st7" x1="418.8" y1="220.4" x2="418.8" y2="197.3"/>
  <line class="st7" x1="418.8" y1="220.4" x2="262.5" y2="220.4"/>
  <line class="st7" x1="499.8" y1="220.4" x2="499.8" y2="197.3"/>
  <line class="st7" x1="499.8" y1="220.4" x2="418.8" y2="220.4"/>
  <line class="st7" x1="141" y1="226.2" x2="141" y2="220.4"/>
  <line class="st7" x1="19.4" y1="232" x2="19.4" y2="214.7"/>
  <line class="st7" x1="77.3" y1="243.6" x2="77.3" y2="127.8"/>
  <line class="st7" x1="453.5" y1="243.6" x2="453.5" y2="139.4"/>
  <line class="st7" x1="453.5" y1="243.6" x2="77.3" y2="243.6"/>
  <circle cx="141" cy="127.8" r="1.6"/>
  <circle cx="262.5" cy="139.4" r="1.6"/>
  <circle cx="372.5" cy="139.4" r="1.6"/>
  <circle cx="418.8" cy="139.4" r="1.6"/>
  <circle cx="499.8" cy="156.8" r="1.6"/>
  <circle cx="141" cy="220.4" r="1.6"/>
  <circle cx="262.5" cy="220.4" r="1.6"/>
  <circle cx="418.8" cy="220.4" r="1.6"/>
  <path class="st3" d="M463.6,126.4h66.6v117.2h-66.6v-117.2Z"/>
  <g>
    <g class="st17">
      <text class="st15" transform="translate(28.1 217.3)"><tspan x="0" y="0">2.5V</tspan></text>
    </g>
    <line class="st7" x1="16.5" y1="193" x2="22.3" y2="193"/>
    <line class="st7" x1="16.5" y1="207.4" x2="22.3" y2="207.4"/>
    <line class="st7" x1="19.4" y1="190.1" x2="19.4" y2="195.8"/>
    <line class="st7" x1="19.4" y1="214.7" x2="19.4" y2="211.8"/>
    <line class="st7" x1="19.4" y1="185.7" x2="19.4" y2="188.6"/>
    <circle class="st4" cx="19.4" cy="200.2" r="11.6"/>
  </g>
  <g>
    <g class="st17">
      <text class="st21" transform="translate(490 108.7)"><tspan x="0" y="0">68</tspan></text>
    </g>
    <g class="st17">
      <text class="st20" transform="translate(476.6 65.6)"><tspan x="0" y="0">1x</tspan></text>
    </g>
    <g class="st17">
      <text class="st20" transform="translate(499.8 48.8)"><tspan x="0" y="0">VDD</tspan></text>
    </g>
    <g class="st17">
      <text class="st21" transform="translate(380.3 108.7)"><tspan x="0" y="0">65</tspan></text>
    </g>
    <g class="st17">
      <text class="st20" transform="translate(386.9 64.5)"><tspan x="0" y="0">4x</tspan></text>
    </g>
    <line class="st7" x1="499.8" y1="110.5" x2="499.8" y2="98.9"/>
    <line class="st7" x1="499.8" y1="64.2" x2="499.8" y2="51.2"/>
    <line class="st7" x1="502.7" y1="52.6" x2="496.9" y2="49.7"/>
    <line class="st7" x1="372.5" y1="64.2" x2="372.5" y2="57"/>
    <line class="st7" x1="372.5" y1="70" x2="372.5" y2="64.2"/>
    <line class="st7" x1="380.8" y1="75.8" x2="372.5" y2="75.8"/>
    <line class="st7" x1="389.8" y1="81.6" x2="386.9" y2="81.6"/>
    <line class="st7" x1="386.9" y1="93.1" x2="386.9" y2="70"/>
    <line class="st7" x1="372.5" y1="93.1" x2="384" y2="93.1"/>
    <line class="st7" x1="372.5" y1="98.9" x2="372.5" y2="93.1"/>
    <line class="st7" x1="366.7" y1="75.8" x2="372.5" y2="75.8"/>
    <line class="st7" x1="366.7" y1="64.2" x2="366.7" y2="75.8"/>
    <line class="st7" x1="372.5" y1="64.2" x2="366.7" y2="64.2"/>
    <line class="st7" x1="372.5" y1="64.2" x2="372.5" y2="64.2"/>
    <line class="st7" x1="384" y1="93.1" x2="384" y2="70"/>
    <line class="st7" x1="378.2" y1="71.4" x2="384" y2="70"/>
    <line class="st7" x1="378.2" y1="68.5" x2="378.2" y2="71.4"/>
    <line class="st7" x1="384" y1="70" x2="378.2" y2="68.5"/>
    <line class="st7" x1="372.5" y1="70" x2="378.2" y2="70"/>
    <line class="st7" x1="499.8" y1="70" x2="499.8" y2="64.2"/>
    <line class="st7" x1="491.5" y1="75.8" x2="499.8" y2="75.8"/>
    <line class="st7" x1="482.4" y1="81.6" x2="485.3" y2="81.6"/>
    <line class="st7" x1="485.3" y1="93.1" x2="485.3" y2="70"/>
    <line class="st7" x1="499.8" y1="93.1" x2="488.2" y2="93.1"/>
    <line class="st7" x1="499.8" y1="98.9" x2="499.8" y2="93.1"/>
    <line class="st7" x1="505.6" y1="75.8" x2="499.8" y2="75.8"/>
    <line class="st7" x1="505.6" y1="64.2" x2="505.6" y2="75.8"/>
    <line class="st7" x1="499.8" y1="64.2" x2="505.6" y2="64.2"/>
    <line class="st7" x1="499.8" y1="64.2" x2="499.8" y2="64.2"/>
    <line class="st7" x1="488.2" y1="93.1" x2="488.2" y2="70"/>
    <line class="st7" x1="494" y1="71.4" x2="488.2" y2="70"/>
    <line class="st7" x1="494" y1="68.5" x2="494" y2="71.4"/>
    <line class="st7" x1="488.2" y1="70" x2="494" y2="68.5"/>
    <line class="st7" x1="499.8" y1="70" x2="494" y2="70"/>
    <line class="st7" x1="372.5" y1="110.5" x2="372.5" y2="98.9"/>
    <line class="st7" x1="320.4" y1="81.6" x2="482.4" y2="81.6"/>
    <line class="st7" x1="473.7" y1="101.8" x2="499.8" y2="101.8"/>
    <line class="st7" x1="473.7" y1="81.6" x2="473.7" y2="101.8"/>
  </g>
  <g>
    <g class="st17">
      <text class="st20" transform="translate(343.5 214.7)"><tspan x="0" y="0">4x B</tspan></text>
    </g>
    <g class="st17">
      <text class="st21" transform="translate(346.2 195.8)"><tspan x="0" y="0">30</tspan></text>
    </g>
    <g class="st17">
      <text class="st21" transform="translate(366.1 178.1)"><tspan x="0" y="0">31</tspan></text>
    </g>
    <line class="st7" x1="372.5" y1="208.9" x2="372.5" y2="214.7"/>
    <line class="st7" x1="364.1" y1="203.1" x2="372.5" y2="203.1"/>
    <line class="st7" x1="355.1" y1="197.3" x2="358" y2="197.3"/>
    <line class="st7" x1="358" y1="185.7" x2="358" y2="208.9"/>
    <line class="st7" x1="372.5" y1="185.7" x2="360.9" y2="185.7"/>
    <line class="st7" x1="372.5" y1="179.9" x2="372.5" y2="185.7"/>
    <line class="st7" x1="378.2" y1="203.1" x2="372.5" y2="203.1"/>
    <line class="st7" x1="378.2" y1="214.7" x2="378.2" y2="203.1"/>
    <line class="st7" x1="372.5" y1="214.7" x2="378.2" y2="214.7"/>
    <line class="st7" x1="372.5" y1="214.7" x2="372.5" y2="226.2"/>
    <line class="st7" x1="372.5" y1="214.7" x2="372.5" y2="214.7"/>
    <line class="st7" x1="366.7" y1="226.2" x2="372.5" y2="232"/>
    <line class="st7" x1="372.5" y1="226.2" x2="366.7" y2="226.2"/>
    <line class="st7" x1="343.5" y1="197.3" x2="355.1" y2="197.3"/>
    <line class="st7" x1="360.9" y1="185.7" x2="360.9" y2="208.9"/>
    <line class="st7" x1="366.7" y1="207.4" x2="372.5" y2="208.9"/>
    <line class="st7" x1="366.7" y1="210.3" x2="366.7" y2="207.4"/>
    <line class="st7" x1="372.5" y1="208.9" x2="366.7" y2="210.3"/>
    <line class="st7" x1="360.9" y1="208.9" x2="366.7" y2="208.9"/>
    <line class="st7" x1="372.5" y1="174.1" x2="372.5" y2="179.9"/>
    <line class="st7" x1="378.2" y1="226.2" x2="372.5" y2="226.2"/>
    <line class="st7" x1="372.5" y1="232" x2="378.2" y2="226.2"/>
  </g>
  <g>
    <g class="st17">
      <text class="st21" transform="translate(250.4 137.6)"><tspan x="0" y="0">54</tspan></text>
    </g>
    <g class="st17">
      <text class="st19" transform="translate(218 129)"><tspan x="0" y="0">+</tspan></text>
    </g>
    <g class="st17">
      <text class="st19" transform="translate(219.1 153.6)"><tspan x="0" y="0">-</tspan></text>
    </g>
    <g class="st17">
      <text class="st21" transform="translate(207 146.3)"><tspan x="0" y="0">55</tspan></text>
    </g>
    <g class="st17">
      <text class="st21" transform="translate(207 133.3)"><tspan x="0" y="0">56</tspan></text>
    </g>
    <g class="st17">
      <text class="st19" transform="translate(207.5 175.5)"><tspan x="0" y="0">OTA_pMOS</tspan></text>
    </g>
    <g class="st17">
      <text class="st20" transform="translate(214.4 52.9)"><tspan x="0" y="0">VDD</tspan></text>
    </g>
    <g class="st17">
      <text class="st21" transform="translate(250.5 87.3)"><tspan x="0" y="0">68</tspan></text>
    </g>
    <g class="st17">
      <text class="st20" transform="translate(240 64.2)"><tspan x="0" y="0">2x</tspan></text>
    </g>
    <line class="st7" x1="228.4" y1="64.2" x2="228.4" y2="70"/>
    <line class="st7" x1="228.4" y1="75.8" x2="236.7" y2="75.8"/>
    <line class="st7" x1="242.9" y1="81.6" x2="245.8" y2="81.6"/>
    <line class="st7" x1="242.9" y1="70" x2="242.9" y2="93.1"/>
    <line class="st7" x1="240" y1="93.1" x2="228.4" y2="93.1"/>
    <line class="st7" x1="228.4" y1="93.1" x2="228.4" y2="98.9"/>
    <line class="st7" x1="228.4" y1="75.8" x2="222.6" y2="75.8"/>
    <line class="st7" x1="222.6" y1="75.8" x2="222.6" y2="64.2"/>
    <line class="st7" x1="222.6" y1="64.2" x2="228.4" y2="64.2"/>
    <line class="st7" x1="228.4" y1="64.2" x2="228.4" y2="64.2"/>
    <line class="st7" x1="240" y1="70" x2="240" y2="93.1"/>
    <line class="st7" x1="240" y1="70" x2="234.2" y2="71.4"/>
    <line class="st7" x1="234.2" y1="71.4" x2="234.2" y2="68.5"/>
    <line class="st7" x1="234.2" y1="68.5" x2="240" y2="70"/>
    <line class="st7" x1="234.2" y1="70" x2="228.4" y2="70"/>
    <line class="st7" x1="228.4" y1="54.1" x2="228.4" y2="64.2"/>
    <line class="st7" x1="224.9" y1="55.5" x2="230.7" y2="52.6"/>
    <line class="st7" x1="228.4" y1="98.9" x2="228.4" y2="126.4"/>
    <line class="st7" x1="245.8" y1="81.6" x2="248.7" y2="81.6"/>
    <line class="st7" x1="248.7" y1="81.6" x2="251.6" y2="81.6"/>
    <line class="st7" x1="216.2" y1="116.3" x2="216.2" y2="162.6"/>
    <line class="st7" x1="245.1" y1="139.4" x2="216.2" y2="116.3"/>
    <line class="st7" x1="216.2" y1="116.3" x2="245.1" y2="139.4"/>
    <line class="st7" x1="245.1" y1="139.4" x2="216.2" y2="162.6"/>
    <line class="st7" x1="216.2" y1="127.8" x2="204.6" y2="127.8"/>
    <line class="st7" x1="204.6" y1="151" x2="216.2" y2="151"/>
    <line class="st7" x1="245.1" y1="139.4" x2="256.7" y2="139.4"/>
    <rect class="st6" x="204.6" y="46.8" width="52.1" height="120.1"/>
  </g>
  <g>
    <line class="st7" x1="499.8" y1="194.4" x2="499.8" y2="197.3"/>
    <line class="st7" x1="505.6" y1="191.5" x2="499.8" y2="194.4"/>
    <line class="st7" x1="494" y1="185.7" x2="505.6" y2="191.5"/>
    <line class="st7" x1="505.6" y1="179.9" x2="494" y2="185.7"/>
    <line class="st7" x1="494" y1="174.1" x2="505.6" y2="179.9"/>
    <line class="st7" x1="499.8" y1="168.4" x2="499.8" y2="171.3"/>
    <line class="st7" x1="499.8" y1="171.3" x2="494" y2="174.1"/>
    <line class="st7" x1="491.1" y1="185.7" x2="482.4" y2="185.7"/>
    <line class="st7" x1="491.1" y1="185.7" x2="488.2" y2="182.8"/>
    <line class="st7" x1="491.1" y1="185.7" x2="488.2" y2="188.6"/>
  </g>
  <g>
    <line class="st7" x1="499.8" y1="130.7" x2="499.8" y2="127.8"/>
    <line class="st7" x1="499.8" y1="148.1" x2="499.8" y2="151"/>
    <circle class="st4" cx="499.8" cy="146.7" r="1.4"/>
    <circle class="st4" cx="499.8" cy="132.2" r="1.4"/>
    <path class="st4" d="M501.2,146.5c3.9-.8,6.5-4.6,5.7-8.5-.6-2.9-2.8-5.1-5.7-5.7"/>
  </g>
  <g>
    <g class="st17">
      <text class="st19" transform="translate(421.6 179.6)"><tspan x="0" y="0">CL2</tspan></text>
    </g>
    <line class="st7" x1="418.8" y1="187.2" x2="418.8" y2="197.3"/>
    <line class="st7" x1="418.8" y1="184.3" x2="418.8" y2="174.1"/>
    <line class="st7" x1="413" y1="184.3" x2="424.5" y2="184.3"/>
    <line class="st7" x1="413" y1="187.2" x2="424.5" y2="187.2"/>
  </g>
  <g>
    <g class="st17">
      <text class="st19" transform="translate(143.9 179.6)"><tspan x="0" y="0">CB1</tspan></text>
    </g>
    <line class="st7" x1="141" y1="187.2" x2="141" y2="197.3"/>
    <line class="st7" x1="141" y1="184.3" x2="141" y2="174.1"/>
    <line class="st7" x1="135.2" y1="184.3" x2="146.8" y2="184.3"/>
    <line class="st7" x1="135.2" y1="187.2" x2="146.8" y2="187.2"/>
  </g>
  <g>
    <g class="st17">
      <text class="st19" transform="translate(236.7 195.9)"><tspan x="0" y="0">CL1</tspan></text>
    </g>
    <line class="st7" x1="262.5" y1="187.2" x2="262.5" y2="197.3"/>
    <line class="st7" x1="262.5" y1="184.3" x2="262.5" y2="174.1"/>
    <line class="st7" x1="256.7" y1="184.3" x2="268.3" y2="184.3"/>
    <line class="st7" x1="256.7" y1="187.2" x2="268.3" y2="187.2"/>
  </g>
  <g>
    <line class="st7" x1="91.8" y1="127.8" x2="88.9" y2="127.8"/>
    <line class="st7" x1="94.7" y1="122.1" x2="91.8" y2="127.8"/>
    <line class="st7" x1="100.5" y1="133.6" x2="94.7" y2="122.1"/>
    <line class="st7" x1="106.2" y1="122.1" x2="100.5" y2="133.6"/>
    <line class="st7" x1="112" y1="133.6" x2="106.2" y2="122.1"/>
    <line class="st7" x1="117.8" y1="127.8" x2="114.9" y2="127.8"/>
    <line class="st7" x1="114.9" y1="127.8" x2="112" y2="133.6"/>
  </g>
  <g>
    <line class="st7" x1="141" y1="142.3" x2="141" y2="139.4"/>
    <line class="st7" x1="146.8" y1="145.2" x2="141" y2="142.3"/>
    <line class="st7" x1="135.2" y1="151" x2="146.8" y2="145.2"/>
    <line class="st7" x1="146.8" y1="156.8" x2="135.2" y2="151"/>
    <line class="st7" x1="135.2" y1="162.6" x2="146.8" y2="156.8"/>
    <line class="st7" x1="141" y1="168.4" x2="141" y2="165.5"/>
    <line class="st7" x1="141" y1="165.5" x2="135.2" y2="162.6"/>
  </g>
  <g>
    <line class="st7" x1="13.6" y1="232" x2="25.2" y2="232"/>
    <line class="st7" x1="13.6" y1="232" x2="19.4" y2="237.8"/>
    <line class="st7" x1="25.2" y1="232" x2="19.4" y2="237.8"/>
  </g>
  <g>
    <line class="st7" x1="135.2" y1="226.2" x2="146.8" y2="226.2"/>
    <line class="st7" x1="135.2" y1="226.2" x2="141" y2="232"/>
    <line class="st7" x1="146.8" y1="226.2" x2="141" y2="232"/>
  </g>
  <g>
    <line class="st7" x1="13.6" y1="162.6" x2="19.4" y2="168.4"/>
    <line class="st7" x1="25.2" y1="138" x2="25.2" y2="162.6"/>
    <line class="st7" x1="13.6" y1="162.6" x2="13.6" y2="138"/>
    <line class="st7" x1="19.4" y1="168.4" x2="25.2" y2="162.6"/>
    <line class="st7" x1="19.4" y1="132.2" x2="25.2" y2="138"/>
    <line class="st7" x1="19.4" y1="132.2" x2="13.6" y2="138"/>
  </g>
  <g class="st17">
    <text class="st19" transform="translate(22.5 158.7) rotate(-90)"><tspan x="0" y="0">VDD</tspan></text>
  </g>
  <g>
    <line class="st7" x1="88.9" y1="81.6" x2="83.1" y2="87.3"/>
    <line class="st7" x1="83.1" y1="87.3" x2="59.9" y2="87.3"/>
    <line class="st7" x1="59.9" y1="87.3" x2="59.9" y2="75.8"/>
    <line class="st7" x1="59.9" y1="75.8" x2="83.1" y2="75.8"/>
    <line class="st7" x1="83.1" y1="75.8" x2="88.9" y2="81.6"/>
  </g>
  <g class="st17">
    <text class="st15" transform="translate(66.7 84.6)"><tspan x="0" y="0">in</tspan></text>
  </g>
  <line class="st7" x1="499.8" y1="57" x2="372.9" y2="57"/>
  <g class="st17">
    <text class="st18" transform="translate(97.5 116.3)"><tspan x="0" y="0">R2</tspan></text>
  </g>
  <g class="st17">
    <text class="st18" transform="translate(149.6 155.2)"><tspan x="0" y="0">R1</tspan></text>
  </g>
  <g class="st17">
    <text class="st16" transform="translate(459.5 253.8)"><tspan x="0" y="0">On MOSbius PCB</tspan></text>
  </g>
  <g class="st17">
    <text class="st16" transform="translate(377.2 195.8)"><tspan x="0" y="0">M5</tspan></text>
  </g>
  <g class="st17">
    <text class="st16" transform="translate(339.4 91.7)"><tspan x="0" y="0">M6</tspan></text>
  </g>
  <g class="st17">
    <text class="st16" transform="translate(506.2 89.5)"><tspan x="0" y="0">M8</tspan></text>
  </g>
  <g class="st17">
    <text class="st14" transform="translate(387.4 135.1)"><tspan x="0" y="0">out</tspan></text>
  </g>
  <g class="st17">
    <text class="st16" transform="translate(211.5 89.5)"><tspan x="0" y="0">M7</tspan></text>
  </g>
  <g class="st17">
    <text class="st13" transform="translate(513.1 115.2)"><tspan x="0" y="0">I</tspan></text>
  </g>
  <g class="st17">
    <text class="st12" transform="translate(516.5 117.4)"><tspan x="0" y="0">REF</tspan></text>
  </g>
  <g>
    <line class="st0" x1="506.9" y1="98.9" x2="506.9" y2="120.4"/>
    <g>
      <line class="st2" x1="506.9" y1="98.9" x2="506.9" y2="113.3"/>
      <polygon class="st11" points="506.9 120.4 502.8 110.5 506.9 112.8 511 110.5 506.9 120.4"/>
    </g>
  </g>
  <g class="st17">
    <text class="st14" transform="translate(265.6 135.3)"><tspan x="0" y="0">OTAout</tspan></text>
  </g>
  <g>
    <line class="st8" x1="321.1" y1="21.3" x2="331.2" y2="21.3"/>
    <line class="st8" x1="318.2" y1="21.3" x2="308" y2="21.3"/>
    <line class="st8" x1="318.2" y1="27.1" x2="318.2" y2="15.5"/>
    <line class="st8" x1="321.1" y1="27.1" x2="321.1" y2="15.5"/>
  </g>
  <g>
    <line class="st8" x1="282" y1="21.3" x2="279.1" y2="21.3"/>
    <line class="st8" x1="284.9" y1="15.5" x2="282" y2="21.3"/>
    <line class="st8" x1="290.7" y1="27.1" x2="284.9" y2="15.5"/>
    <line class="st8" x1="296.5" y1="15.5" x2="290.7" y2="27.1"/>
    <line class="st8" x1="302.3" y1="27.1" x2="296.5" y2="15.5"/>
    <line class="st8" x1="308.1" y1="21.3" x2="305.2" y2="21.3"/>
    <line class="st8" x1="305.2" y1="21.3" x2="302.3" y2="27.1"/>
  </g>
  <path class="st7" d="M282.3,275.5"/>
  <path class="st7" d="M308.3,130.7"/>
  <g>
    <rect class="st9" x="317.1" y="134" width="35.5" height="10.8"/>
    <line class="st9" x1="297.2" y1="139.5" x2="316.4" y2="139.5"/>
    <line class="st9" x1="371.3" y1="139.5" x2="352.6" y2="139.5"/>
  </g>
  <g>
    <line class="st8" x1="308.1" y1="57.9" x2="318.2" y2="57.9"/>
    <line class="st8" x1="305.2" y1="57.9" x2="295" y2="57.9"/>
    <line class="st8" x1="305.2" y1="63.7" x2="305.2" y2="52.1"/>
    <line class="st8" x1="308.1" y1="63.7" x2="308.1" y2="52.1"/>
  </g>
  <text class="st23" transform="translate(297.9 43.6)"><tspan x="0" y="0">OR</tspan></text>
  <g>
    <g class="st17">
      <text class="st22" transform="translate(285.6 209.6)"><tspan x="0" y="0">CD</tspan></text>
    </g>
    <line class="st5" x1="282.4" y1="187.2" x2="282.4" y2="219.9"/>
    <line class="st5" x1="282.4" y1="184.3" x2="282.4" y2="139.5"/>
    <line class="st5" x1="276.6" y1="184.3" x2="288.2" y2="184.3"/>
    <line class="st5" x1="276.6" y1="187.2" x2="288.2" y2="187.2"/>
  </g>
  <g>
    <line class="st25" x1="309.7" y1="68.5" x2="332.6" y2="127.8"/>
    <g>
      <line class="st1" x1="309.7" y1="68.5" x2="330.1" y2="121.2"/>
      <polygon class="st26" points="324.9 121.6 332.6 127.8 334.2 118 324.9 121.6"/>
    </g>
  </g>
  <text class="st23" transform="translate(319.4 159.1)"><tspan x="0" y="0">Miller</tspan></text>
</svg>