<?xml version="1.0" encoding="UTF-8"?>
<svg id="Layer_1" xmlns="http://www.w3.org/2000/svg" xmlns:xlink="http://www.w3.org/1999/xlink" xmlns:ev="http://www.w3.org/2001/xml-events" version="1.1" viewBox="0 0 552.2 390.3">
  <!-- Generator: Adobe Illustrator 29.3.1, SVG Export Plug-In . SVG Version: 2.1.0 Build 151)  -->
  <defs>
    <style>
      .st0, .st1, .st2, .st3, .st4, .st5 {
        fill: none;
      }

      .st1 {
        stroke-dasharray: 0 3.5;
      }

      .st1, .st4, .st5 {
        stroke: #000;
        stroke-miterlimit: 2.4;
        stroke-width: 1.8px;
      }

      .st1, .st5 {
        stroke-linecap: round;
      }

      .st6, .st7, .st8, .st9, .st10, .st11, .st12 {
        fill: #0096ff;
      }

      .st2 {
        stroke-miterlimit: 1.4;
      }

      .st2, .st3 {
        stroke: #0096ff;
        stroke-width: 2px;
      }

      .st3 {
        stroke-miterlimit: 1.4;
      }

      .st13 {
        font-size: 9.5px;
      }

      .st13, .st14, .st7, .st15, .st16, .st8, .st9, .st17, .st10, .st11, .st12 {
        isolation: isolate;
      }

      .st13, .st14, .st16, .st8, .st9, .st17, .st10, .st11, .st12 {
        font-family: ArialMT, Arial;
      }

      .st14, .st7, .st10 {
        font-size: 14.2px;
      }

      .st7 {
        font-family: Arial-ItalicMT, Arial;
        font-style: italic;
      }

      .st16 {
        font-size: 13.1px;
      }

      .st8 {
        font-size: 17.9px;
      }

      .st9 {
        font-size: 17.9px;
      }

      .st17 {
        font-size: 5.9px;
      }

      .st11 {
        font-size: 14.4px;
      }

      .st12 {
        font-size: 14.4px;
      }
    </style>
  </defs>
  <line class="st5" x1="208.4" y1="24.7" x2="170.6" y2="24.7"/>
  <line class="st5" x1="312.3" y1="24.7" x2="208.4" y2="24.7"/>
  <line class="st5" x1="435.2" y1="24.7" x2="312.3" y2="24.7"/>
  <line class="st5" x1="312.3" y1="72" x2="312.3" y2="24.7"/>
  <line class="st5" x1="435.2" y1="72" x2="435.2" y2="24.7"/>
  <line class="st5" x1="170.6" y1="128.7" x2="170.6" y2="24.7"/>
  <line class="st5" x1="312.3" y1="138.2" x2="312.3" y2="119.3"/>
  <line class="st5" x1="312.3" y1="138.2" x2="274.5" y2="138.2"/>
  <line class="st5" x1="435.2" y1="138.2" x2="435.2" y2="119.3"/>
  <line class="st5" x1="473" y1="138.2" x2="435.2" y2="138.2"/>
  <line class="st5" x1="142.2" y1="147.6" x2="123.3" y2="147.6"/>
  <line class="st5" x1="312.3" y1="147.6" x2="312.3" y2="138.2"/>
  <line class="st5" x1="435.2" y1="147.6" x2="435.2" y2="138.2"/>
  <line class="st5" x1="265.1" y1="185.4" x2="255.6" y2="185.4"/>
  <line class="st5" x1="491.9" y1="185.4" x2="482.5" y2="185.4"/>
  <line class="st5" x1="123.3" y1="194.9" x2="123.3" y2="147.6"/>
  <line class="st5" x1="170.6" y1="194.9" x2="170.6" y2="176"/>
  <line class="st5" x1="170.6" y1="194.9" x2="123.3" y2="194.9"/>
  <line class="st5" x1="406.9" y1="194.9" x2="321.8" y2="194.9"/>
  <line class="st5" x1="425.8" y1="194.9" x2="406.9" y2="194.9"/>
  <line class="st5" x1="170.6" y1="204.3" x2="170.6" y2="194.9"/>
  <line class="st5" x1="312.3" y1="232.7" x2="312.3" y2="223.2"/>
  <line class="st5" x1="350.1" y1="232.7" x2="312.3" y2="232.7"/>
  <line class="st5" x1="378.5" y1="232.7" x2="350.1" y2="232.7"/>
  <line class="st5" x1="435.2" y1="232.7" x2="435.2" y2="223.2"/>
  <line class="st5" x1="435.2" y1="232.7" x2="378.5" y2="232.7"/>
  <line class="st5" x1="170.6" y1="261" x2="170.6" y2="242.1"/>
  <line class="st5" x1="378.5" y1="261" x2="378.5" y2="232.7"/>
  <line class="st5" x1="28.8" y1="279.9" x2="28.8" y2="251.6"/>
  <line class="st5" x1="28.8" y1="355.6" x2="28.8" y2="327.2"/>
  <line class="st5" x1="170.6" y1="355.6" x2="28.8" y2="355.6"/>
  <line class="st5" x1="406.9" y1="355.6" x2="406.9" y2="194.9"/>
  <line class="st5" x1="406.9" y1="355.6" x2="378.5" y2="355.6"/>
  <circle cx="312.3" cy="24.7" r="2.7"/>
  <circle cx="312.3" cy="138.2" r="2.7"/>
  <circle cx="435.2" cy="138.2" r="2.7"/>
  <circle cx="170.6" cy="194.9" r="2.7"/>
  <circle cx="406.9" cy="194.9" r="2.7"/>
  <circle cx="378.5" cy="232.7" r="2.7"/>
  <path class="st1" d="M111.5,53.1h87.4v191.4h-87.4s0-191.4,0-191.4Z"/>
  <g>
    <g class="st15">
      <text class="st13" transform="translate(463.1 219.6) rotate(-180) scale(1 -1)"><tspan x="0" y="0">4x A</tspan></text>
    </g>
    <g class="st15">
      <text class="st17" transform="translate(476.3 182.5) rotate(-180) scale(1 -1)"><tspan x="0" y="0">45</tspan></text>
    </g>
    <g class="st15">
      <text class="st17" transform="translate(432 153.5) rotate(-180) scale(1 -1)"><tspan x="0" y="0">46</tspan></text>
    </g>
    <g class="st15">
      <text class="st17" transform="translate(432 220.3) rotate(-180) scale(1 -1)"><tspan x="0" y="0">44</tspan></text>
    </g>
    <g class="st15">
      <text class="st17" transform="translate(433.8 191.9) rotate(-180) scale(1 -1)"><tspan x="0" y="0">47</tspan></text>
    </g>
    <line class="st5" x1="435.2" y1="194.9" x2="425.8" y2="194.9"/>
    <line class="st5" x1="435.2" y1="147.6" x2="435.2" y2="157.1"/>
    <line class="st5" x1="435.2" y1="223.2" x2="435.2" y2="213.8"/>
    <line class="st5" x1="435.2" y1="204.3" x2="435.2" y2="213.8"/>
    <line class="st5" x1="448.8" y1="194.9" x2="435.2" y2="194.9"/>
    <line class="st5" x1="463.6" y1="185.4" x2="458.8" y2="185.4"/>
    <line class="st5" x1="458.8" y1="166.5" x2="458.8" y2="204.3"/>
    <line class="st5" x1="435.2" y1="166.5" x2="454.1" y2="166.5"/>
    <line class="st5" x1="435.2" y1="157.1" x2="435.2" y2="166.5"/>
    <line class="st5" x1="435.2" y1="213.8" x2="435.2" y2="213.8"/>
    <line class="st5" x1="454.1" y1="166.5" x2="454.1" y2="204.3"/>
    <line class="st5" x1="444.7" y1="202" x2="435.2" y2="204.3"/>
    <line class="st5" x1="444.7" y1="206.7" x2="444.7" y2="202"/>
    <line class="st5" x1="435.2" y1="204.3" x2="444.7" y2="206.7"/>
    <line class="st5" x1="454.1" y1="204.3" x2="444.7" y2="204.3"/>
    <line class="st5" x1="435.2" y1="213.8" x2="435.2" y2="213.8"/>
    <line class="st5" x1="463.6" y1="185.4" x2="482.5" y2="185.4"/>
  </g>
  <g>
    <g class="st15">
      <text class="st13" transform="translate(284 219.6)"><tspan x="0" y="0">4x B</tspan></text>
    </g>
    <g class="st15">
      <text class="st17" transform="translate(271.2 182.5)"><tspan x="0" y="0">42</tspan></text>
    </g>
    <g class="st15">
      <text class="st17" transform="translate(316.1 153.5)"><tspan x="0" y="0">41</tspan></text>
    </g>
    <g class="st15">
      <text class="st17" transform="translate(315.6 220.9)"><tspan x="0" y="0">43</tspan></text>
    </g>
    <g class="st15">
      <text class="st17" transform="translate(313.2 191.9)"><tspan x="0" y="0">47</tspan></text>
    </g>
    <line class="st5" x1="312.3" y1="194.9" x2="321.8" y2="194.9"/>
    <line class="st5" x1="312.3" y1="147.6" x2="312.3" y2="157.1"/>
    <line class="st5" x1="312.3" y1="223.2" x2="312.3" y2="213.8"/>
    <line class="st5" x1="312.3" y1="204.3" x2="312.3" y2="213.8"/>
    <line class="st5" x1="298.8" y1="194.9" x2="312.3" y2="194.9"/>
    <line class="st5" x1="284" y1="185.4" x2="288.7" y2="185.4"/>
    <line class="st5" x1="288.7" y1="166.5" x2="288.7" y2="204.3"/>
    <line class="st5" x1="312.3" y1="166.5" x2="293.4" y2="166.5"/>
    <line class="st5" x1="312.3" y1="157.1" x2="312.3" y2="166.5"/>
    <line class="st5" x1="312.3" y1="213.8" x2="312.3" y2="213.8"/>
    <line class="st5" x1="293.4" y1="166.5" x2="293.4" y2="204.3"/>
    <line class="st5" x1="302.9" y1="202" x2="312.3" y2="204.3"/>
    <line class="st5" x1="302.9" y1="206.7" x2="302.9" y2="202"/>
    <line class="st5" x1="312.3" y1="204.3" x2="302.9" y2="206.7"/>
    <line class="st5" x1="293.4" y1="204.3" x2="302.9" y2="204.3"/>
    <line class="st5" x1="312.3" y1="213.8" x2="312.3" y2="213.8"/>
    <line class="st5" x1="265.1" y1="185.4" x2="284" y2="185.4"/>
  </g>
  <g>
    <line class="st5" x1="170.6" y1="133.4" x2="170.6" y2="128.7"/>
    <line class="st5" x1="180" y1="138.2" x2="170.6" y2="133.4"/>
    <line class="st5" x1="161.1" y1="147.6" x2="180" y2="138.2"/>
    <line class="st5" x1="180" y1="157.1" x2="161.1" y2="147.6"/>
    <line class="st5" x1="161.1" y1="166.5" x2="180" y2="157.1"/>
    <line class="st5" x1="170.6" y1="176" x2="170.6" y2="171.2"/>
    <line class="st5" x1="170.6" y1="171.2" x2="161.1" y2="166.5"/>
    <line class="st5" x1="156.4" y1="147.6" x2="142.2" y2="147.6"/>
    <line class="st5" x1="156.4" y1="147.6" x2="151.7" y2="152.3"/>
    <line class="st5" x1="156.4" y1="147.6" x2="151.7" y2="142.9"/>
  </g>
  <g>
    <line class="st5" x1="170.6" y1="237.4" x2="170.6" y2="242.1"/>
    <line class="st5" x1="170.6" y1="209.1" x2="170.6" y2="204.3"/>
    <circle class="st4" cx="170.6" cy="211.4" r="2.4"/>
    <circle class="st4" cx="170.6" cy="235" r="2.4"/>
    <path class="st4" d="M172.9,211.6c6.4,1.3,10.5,7.5,9.3,13.9-.9,4.7-4.6,8.3-9.3,9.3"/>
  </g>
  <g>
    <g class="st15">
      <text class="st14" transform="translate(324.2 90.4)"><tspan x="0" y="0">RL</tspan></text>
    </g>
    <line class="st5" x1="312.3" y1="114.5" x2="312.3" y2="119.3"/>
    <line class="st5" x1="302.9" y1="109.8" x2="312.3" y2="114.5"/>
    <line class="st5" x1="321.8" y1="100.4" x2="302.9" y2="109.8"/>
    <line class="st5" x1="302.9" y1="90.9" x2="321.8" y2="100.4"/>
    <line class="st5" x1="321.8" y1="81.5" x2="302.9" y2="90.9"/>
    <line class="st5" x1="312.3" y1="72" x2="312.3" y2="76.7"/>
    <line class="st5" x1="312.3" y1="76.7" x2="321.8" y2="81.5"/>
  </g>
  <g>
    <g class="st15">
      <text class="st14" transform="translate(404.2 90.4)"><tspan x="0" y="0">RL</tspan></text>
    </g>
    <line class="st5" x1="435.2" y1="114.5" x2="435.2" y2="119.3"/>
    <line class="st5" x1="425.8" y1="109.8" x2="435.2" y2="114.5"/>
    <line class="st5" x1="444.7" y1="100.4" x2="425.8" y2="109.8"/>
    <line class="st5" x1="425.8" y1="90.9" x2="444.7" y2="100.4"/>
    <line class="st5" x1="444.7" y1="81.5" x2="425.8" y2="90.9"/>
    <line class="st5" x1="435.2" y1="72" x2="435.2" y2="76.7"/>
    <line class="st5" x1="435.2" y1="76.7" x2="444.7" y2="81.5"/>
  </g>
  <g>
    <g class="st15">
      <text class="st13" transform="translate(178.8 348.3)"><tspan x="0" y="0">1x</tspan></text>
    </g>
    <g class="st15">
      <text class="st17" transform="translate(174.4 267.5)"><tspan x="0" y="0">19</tspan></text>
    </g>
    <g class="st15">
      <text class="st13" transform="translate(359.6 347.2)"><tspan x="0" y="0">2x</tspan></text>
    </g>
    <g class="st15">
      <text class="st17" transform="translate(382.3 267.5)"><tspan x="0" y="0">21</tspan></text>
    </g>
    <line class="st5" x1="170.6" y1="355.6" x2="170.6" y2="336.6"/>
    <line class="st5" x1="265.1" y1="355.6" x2="170.6" y2="355.6"/>
    <line class="st5" x1="170.6" y1="270.5" x2="217.8" y2="270.5"/>
    <line class="st5" x1="170.6" y1="279.9" x2="170.6" y2="270.5"/>
    <line class="st5" x1="170.6" y1="261" x2="170.6" y2="270.5"/>
    <line class="st5" x1="378.5" y1="261" x2="378.5" y2="279.9"/>
    <line class="st5" x1="378.5" y1="355.6" x2="265.1" y2="355.6"/>
    <line class="st5" x1="170.6" y1="327.2" x2="170.6" y2="336.6"/>
    <line class="st5" x1="184.2" y1="317.7" x2="170.6" y2="317.7"/>
    <line class="st5" x1="198.9" y1="308.3" x2="194.2" y2="308.3"/>
    <line class="st5" x1="194.2" y1="289.4" x2="194.2" y2="327.2"/>
    <line class="st5" x1="170.6" y1="289.4" x2="189.5" y2="289.4"/>
    <line class="st5" x1="170.6" y1="279.9" x2="170.6" y2="289.4"/>
    <line class="st5" x1="161.1" y1="317.7" x2="170.6" y2="317.7"/>
    <line class="st5" x1="161.1" y1="336.6" x2="161.1" y2="317.7"/>
    <line class="st5" x1="170.6" y1="336.6" x2="161.1" y2="336.6"/>
    <line class="st5" x1="170.6" y1="336.6" x2="170.6" y2="336.6"/>
    <line class="st5" x1="189.5" y1="289.4" x2="189.5" y2="327.2"/>
    <line class="st5" x1="180" y1="324.8" x2="170.6" y2="327.2"/>
    <line class="st5" x1="180" y1="329.6" x2="180" y2="324.8"/>
    <line class="st5" x1="170.6" y1="327.2" x2="180" y2="329.6"/>
    <line class="st5" x1="189.5" y1="327.2" x2="180" y2="327.2"/>
    <line class="st5" x1="378.5" y1="327.2" x2="378.5" y2="336.6"/>
    <line class="st5" x1="364.9" y1="317.7" x2="378.5" y2="317.7"/>
    <line class="st5" x1="354.9" y1="289.4" x2="354.9" y2="327.2"/>
    <line class="st5" x1="378.5" y1="289.4" x2="359.6" y2="289.4"/>
    <line class="st5" x1="378.5" y1="279.9" x2="378.5" y2="289.4"/>
    <line class="st5" x1="388" y1="317.7" x2="378.5" y2="317.7"/>
    <line class="st5" x1="388" y1="336.6" x2="388" y2="317.7"/>
    <line class="st5" x1="378.5" y1="336.6" x2="388" y2="336.6"/>
    <line class="st5" x1="378.5" y1="336.6" x2="378.5" y2="336.6"/>
    <line class="st5" x1="359.6" y1="289.4" x2="359.6" y2="327.2"/>
    <line class="st5" x1="369.1" y1="324.8" x2="378.5" y2="327.2"/>
    <line class="st5" x1="369.1" y1="329.6" x2="369.1" y2="324.8"/>
    <line class="st5" x1="378.5" y1="327.2" x2="369.1" y2="329.6"/>
    <line class="st5" x1="359.6" y1="327.2" x2="369.1" y2="327.2"/>
    <line class="st5" x1="378.5" y1="355.6" x2="378.5" y2="336.6"/>
    <line class="st5" x1="354.9" y1="308.3" x2="198.9" y2="308.3"/>
    <line class="st5" x1="217.8" y1="308.3" x2="217.8" y2="270.5"/>
    <line class="st5" x1="170.6" y1="365" x2="170.6" y2="355.6"/>
    <line class="st5" x1="161.1" y1="365" x2="170.6" y2="365"/>
    <line class="st5" x1="170.6" y1="374.5" x2="161.1" y2="365"/>
    <line class="st5" x1="180" y1="365" x2="170.6" y2="374.5"/>
    <line class="st5" x1="170.6" y1="365" x2="180" y2="365"/>
  </g>
  <g>
    <g class="st15">
      <text class="st10" transform="translate(43 331.5)"><tspan x="0" y="0">2.5V</tspan></text>
    </g>
    <line class="st5" x1="24.1" y1="291.8" x2="33.5" y2="291.8"/>
    <line class="st5" x1="24.1" y1="315.4" x2="33.5" y2="315.4"/>
    <line class="st5" x1="28.8" y1="287" x2="28.8" y2="296.5"/>
    <line class="st5" x1="28.8" y1="327.2" x2="28.8" y2="322.5"/>
    <line class="st5" x1="28.8" y1="279.9" x2="28.8" y2="284.7"/>
    <circle class="st4" cx="28.8" cy="303.6" r="18.9"/>
  </g>
  <g class="st15">
    <text class="st7" transform="translate(324.2 228)"><tspan x="0" y="0">CMSRC</tspan></text>
  </g>
  <g class="st15">
    <text class="st14" transform="translate(193.4 20)"><tspan x="0" y="0">VDD</tspan></text>
  </g>
  <g>
    <line class="st5" x1="255.6" y1="185.4" x2="246.2" y2="194.9"/>
    <line class="st5" x1="246.2" y1="194.9" x2="208.4" y2="194.9"/>
    <line class="st5" x1="208.4" y1="194.9" x2="208.4" y2="176"/>
    <line class="st5" x1="208.4" y1="176" x2="246.2" y2="176"/>
    <line class="st5" x1="246.2" y1="176" x2="255.6" y2="185.4"/>
  </g>
  <g class="st15">
    <text class="st10" transform="translate(213.9 190.4)"><tspan x="0" y="0">INn</tspan></text>
  </g>
  <g>
    <line class="st5" x1="491.9" y1="185.4" x2="501.4" y2="176"/>
    <line class="st5" x1="501.4" y1="176" x2="539.2" y2="176"/>
    <line class="st5" x1="539.2" y1="176" x2="539.2" y2="194.9"/>
    <line class="st5" x1="539.2" y1="194.9" x2="501.4" y2="194.9"/>
    <line class="st5" x1="501.4" y1="194.9" x2="491.9" y2="185.4"/>
  </g>
  <g class="st15">
    <text class="st10" transform="translate(511.6 190.4)"><tspan x="0" y="0">INp</tspan></text>
  </g>
  <g>
    <line class="st5" x1="227.3" y1="128.7" x2="217.8" y2="138.2"/>
    <line class="st5" x1="265.1" y1="147.6" x2="227.3" y2="147.6"/>
    <line class="st5" x1="265.1" y1="147.6" x2="265.1" y2="128.7"/>
    <line class="st5" x1="227.3" y1="128.7" x2="265.1" y2="128.7"/>
    <line class="st5" x1="217.8" y1="138.2" x2="227.3" y2="147.6"/>
    <line class="st5" x1="265.1" y1="138.2" x2="274.5" y2="138.2"/>
  </g>
  <g class="st15">
    <text class="st10" transform="translate(224.9 143.1)"><tspan x="0" y="0">OUTp</tspan></text>
  </g>
  <g>
    <line class="st5" x1="520.3" y1="147.6" x2="529.7" y2="138.2"/>
    <line class="st5" x1="482.5" y1="128.7" x2="520.3" y2="128.7"/>
    <line class="st5" x1="482.5" y1="128.7" x2="482.5" y2="147.6"/>
    <line class="st5" x1="520.3" y1="147.6" x2="482.5" y2="147.6"/>
    <line class="st5" x1="529.7" y1="138.2" x2="520.3" y2="128.7"/>
    <line class="st5" x1="482.5" y1="138.2" x2="473" y2="138.2"/>
  </g>
  <g class="st15">
    <text class="st10" transform="translate(484.8 143.1)"><tspan x="0" y="0">OUTn</tspan></text>
  </g>
  <g>
    <line class="st5" x1="19.3" y1="242.1" x2="28.8" y2="251.6"/>
    <line class="st5" x1="38.2" y1="202" x2="38.2" y2="242.1"/>
    <line class="st5" x1="19.3" y1="242.1" x2="19.3" y2="202"/>
    <line class="st5" x1="28.8" y1="251.6" x2="38.2" y2="242.1"/>
    <line class="st5" x1="28.8" y1="192.5" x2="38.2" y2="202"/>
    <line class="st5" x1="28.8" y1="192.5" x2="19.3" y2="202"/>
  </g>
  <g class="st15">
    <text class="st14" transform="translate(33.8 235.8) rotate(-90)"><tspan x="0" y="0">VDD</tspan></text>
  </g>
  <g>
    <g class="st15">
      <g class="st15">
        <text class="st9" transform="translate(112.3 282.4)"><tspan x="0" y="0">I</tspan></text>
      </g>
    </g>
    <g class="st15">
      <g class="st15">
        <text class="st11" transform="translate(118.4 286.3)"><tspan x="0" y="0">REF</tspan></text>
      </g>
    </g>
    <g>
      <line class="st0" x1="160.4" y1="251.6" x2="160.4" y2="290.2"/>
      <g>
        <line class="st3" x1="160.4" y1="251.6" x2="160.4" y2="277.4"/>
        <polygon class="st6" points="160.4 290.2 153.1 272.4 160.4 276.5 167.8 272.4 160.4 290.2"/>
      </g>
    </g>
  </g>
  <g class="st15">
    <g class="st15">
      <text class="st16" transform="translate(104 157.1) rotate(-90)"><tspan x="0" y="0">On MOSbius PCB</tspan></text>
    </g>
  </g>
  <g>
    <g class="st15">
      <text class="st8" transform="translate(293.9 272.5)"><tspan x="0" y="0">2xI</tspan></text>
    </g>
    <g class="st15">
      <text class="st12" transform="translate(319 276.4)"><tspan x="0" y="0">REF</tspan></text>
    </g>
    <g>
      <line class="st0" x1="361.1" y1="241.7" x2="361.1" y2="280.3"/>
      <g>
        <line class="st2" x1="361.1" y1="241.7" x2="361.1" y2="267.5"/>
        <polygon class="st6" points="361.1 280.3 353.7 262.5 361.1 266.7 368.5 262.5 361.1 280.3"/>
      </g>
    </g>
  </g>
</svg>