<?xml version="1.0" encoding="UTF-8"?>
<svg id="Layer_1" xmlns="http://www.w3.org/2000/svg" xmlns:xlink="http://www.w3.org/1999/xlink" xmlns:ev="http://www.w3.org/2001/xml-events" version="1.1" viewBox="0 0 1050 1131">
  <!-- Generator: Adobe Illustrator 29.3.1, SVG Export Plug-In . SVG Version: 2.1.0 Build 151)  -->
  <defs>
    <style>
      .st0, .st1, .st2 {
        font-family: ArialMT, Arial;
        font-size: 40.8px;
        isolation: isolate;
      }

      .st3, .st4 {
        stroke-miterlimit: 6.8;
        stroke-width: 5.1px;
      }

      .st3, .st4, .st5, .st6, .st7 {
        fill: none;
      }

      .st3, .st4, .st7 {
        stroke: #000;
      }

      .st4 {
        stroke-linecap: round;
      }

      .st1 {
        fill: #0000b4;
      }

      .st8 {
        font-family: MyriadPro-Regular, 'Myriad Pro';
        font-size: 48px;
      }

      .st2 {
        fill: #ff3200;
      }

      .st5 {
        stroke: #ff3200;
      }

      .st5, .st6, .st7 {
        stroke-miterlimit: 10;
        stroke-width: 3px;
      }

      .st6 {
        stroke: #0000b4;
      }
    </style>
  </defs>
  <line class="st4" x1="900.7" y1="33.2" x2="466" y2="33.2"/>
  <line class="st4" x1="466" y1="87.5" x2="466" y2="33.2"/>
  <line class="st4" x1="466" y1="87.5" x2="384.5" y2="87.5"/>
  <line class="st4" x1="466" y1="114.7" x2="466" y2="87.5"/>
  <line class="st4" x1="466" y1="277.7" x2="466" y2="250.5"/>
  <line class="st4" x1="466" y1="277.7" x2="384.5" y2="277.7"/>
  <line class="st4" x1="466" y1="386.4" x2="466" y2="277.7"/>
  <line class="st4" x1="574.7" y1="386.4" x2="466" y2="386.4"/>
  <line class="st4" x1="466" y1="413.5" x2="466" y2="386.4"/>
  <line class="st4" x1="900.7" y1="440.7" x2="900.7" y2="33.2"/>
  <line class="st4" x1="357.3" y1="522.2" x2="85.6" y2="522.2"/>
  <line class="st4" x1="85.6" y1="549.4" x2="85.6" y2="522.2"/>
  <line class="st4" x1="574.7" y1="658.1" x2="547.5" y2="658.1"/>
  <line class="st4" x1="85.6" y1="712.4" x2="85.6" y2="685.2"/>
  <line class="st4" x1="466" y1="712.4" x2="466" y2="630.9"/>
  <line class="st4" x1="466" y1="712.4" x2="85.6" y2="712.4"/>
  <line class="st4" x1="493.1" y1="712.4" x2="493.1" y2="549.4"/>
  <line class="st4" x1="493.1" y1="712.4" x2="466" y2="712.4"/>
  <line class="st4" x1="547.5" y1="712.4" x2="547.5" y2="658.1"/>
  <line class="st4" x1="547.5" y1="712.4" x2="493.1" y2="712.4"/>
  <line class="st4" x1="900.7" y1="712.4" x2="900.7" y2="576.6"/>
  <line class="st4" x1="900.7" y1="712.4" x2="547.5" y2="712.4"/>
  <line class="st4" x1="85.6" y1="739.6" x2="85.6" y2="712.4"/>
  <line class="st4" x1="900.7" y1="739.6" x2="900.7" y2="712.4"/>
  <circle cx="466" cy="87.5" r="7.6"/>
  <circle cx="466" cy="277.7" r="7.6"/>
  <circle cx="466" cy="386.4" r="7.6"/>
  <circle cx="85.6" cy="712.4" r="7.6"/>
  <circle cx="466" cy="712.4" r="7.6"/>
  <circle cx="493.1" cy="712.4" r="7.6"/>
  <circle cx="547.5" cy="712.4" r="7.6"/>
  <circle cx="900.7" cy="712.4" r="7.6"/>
  <g>
    <line class="st4" x1="466" y1="467.9" x2="466" y2="440.7"/>
    <line class="st4" x1="398.1" y1="576.6" x2="398.1" y2="467.9"/>
    <line class="st4" x1="466" y1="467.9" x2="411.6" y2="467.9"/>
    <line class="st4" x1="466" y1="603.7" x2="466" y2="576.6"/>
    <line class="st4" x1="466" y1="440.7" x2="466" y2="440.7"/>
    <line class="st4" x1="411.6" y1="576.6" x2="411.6" y2="467.9"/>
    <line class="st4" x1="438.8" y1="569.8" x2="466" y2="576.6"/>
    <line class="st4" x1="438.8" y1="583.4" x2="438.8" y2="569.8"/>
    <line class="st4" x1="466" y1="576.6" x2="438.8" y2="583.4"/>
    <line class="st4" x1="411.6" y1="576.6" x2="438.8" y2="576.6"/>
    <line class="st4" x1="466" y1="630.9" x2="466" y2="603.7"/>
    <line class="st4" x1="466" y1="630.9" x2="466" y2="603.7"/>
    <line class="st4" x1="357.3" y1="522.2" x2="398.1" y2="522.2"/>
    <line class="st4" x1="466" y1="413.5" x2="466" y2="440.7"/>
    <line class="st4" x1="493.1" y1="549.4" x2="438.8" y2="549.4"/>
  </g>
  <g>
    <text class="st0" transform="translate(499.9 167.7)"><tspan x="0" y="0">R1</tspan></text>
    <line class="st4" x1="466" y1="236.9" x2="466" y2="250.5"/>
    <line class="st4" x1="438.8" y1="223.4" x2="466" y2="236.9"/>
    <line class="st4" x1="493.1" y1="196.2" x2="438.8" y2="223.4"/>
    <line class="st4" x1="438.8" y1="169" x2="493.1" y2="196.2"/>
    <line class="st4" x1="493.1" y1="141.9" x2="438.8" y2="169"/>
    <line class="st4" x1="466" y1="114.7" x2="466" y2="128.3"/>
    <line class="st4" x1="466" y1="128.3" x2="493.1" y2="141.9"/>
  </g>
  <g>
    <text class="st0" transform="translate(599.6 398.6)"><tspan x="0" y="0" xml:space="preserve"> 1+</tspan></text>
    <line class="st4" x1="683.3" y1="413.5" x2="710.5" y2="386.4"/>
    <line class="st4" x1="601.8" y1="359.2" x2="683.3" y2="359.2"/>
    <line class="st4" x1="601.8" y1="359.2" x2="601.8" y2="413.5"/>
    <line class="st4" x1="683.3" y1="413.5" x2="601.8" y2="413.5"/>
    <line class="st4" x1="710.5" y1="386.4" x2="683.3" y2="359.2"/>
    <line class="st4" x1="601.8" y1="386.4" x2="574.7" y2="386.4"/>
  </g>
  <g>
    <text class="st0" transform="translate(274.3 289.9)"><tspan x="0" y="0" xml:space="preserve"> 2-</tspan></text>
    <line class="st4" x1="275.8" y1="304.9" x2="248.6" y2="277.7"/>
    <line class="st4" x1="357.3" y1="250.5" x2="275.8" y2="250.5"/>
    <line class="st4" x1="357.3" y1="250.5" x2="357.3" y2="304.9"/>
    <line class="st4" x1="275.8" y1="304.9" x2="357.3" y2="304.9"/>
    <line class="st4" x1="248.6" y1="277.7" x2="275.8" y2="250.5"/>
    <line class="st4" x1="357.3" y1="277.7" x2="384.5" y2="277.7"/>
  </g>
  <g>
    <text class="st0" transform="translate(274.3 99.7)"><tspan x="0" y="0" xml:space="preserve"> 2+</tspan></text>
    <line class="st4" x1="275.8" y1="114.7" x2="248.6" y2="87.5"/>
    <line class="st4" x1="357.3" y1="60.3" x2="275.8" y2="60.3"/>
    <line class="st4" x1="357.3" y1="60.3" x2="357.3" y2="114.7"/>
    <line class="st4" x1="275.8" y1="114.7" x2="357.3" y2="114.7"/>
    <line class="st4" x1="248.6" y1="87.5" x2="275.8" y2="60.3"/>
    <line class="st4" x1="357.3" y1="87.5" x2="384.5" y2="87.5"/>
  </g>
  <g>
    <text class="st0" transform="translate(599.6 670.3)"><tspan x="0" y="0" xml:space="preserve"> 1-</tspan></text>
    <line class="st4" x1="683.3" y1="685.2" x2="710.5" y2="658.1"/>
    <line class="st4" x1="601.8" y1="630.9" x2="683.3" y2="630.9"/>
    <line class="st4" x1="601.8" y1="630.9" x2="601.8" y2="685.2"/>
    <line class="st4" x1="683.3" y1="685.2" x2="601.8" y2="685.2"/>
    <line class="st4" x1="710.5" y1="658.1" x2="683.3" y2="630.9"/>
    <line class="st4" x1="601.8" y1="658.1" x2="574.7" y2="658.1"/>
  </g>
  <g>
    <text class="st1" transform="translate(126.4 561.6)"><tspan x="0" y="0">Vgs</tspan></text>
    <line class="st4" x1="72" y1="583.4" x2="99.2" y2="583.4"/>
    <line class="st4" x1="72" y1="651.3" x2="99.2" y2="651.3"/>
    <line class="st4" x1="85.6" y1="569.8" x2="85.6" y2="596.9"/>
    <line class="st4" x1="85.6" y1="685.2" x2="85.6" y2="671.7"/>
    <line class="st4" x1="85.6" y1="549.4" x2="85.6" y2="563"/>
    <circle class="st3" cx="85.6" cy="617.3" r="54.3"/>
  </g>
  <g>
    <text class="st2" transform="translate(941.4 452.9)"><tspan x="0" y="0">VDS</tspan></text>
    <line class="st4" x1="887.1" y1="474.7" x2="914.3" y2="474.7"/>
    <line class="st4" x1="887.1" y1="542.6" x2="914.3" y2="542.6"/>
    <line class="st4" x1="900.7" y1="461.1" x2="900.7" y2="488.3"/>
    <line class="st4" x1="900.7" y1="576.6" x2="900.7" y2="563"/>
    <line class="st4" x1="900.7" y1="440.7" x2="900.7" y2="454.3"/>
    <circle class="st3" cx="900.7" cy="508.6" r="54.3"/>
  </g>
  <g>
    <line class="st4" x1="58.4" y1="739.6" x2="112.8" y2="739.6"/>
    <line class="st4" x1="58.4" y1="739.6" x2="85.6" y2="766.8"/>
    <line class="st4" x1="112.8" y1="739.6" x2="85.6" y2="766.8"/>
  </g>
  <g>
    <line class="st4" x1="873.5" y1="739.6" x2="927.9" y2="739.6"/>
    <line class="st4" x1="873.5" y1="739.6" x2="900.7" y2="766.8"/>
    <line class="st4" x1="927.9" y1="739.6" x2="900.7" y2="766.8"/>
  </g>
  <g>
    <line class="st5" x1="174" y1="978.5" x2="258.4" y2="839.6"/>
    <line class="st5" x1="258.4" y1="979.9" x2="258.4" y2="839.6"/>
  </g>
  <g>
    <line class="st5" x1="258.4" y1="978.5" x2="342.9" y2="839.6"/>
    <line class="st5" x1="342.9" y1="979.9" x2="342.9" y2="839.6"/>
  </g>
  <g>
    <line class="st5" x1="342.9" y1="978.5" x2="427.3" y2="839.6"/>
    <line class="st5" x1="427.3" y1="979.9" x2="427.3" y2="839.6"/>
  </g>
  <polyline class="st6" points="175.3 1090.8 175.3 1063.3 259.8 1063.3 259.8 1035.3 344.2 1035.3 344.2 1008.6 426 1008.6 426 1090.8 510.4 1090.8"/>
  <polyline class="st6" points="510.4 1092.6 510.4 1065 594.9 1065 594.9 1037 679.3 1037 679.3 1010.4 761.1 1010.4 761.1 1090.7 795 1090.7"/>
  <g>
    <line class="st5" x1="427.3" y1="978.5" x2="511.8" y2="839.6"/>
    <line class="st5" x1="511.8" y1="979.9" x2="511.8" y2="839.6"/>
  </g>
  <line class="st5" x1="765.2" y1="978.5" x2="798.5" y2="927.9"/>
  <g>
    <line class="st5" x1="511.8" y1="977.9" x2="596.3" y2="838.9"/>
    <line class="st5" x1="596.3" y1="979.2" x2="596.3" y2="838.9"/>
  </g>
  <g>
    <line class="st5" x1="596.3" y1="977.9" x2="680.7" y2="838.9"/>
    <line class="st5" x1="680.7" y1="979.2" x2="680.7" y2="838.9"/>
  </g>
  <g>
    <line class="st5" x1="680.7" y1="977.9" x2="765.2" y2="838.9"/>
    <line class="st5" x1="765.2" y1="979.2" x2="765.2" y2="838.9"/>
  </g>
  <path class="st5" d="M141.3,1087"/>
  <g>
    <line class="st7" x1="153.3" y1="1090.8" x2="856.1" y2="1090.8"/>
    <polygon points="847.7 1101.9 852.4 1090.8 847.7 1079.7 874 1090.8 847.7 1101.9"/>
  </g>
  <g>
    <line class="st7" x1="151.4" y1="978" x2="854.2" y2="978"/>
    <polygon points="845.8 989.1 850.5 978 845.8 966.8 872.1 978 845.8 989.1"/>
  </g>
  <text class="st8" transform="translate(846.1 959.7)"><tspan x="0" y="0">t</tspan></text>
  <text class="st8" transform="translate(846.9 1071.7)"><tspan x="0" y="0">t</tspan></text>
  <text class="st1" transform="translate(153.3 1037.8)"><tspan x="0" y="0">Vgs</tspan></text>
  <text class="st2" transform="translate(132.3 893.2)"><tspan x="0" y="0">VDS</tspan></text>
</svg>