<?xml version="1.0" encoding="UTF-8"?>
<svg id="Layer_1" xmlns="http://www.w3.org/2000/svg" xmlns:ev="http://www.w3.org/2001/xml-events" version="1.1" viewBox="0 0 1050 814">
  <!-- Generator: Adobe Illustrator 29.5.1, SVG Export Plug-In . SVG Version: 2.1.0 Build 141)  -->
  <line x1="900.7" y1="33.2" x2="466" y2="33.2" fill="none" stroke="#000" stroke-linecap="round" stroke-miterlimit="6.8" stroke-width="5.1"/>
  <line x1="466" y1="87.5" x2="466" y2="33.2" fill="none" stroke="#000" stroke-linecap="round" stroke-miterlimit="6.8" stroke-width="5.1"/>
  <line x1="466" y1="87.5" x2="384.5" y2="87.5" fill="none" stroke="#000" stroke-linecap="round" stroke-miterlimit="6.8" stroke-width="5.1"/>
  <line x1="466" y1="114.7" x2="466" y2="87.5" fill="none" stroke="#000" stroke-linecap="round" stroke-miterlimit="6.8" stroke-width="5.1"/>
  <line x1="466" y1="277.7" x2="466" y2="250.5" fill="none" stroke="#000" stroke-linecap="round" stroke-miterlimit="6.8" stroke-width="5.1"/>
  <line x1="466" y1="277.7" x2="384.5" y2="277.7" fill="none" stroke="#000" stroke-linecap="round" stroke-miterlimit="6.8" stroke-width="5.1"/>
  <line x1="466" y1="386.4" x2="466" y2="277.7" fill="none" stroke="#000" stroke-linecap="round" stroke-miterlimit="6.8" stroke-width="5.1"/>
  <line x1="574.7" y1="386.4" x2="466" y2="386.4" fill="none" stroke="#000" stroke-linecap="round" stroke-miterlimit="6.8" stroke-width="5.1"/>
  <line x1="466" y1="413.5" x2="466" y2="386.4" fill="none" stroke="#000" stroke-linecap="round" stroke-miterlimit="6.8" stroke-width="5.1"/>
  <line x1="900.7" y1="440.7" x2="900.7" y2="33.2" fill="none" stroke="#000" stroke-linecap="round" stroke-miterlimit="6.8" stroke-width="5.1"/>
  <line x1="357.3" y1="522.2" x2="85.6" y2="522.2" fill="none" stroke="#000" stroke-linecap="round" stroke-miterlimit="6.8" stroke-width="5.1"/>
  <line x1="85.6" y1="549.4" x2="85.6" y2="522.2" fill="none" stroke="#000" stroke-linecap="round" stroke-miterlimit="6.8" stroke-width="5.1"/>
  <line x1="574.7" y1="658.1" x2="547.5" y2="658.1" fill="none" stroke="#000" stroke-linecap="round" stroke-miterlimit="6.8" stroke-width="5.1"/>
  <line x1="85.6" y1="712.4" x2="85.6" y2="685.2" fill="none" stroke="#000" stroke-linecap="round" stroke-miterlimit="6.8" stroke-width="5.1"/>
  <line x1="466" y1="712.4" x2="466" y2="630.9" fill="none" stroke="#000" stroke-linecap="round" stroke-miterlimit="6.8" stroke-width="5.1"/>
  <line x1="466" y1="712.4" x2="85.6" y2="712.4" fill="none" stroke="#000" stroke-linecap="round" stroke-miterlimit="6.8" stroke-width="5.1"/>
  <line x1="493.1" y1="712.4" x2="493.1" y2="549.4" fill="none" stroke="#000" stroke-linecap="round" stroke-miterlimit="6.8" stroke-width="5.1"/>
  <line x1="493.1" y1="712.4" x2="466" y2="712.4" fill="none" stroke="#000" stroke-linecap="round" stroke-miterlimit="6.8" stroke-width="5.1"/>
  <line x1="547.5" y1="712.4" x2="547.5" y2="658.1" fill="none" stroke="#000" stroke-linecap="round" stroke-miterlimit="6.8" stroke-width="5.1"/>
  <line x1="547.5" y1="712.4" x2="493.1" y2="712.4" fill="none" stroke="#000" stroke-linecap="round" stroke-miterlimit="6.8" stroke-width="5.1"/>
  <line x1="900.7" y1="712.4" x2="900.7" y2="576.6" fill="none" stroke="#000" stroke-linecap="round" stroke-miterlimit="6.8" stroke-width="5.1"/>
  <line x1="900.7" y1="712.4" x2="547.5" y2="712.4" fill="none" stroke="#000" stroke-linecap="round" stroke-miterlimit="6.8" stroke-width="5.1"/>
  <line x1="85.6" y1="739.6" x2="85.6" y2="712.4" fill="none" stroke="#000" stroke-linecap="round" stroke-miterlimit="6.8" stroke-width="5.1"/>
  <line x1="900.7" y1="739.6" x2="900.7" y2="712.4" fill="none" stroke="#000" stroke-linecap="round" stroke-miterlimit="6.8" stroke-width="5.1"/>
  <circle cx="466" cy="87.5" r="7.6"/>
  <circle cx="466" cy="277.7" r="7.6"/>
  <circle cx="466" cy="386.4" r="7.6"/>
  <circle cx="85.6" cy="712.4" r="7.6"/>
  <circle cx="466" cy="712.4" r="7.6"/>
  <circle cx="493.1" cy="712.4" r="7.6"/>
  <circle cx="547.5" cy="712.4" r="7.6"/>
  <circle cx="900.7" cy="712.4" r="7.6"/>
  <g>
    <line x1="466" y1="467.9" x2="466" y2="440.7" fill="none" stroke="#000" stroke-linecap="round" stroke-miterlimit="6.8" stroke-width="5.1"/>
    <line x1="398.1" y1="576.6" x2="398.1" y2="467.9" fill="none" stroke="#000" stroke-linecap="round" stroke-miterlimit="6.8" stroke-width="5.1"/>
    <line x1="466" y1="467.9" x2="411.6" y2="467.9" fill="none" stroke="#000" stroke-linecap="round" stroke-miterlimit="6.8" stroke-width="5.1"/>
    <line x1="466" y1="603.7" x2="466" y2="576.6" fill="none" stroke="#000" stroke-linecap="round" stroke-miterlimit="6.8" stroke-width="5.1"/>
    <line x1="466" y1="440.7" x2="466" y2="440.7" fill="none" stroke="#000" stroke-linecap="round" stroke-miterlimit="6.8" stroke-width="5.1"/>
    <line x1="411.6" y1="576.6" x2="411.6" y2="467.9" fill="none" stroke="#000" stroke-linecap="round" stroke-miterlimit="6.8" stroke-width="5.1"/>
    <line x1="438.8" y1="569.8" x2="466" y2="576.6" fill="none" stroke="#000" stroke-linecap="round" stroke-miterlimit="6.8" stroke-width="5.1"/>
    <line x1="438.8" y1="583.4" x2="438.8" y2="569.8" fill="none" stroke="#000" stroke-linecap="round" stroke-miterlimit="6.8" stroke-width="5.1"/>
    <line x1="466" y1="576.6" x2="438.8" y2="583.4" fill="none" stroke="#000" stroke-linecap="round" stroke-miterlimit="6.8" stroke-width="5.1"/>
    <line x1="411.6" y1="576.6" x2="438.8" y2="576.6" fill="none" stroke="#000" stroke-linecap="round" stroke-miterlimit="6.8" stroke-width="5.1"/>
    <line x1="466" y1="630.9" x2="466" y2="603.7" fill="none" stroke="#000" stroke-linecap="round" stroke-miterlimit="6.8" stroke-width="5.1"/>
    <line x1="466" y1="630.9" x2="466" y2="603.7" fill="none" stroke="#000" stroke-linecap="round" stroke-miterlimit="6.8" stroke-width="5.1"/>
    <line x1="357.3" y1="522.2" x2="398.1" y2="522.2" fill="none" stroke="#000" stroke-linecap="round" stroke-miterlimit="6.8" stroke-width="5.1"/>
    <line x1="466" y1="413.5" x2="466" y2="440.7" fill="none" stroke="#000" stroke-linecap="round" stroke-miterlimit="6.8" stroke-width="5.1"/>
    <line x1="493.1" y1="549.4" x2="438.8" y2="549.4" fill="none" stroke="#000" stroke-linecap="round" stroke-miterlimit="6.8" stroke-width="5.1"/>
  </g>
  <g>
    <g isolation="isolate">
      <text transform="translate(499.9 167.7)" font-family="ArialMT, Arial" font-size="40.8" isolation="isolate"><tspan x="0" y="0">R1</tspan></text>
    </g>
    <line x1="466" y1="236.9" x2="466" y2="250.5" fill="none" stroke="#000" stroke-linecap="round" stroke-miterlimit="6.8" stroke-width="5.1"/>
    <line x1="438.8" y1="223.4" x2="466" y2="236.9" fill="none" stroke="#000" stroke-linecap="round" stroke-miterlimit="6.8" stroke-width="5.1"/>
    <line x1="493.1" y1="196.2" x2="438.8" y2="223.4" fill="none" stroke="#000" stroke-linecap="round" stroke-miterlimit="6.8" stroke-width="5.1"/>
    <line x1="438.8" y1="169" x2="493.1" y2="196.2" fill="none" stroke="#000" stroke-linecap="round" stroke-miterlimit="6.8" stroke-width="5.1"/>
    <line x1="493.1" y1="141.9" x2="438.8" y2="169" fill="none" stroke="#000" stroke-linecap="round" stroke-miterlimit="6.8" stroke-width="5.1"/>
    <line x1="466" y1="114.7" x2="466" y2="128.3" fill="none" stroke="#000" stroke-linecap="round" stroke-miterlimit="6.8" stroke-width="5.1"/>
    <line x1="466" y1="128.3" x2="493.1" y2="141.9" fill="none" stroke="#000" stroke-linecap="round" stroke-miterlimit="6.8" stroke-width="5.1"/>
  </g>
  <g>
    <g isolation="isolate">
      <text transform="translate(599.6 398.6)" font-family="ArialMT, Arial" font-size="40.8" isolation="isolate"><tspan x="0" y="0" xml:space="preserve"> 1+</tspan></text>
    </g>
    <line x1="683.3" y1="413.5" x2="710.5" y2="386.4" fill="none" stroke="#000" stroke-linecap="round" stroke-miterlimit="6.8" stroke-width="5.1"/>
    <line x1="601.8" y1="359.2" x2="683.3" y2="359.2" fill="none" stroke="#000" stroke-linecap="round" stroke-miterlimit="6.8" stroke-width="5.1"/>
    <line x1="601.8" y1="359.2" x2="601.8" y2="413.5" fill="none" stroke="#000" stroke-linecap="round" stroke-miterlimit="6.8" stroke-width="5.1"/>
    <line x1="683.3" y1="413.5" x2="601.8" y2="413.5" fill="none" stroke="#000" stroke-linecap="round" stroke-miterlimit="6.8" stroke-width="5.1"/>
    <line x1="710.5" y1="386.4" x2="683.3" y2="359.2" fill="none" stroke="#000" stroke-linecap="round" stroke-miterlimit="6.8" stroke-width="5.1"/>
    <line x1="601.8" y1="386.4" x2="574.7" y2="386.4" fill="none" stroke="#000" stroke-linecap="round" stroke-miterlimit="6.8" stroke-width="5.1"/>
  </g>
  <g>
    <g isolation="isolate">
      <text transform="translate(274.3 289.9)" font-family="ArialMT, Arial" font-size="40.8" isolation="isolate"><tspan x="0" y="0" xml:space="preserve"> 2-</tspan></text>
    </g>
    <line x1="275.8" y1="304.9" x2="248.6" y2="277.7" fill="none" stroke="#000" stroke-linecap="round" stroke-miterlimit="6.8" stroke-width="5.1"/>
    <line x1="357.3" y1="250.5" x2="275.8" y2="250.5" fill="none" stroke="#000" stroke-linecap="round" stroke-miterlimit="6.8" stroke-width="5.1"/>
    <line x1="357.3" y1="250.5" x2="357.3" y2="304.9" fill="none" stroke="#000" stroke-linecap="round" stroke-miterlimit="6.8" stroke-width="5.1"/>
    <line x1="275.8" y1="304.9" x2="357.3" y2="304.9" fill="none" stroke="#000" stroke-linecap="round" stroke-miterlimit="6.8" stroke-width="5.1"/>
    <line x1="248.6" y1="277.7" x2="275.8" y2="250.5" fill="none" stroke="#000" stroke-linecap="round" stroke-miterlimit="6.8" stroke-width="5.1"/>
    <line x1="357.3" y1="277.7" x2="384.5" y2="277.7" fill="none" stroke="#000" stroke-linecap="round" stroke-miterlimit="6.8" stroke-width="5.1"/>
  </g>
  <g>
    <g isolation="isolate">
      <text transform="translate(274.3 99.7)" font-family="ArialMT, Arial" font-size="40.8" isolation="isolate"><tspan x="0" y="0" xml:space="preserve"> 2+</tspan></text>
    </g>
    <line x1="275.8" y1="114.7" x2="248.6" y2="87.5" fill="none" stroke="#000" stroke-linecap="round" stroke-miterlimit="6.8" stroke-width="5.1"/>
    <line x1="357.3" y1="60.3" x2="275.8" y2="60.3" fill="none" stroke="#000" stroke-linecap="round" stroke-miterlimit="6.8" stroke-width="5.1"/>
    <line x1="357.3" y1="60.3" x2="357.3" y2="114.7" fill="none" stroke="#000" stroke-linecap="round" stroke-miterlimit="6.8" stroke-width="5.1"/>
    <line x1="275.8" y1="114.7" x2="357.3" y2="114.7" fill="none" stroke="#000" stroke-linecap="round" stroke-miterlimit="6.8" stroke-width="5.1"/>
    <line x1="248.6" y1="87.5" x2="275.8" y2="60.3" fill="none" stroke="#000" stroke-linecap="round" stroke-miterlimit="6.8" stroke-width="5.1"/>
    <line x1="357.3" y1="87.5" x2="384.5" y2="87.5" fill="none" stroke="#000" stroke-linecap="round" stroke-miterlimit="6.8" stroke-width="5.1"/>
  </g>
  <g>
    <g isolation="isolate">
      <text transform="translate(599.6 670.3)" font-family="ArialMT, Arial" font-size="40.8" isolation="isolate"><tspan x="0" y="0" xml:space="preserve"> 1-</tspan></text>
    </g>
    <line x1="683.3" y1="685.2" x2="710.5" y2="658.1" fill="none" stroke="#000" stroke-linecap="round" stroke-miterlimit="6.8" stroke-width="5.1"/>
    <line x1="601.8" y1="630.9" x2="683.3" y2="630.9" fill="none" stroke="#000" stroke-linecap="round" stroke-miterlimit="6.8" stroke-width="5.1"/>
    <line x1="601.8" y1="630.9" x2="601.8" y2="685.2" fill="none" stroke="#000" stroke-linecap="round" stroke-miterlimit="6.8" stroke-width="5.1"/>
    <line x1="683.3" y1="685.2" x2="601.8" y2="685.2" fill="none" stroke="#000" stroke-linecap="round" stroke-miterlimit="6.8" stroke-width="5.1"/>
    <line x1="710.5" y1="658.1" x2="683.3" y2="630.9" fill="none" stroke="#000" stroke-linecap="round" stroke-miterlimit="6.8" stroke-width="5.1"/>
    <line x1="601.8" y1="658.1" x2="574.7" y2="658.1" fill="none" stroke="#000" stroke-linecap="round" stroke-miterlimit="6.8" stroke-width="5.1"/>
  </g>
  <g>
    <g isolation="isolate">
      <text transform="translate(126.4 561.6)" fill="#0000b4" font-family="ArialMT, Arial" font-size="40.8" isolation="isolate"><tspan x="0" y="0">Vgs</tspan></text>
    </g>
    <line x1="72" y1="583.4" x2="99.2" y2="583.4" fill="none" stroke="#000" stroke-linecap="round" stroke-miterlimit="6.8" stroke-width="5.1"/>
    <line x1="72" y1="651.3" x2="99.2" y2="651.3" fill="none" stroke="#000" stroke-linecap="round" stroke-miterlimit="6.8" stroke-width="5.1"/>
    <line x1="85.6" y1="569.8" x2="85.6" y2="596.9" fill="none" stroke="#000" stroke-linecap="round" stroke-miterlimit="6.8" stroke-width="5.1"/>
    <line x1="85.6" y1="685.2" x2="85.6" y2="671.7" fill="none" stroke="#000" stroke-linecap="round" stroke-miterlimit="6.8" stroke-width="5.1"/>
    <line x1="85.6" y1="549.4" x2="85.6" y2="563" fill="none" stroke="#000" stroke-linecap="round" stroke-miterlimit="6.8" stroke-width="5.1"/>
    <circle cx="85.6" cy="617.3" r="54.3" fill="none" stroke="#000" stroke-miterlimit="6.8" stroke-width="5.1"/>
  </g>
  <g>
    <g isolation="isolate">
      <text transform="translate(941.4 452.9)" fill="#ff3200" font-family="ArialMT, Arial" font-size="40.8" isolation="isolate"><tspan x="0" y="0">VDS</tspan></text>
    </g>
    <line x1="887.1" y1="474.7" x2="914.3" y2="474.7" fill="none" stroke="#000" stroke-linecap="round" stroke-miterlimit="6.8" stroke-width="5.1"/>
    <line x1="887.1" y1="542.6" x2="914.3" y2="542.6" fill="none" stroke="#000" stroke-linecap="round" stroke-miterlimit="6.8" stroke-width="5.1"/>
    <line x1="900.7" y1="461.1" x2="900.7" y2="488.3" fill="none" stroke="#000" stroke-linecap="round" stroke-miterlimit="6.8" stroke-width="5.1"/>
    <line x1="900.7" y1="576.6" x2="900.7" y2="563" fill="none" stroke="#000" stroke-linecap="round" stroke-miterlimit="6.8" stroke-width="5.1"/>
    <line x1="900.7" y1="440.7" x2="900.7" y2="454.3" fill="none" stroke="#000" stroke-linecap="round" stroke-miterlimit="6.8" stroke-width="5.1"/>
    <circle cx="900.7" cy="508.6" r="54.3" fill="none" stroke="#000" stroke-miterlimit="6.8" stroke-width="5.1"/>
  </g>
  <g>
    <line x1="58.4" y1="739.6" x2="112.8" y2="739.6" fill="none" stroke="#000" stroke-linecap="round" stroke-miterlimit="6.8" stroke-width="5.1"/>
    <line x1="58.4" y1="739.6" x2="85.6" y2="766.8" fill="none" stroke="#000" stroke-linecap="round" stroke-miterlimit="6.8" stroke-width="5.1"/>
    <line x1="112.8" y1="739.6" x2="85.6" y2="766.8" fill="none" stroke="#000" stroke-linecap="round" stroke-miterlimit="6.8" stroke-width="5.1"/>
  </g>
  <g>
    <line x1="873.5" y1="739.6" x2="927.9" y2="739.6" fill="none" stroke="#000" stroke-linecap="round" stroke-miterlimit="6.8" stroke-width="5.1"/>
    <line x1="873.5" y1="739.6" x2="900.7" y2="766.8" fill="none" stroke="#000" stroke-linecap="round" stroke-miterlimit="6.8" stroke-width="5.1"/>
    <line x1="927.9" y1="739.6" x2="900.7" y2="766.8" fill="none" stroke="#000" stroke-linecap="round" stroke-miterlimit="6.8" stroke-width="5.1"/>
  </g>
</svg>