<?xml version="1.0" encoding="UTF-8"?>
<svg id="Layer_1" xmlns="http://www.w3.org/2000/svg" xmlns:xlink="http://www.w3.org/1999/xlink" xmlns:ev="http://www.w3.org/2001/xml-events" version="1.1" viewBox="0 0 605.1 390.3">
  <!-- Generator: Adobe Illustrator 29.3.1, SVG Export Plug-In . SVG Version: 2.1.0 Build 151)  -->
  <defs>
    <style>
      .st0, .st1, .st2, .st3, .st4, .st5, .st6, .st7, .st8 {
        fill: none;
      }

      .st9, .st10, .st11, .st12, .st13, .st14, .st15, .st16 {
        fill: #0096ff;
      }

      .st10 {
        font-size: 14.4px;
      }

      .st10, .st17, .st11, .st18, .st19, .st20, .st12, .st21, .st13, .st22, .st14, .st23, .st15, .st16 {
        isolation: isolate;
      }

      .st10, .st17, .st11, .st18, .st20, .st12, .st21, .st13, .st22, .st23, .st15, .st16 {
        font-family: ArialMT, Arial;
      }

      .st1 {
        stroke: #0096ff;
      }

      .st1, .st5, .st8 {
        stroke-miterlimit: 1.4;
      }

      .st1, .st6 {
        stroke-width: 2px;
      }

      .st2 {
        stroke-dasharray: 0 3.5;
      }

      .st2, .st3, .st4, .st5, .st6, .st7, .st8 {
        stroke: #000;
      }

      .st2, .st3, .st4, .st7 {
        stroke-miterlimit: 2.4;
      }

      .st2, .st4, .st7 {
        stroke-width: 1.8px;
      }

      .st2, .st7, .st8 {
        stroke-linecap: round;
      }

      .st3, .st5, .st8 {
        stroke-width: 1.8px;
      }

      .st17 {
        font-size: 9.5px;
      }

      .st11, .st20 {
        font-size: 12.6px;
      }

      .st18, .st14, .st15 {
        font-size: 14.2px;
      }

      .st12 {
        font-size: 11.5px;
      }

      .st21 {
        font-size: 13.1px;
      }

      .st13 {
        font-size: 17.9px;
      }

      .st22 {
        font-size: 14px;
      }

      .st14 {
        font-family: Arial-ItalicMT, Arial;
        font-style: italic;
      }

      .st6 {
        stroke-miterlimit: 10;
      }

      .st23 {
        font-size: 5.9px;
      }

      .st16 {
        font-size: 14.4px;
      }
    </style>
  </defs>
  <line class="st7" x1="263.6" y1="24.7" x2="225.8" y2="24.7"/>
  <line class="st7" x1="367.6" y1="24.7" x2="263.6" y2="24.7"/>
  <line class="st7" x1="490.4" y1="24.7" x2="367.6" y2="24.7"/>
  <line class="st7" x1="367.6" y1="72" x2="367.6" y2="24.7"/>
  <line class="st7" x1="490.4" y1="72" x2="490.4" y2="24.7"/>
  <line class="st7" x1="225.8" y1="128.7" x2="225.8" y2="24.7"/>
  <line class="st7" x1="367.6" y1="138.2" x2="367.6" y2="119.3"/>
  <line class="st7" x1="367.6" y1="138.2" x2="329.8" y2="138.2"/>
  <line class="st7" x1="490.4" y1="138.2" x2="490.4" y2="119.3"/>
  <line class="st7" x1="528.2" y1="138.2" x2="490.4" y2="138.2"/>
  <line class="st7" x1="197.4" y1="147.6" x2="178.5" y2="147.6"/>
  <line class="st7" x1="367.6" y1="147.6" x2="367.6" y2="138.2"/>
  <line class="st7" x1="490.4" y1="147.6" x2="490.4" y2="138.2"/>
  <line class="st7" x1="320.3" y1="185.4" x2="310.9" y2="185.4"/>
  <line class="st7" x1="547.1" y1="185.4" x2="537.7" y2="185.4"/>
  <line class="st7" x1="178.5" y1="194.9" x2="178.5" y2="147.6"/>
  <line class="st7" x1="225.8" y1="194.9" x2="225.8" y2="176"/>
  <line class="st7" x1="225.8" y1="194.9" x2="178.5" y2="194.9"/>
  <line class="st7" x1="462.1" y1="194.9" x2="377" y2="194.9"/>
  <line class="st7" x1="481" y1="194.9" x2="462.1" y2="194.9"/>
  <line class="st7" x1="225.8" y1="204.3" x2="225.8" y2="194.9"/>
  <line class="st7" x1="367.6" y1="232.7" x2="367.6" y2="223.2"/>
  <line class="st7" x1="405.4" y1="232.7" x2="367.6" y2="232.7"/>
  <line class="st7" x1="433.7" y1="232.7" x2="405.4" y2="232.7"/>
  <line class="st7" x1="490.4" y1="232.7" x2="490.4" y2="223.2"/>
  <line class="st7" x1="490.4" y1="232.7" x2="433.7" y2="232.7"/>
  <line class="st7" x1="225.8" y1="261" x2="225.8" y2="242.1"/>
  <line class="st7" x1="433.7" y1="261" x2="433.7" y2="232.7"/>
  <line class="st7" x1="462.1" y1="355.6" x2="462.1" y2="194.9"/>
  <line class="st7" x1="462.1" y1="355.6" x2="433.7" y2="355.6"/>
  <circle cx="367.6" cy="24.7" r="2.7"/>
  <circle cx="367.6" cy="138.2" r="2.7"/>
  <circle cx="490.4" cy="138.2" r="2.7"/>
  <circle cx="225.8" cy="194.9" r="2.7"/>
  <circle cx="462.1" cy="194.9" r="2.7"/>
  <circle cx="433.7" cy="232.7" r="2.7"/>
  <path class="st2" d="M166.7,53.1h87.4v191.4h-87.4V53.1Z"/>
  <g>
    <text class="st17" transform="translate(499.9 219.6)"><tspan x="0" y="0">4x A</tspan></text>
    <text class="st23" transform="translate(525 182.5)"><tspan x="0" y="0">45</tspan></text>
    <text class="st23" transform="translate(480.4 153.5)"><tspan x="0" y="0">46</tspan></text>
    <text class="st23" transform="translate(480.4 220.3)"><tspan x="0" y="0">44</tspan></text>
    <text class="st23" transform="translate(480.7 191.9)"><tspan x="0" y="0">47</tspan></text>
    <line class="st7" x1="490.4" y1="194.9" x2="481" y2="194.9"/>
    <line class="st7" x1="490.4" y1="147.6" x2="490.4" y2="157.1"/>
    <line class="st7" x1="490.4" y1="223.2" x2="490.4" y2="213.8"/>
    <line class="st7" x1="490.4" y1="204.3" x2="490.4" y2="213.8"/>
    <line class="st7" x1="504" y1="194.9" x2="490.4" y2="194.9"/>
    <line class="st7" x1="518.8" y1="185.4" x2="514.1" y2="185.4"/>
    <line class="st7" x1="514.1" y1="166.5" x2="514.1" y2="204.3"/>
    <line class="st7" x1="490.4" y1="166.5" x2="509.3" y2="166.5"/>
    <line class="st7" x1="490.4" y1="157.1" x2="490.4" y2="166.5"/>
    <line class="st7" x1="490.4" y1="213.8" x2="490.4" y2="213.8"/>
    <line class="st7" x1="509.3" y1="166.5" x2="509.3" y2="204.3"/>
    <line class="st7" x1="499.9" y1="202" x2="490.4" y2="204.3"/>
    <line class="st7" x1="499.9" y1="206.7" x2="499.9" y2="202"/>
    <line class="st7" x1="490.4" y1="204.3" x2="499.9" y2="206.7"/>
    <line class="st7" x1="509.3" y1="204.3" x2="499.9" y2="204.3"/>
    <line class="st7" x1="490.4" y1="213.8" x2="490.4" y2="213.8"/>
    <line class="st7" x1="518.8" y1="185.4" x2="537.7" y2="185.4"/>
  </g>
  <g>
    <text class="st17" transform="translate(339.2 219.6)"><tspan x="0" y="0">4x B</tspan></text>
    <text class="st23" transform="translate(326.5 182.5)"><tspan x="0" y="0">42</tspan></text>
    <text class="st23" transform="translate(371.4 153.5)"><tspan x="0" y="0">41</tspan></text>
    <text class="st23" transform="translate(370.8 220.9)"><tspan x="0" y="0">43</tspan></text>
    <text class="st23" transform="translate(368.4 191.9)"><tspan x="0" y="0">47</tspan></text>
    <line class="st7" x1="367.6" y1="194.9" x2="377" y2="194.9"/>
    <line class="st7" x1="367.6" y1="147.6" x2="367.6" y2="157.1"/>
    <line class="st7" x1="367.6" y1="223.2" x2="367.6" y2="213.8"/>
    <line class="st7" x1="367.6" y1="204.3" x2="367.6" y2="213.8"/>
    <line class="st7" x1="354" y1="194.9" x2="367.6" y2="194.9"/>
    <line class="st7" x1="339.2" y1="185.4" x2="343.9" y2="185.4"/>
    <line class="st7" x1="343.9" y1="166.5" x2="343.9" y2="204.3"/>
    <line class="st7" x1="367.6" y1="166.5" x2="348.7" y2="166.5"/>
    <line class="st7" x1="367.6" y1="157.1" x2="367.6" y2="166.5"/>
    <line class="st7" x1="367.6" y1="213.8" x2="367.6" y2="213.8"/>
    <line class="st7" x1="348.7" y1="166.5" x2="348.7" y2="204.3"/>
    <line class="st7" x1="358.1" y1="202" x2="367.6" y2="204.3"/>
    <line class="st7" x1="358.1" y1="206.7" x2="358.1" y2="202"/>
    <line class="st7" x1="367.6" y1="204.3" x2="358.1" y2="206.7"/>
    <line class="st7" x1="348.7" y1="204.3" x2="358.1" y2="204.3"/>
    <line class="st7" x1="367.6" y1="213.8" x2="367.6" y2="213.8"/>
    <line class="st7" x1="320.3" y1="185.4" x2="339.2" y2="185.4"/>
  </g>
  <g>
    <line class="st7" x1="225.8" y1="133.4" x2="225.8" y2="128.7"/>
    <line class="st7" x1="235.2" y1="138.2" x2="225.8" y2="133.4"/>
    <line class="st7" x1="216.3" y1="147.6" x2="235.2" y2="138.2"/>
    <line class="st7" x1="235.2" y1="157.1" x2="216.3" y2="147.6"/>
    <line class="st7" x1="216.3" y1="166.5" x2="235.2" y2="157.1"/>
    <line class="st7" x1="225.8" y1="176" x2="225.8" y2="171.2"/>
    <line class="st7" x1="225.8" y1="171.2" x2="216.3" y2="166.5"/>
    <line class="st7" x1="211.6" y1="147.6" x2="197.4" y2="147.6"/>
    <line class="st7" x1="211.6" y1="147.6" x2="206.9" y2="152.3"/>
    <line class="st7" x1="211.6" y1="147.6" x2="206.9" y2="142.9"/>
  </g>
  <g>
    <line class="st7" x1="225.8" y1="237.4" x2="225.8" y2="242.1"/>
    <line class="st7" x1="225.8" y1="209.1" x2="225.8" y2="204.3"/>
    <circle class="st4" cx="225.8" cy="211.4" r="2.4"/>
    <circle class="st4" cx="225.8" cy="235" r="2.4"/>
    <path class="st4" d="M228.1,211.6c6.4,1.3,10.5,7.5,9.3,13.9-.9,4.7-4.6,8.3-9.3,9.3"/>
  </g>
  <g>
    <text class="st18" transform="translate(379.4 90.4)"><tspan x="0" y="0">RL</tspan></text>
    <line class="st7" x1="367.6" y1="114.5" x2="367.6" y2="119.3"/>
    <line class="st7" x1="358.1" y1="109.8" x2="367.6" y2="114.5"/>
    <line class="st7" x1="377" y1="100.4" x2="358.1" y2="109.8"/>
    <line class="st7" x1="358.1" y1="90.9" x2="377" y2="100.4"/>
    <line class="st7" x1="377" y1="81.5" x2="358.1" y2="90.9"/>
    <line class="st7" x1="367.6" y1="72" x2="367.6" y2="76.7"/>
    <line class="st7" x1="367.6" y1="76.7" x2="377" y2="81.5"/>
  </g>
  <g>
    <text class="st18" transform="translate(502.3 90.4)"><tspan x="0" y="0">RL</tspan></text>
    <line class="st7" x1="490.4" y1="114.5" x2="490.4" y2="119.3"/>
    <line class="st7" x1="481" y1="109.8" x2="490.4" y2="114.5"/>
    <line class="st7" x1="499.9" y1="100.4" x2="481" y2="109.8"/>
    <line class="st7" x1="481" y1="90.9" x2="499.9" y2="100.4"/>
    <line class="st7" x1="499.9" y1="81.5" x2="481" y2="90.9"/>
    <line class="st7" x1="490.4" y1="72" x2="490.4" y2="76.7"/>
    <line class="st7" x1="490.4" y1="76.7" x2="499.9" y2="81.5"/>
  </g>
  <g>
    <text class="st17" transform="translate(234.1 348.3)"><tspan x="0" y="0">1x</tspan></text>
    <text class="st23" transform="translate(229.6 267.5)"><tspan x="0" y="0">19</tspan></text>
    <text class="st17" transform="translate(414.8 347.2)"><tspan x="0" y="0">2x</tspan></text>
    <text class="st23" transform="translate(438.5 267.5)"><tspan x="0" y="0">23</tspan></text>
    <line class="st7" x1="225.8" y1="355.6" x2="225.8" y2="336.6"/>
    <line class="st7" x1="320.3" y1="355.6" x2="225.8" y2="355.6"/>
    <line class="st7" x1="225.8" y1="270.5" x2="273" y2="270.5"/>
    <line class="st7" x1="225.8" y1="279.9" x2="225.8" y2="270.5"/>
    <line class="st7" x1="225.8" y1="261" x2="225.8" y2="270.5"/>
    <line class="st7" x1="433.7" y1="261" x2="433.7" y2="279.9"/>
    <line class="st7" x1="433.7" y1="355.6" x2="320.3" y2="355.6"/>
    <line class="st7" x1="225.8" y1="327.2" x2="225.8" y2="336.6"/>
    <line class="st7" x1="239.4" y1="317.7" x2="225.8" y2="317.7"/>
    <line class="st7" x1="254.1" y1="308.3" x2="249.4" y2="308.3"/>
    <line class="st7" x1="249.4" y1="289.4" x2="249.4" y2="327.2"/>
    <line class="st7" x1="225.8" y1="289.4" x2="244.7" y2="289.4"/>
    <line class="st7" x1="225.8" y1="279.9" x2="225.8" y2="289.4"/>
    <line class="st7" x1="216.3" y1="317.7" x2="225.8" y2="317.7"/>
    <line class="st7" x1="216.3" y1="336.6" x2="216.3" y2="317.7"/>
    <line class="st7" x1="225.8" y1="336.6" x2="216.3" y2="336.6"/>
    <line class="st7" x1="225.8" y1="336.6" x2="225.8" y2="336.6"/>
    <line class="st7" x1="244.7" y1="289.4" x2="244.7" y2="327.2"/>
    <line class="st7" x1="235.2" y1="324.8" x2="225.8" y2="327.2"/>
    <line class="st7" x1="235.2" y1="329.6" x2="235.2" y2="324.8"/>
    <line class="st7" x1="225.8" y1="327.2" x2="235.2" y2="329.6"/>
    <line class="st7" x1="244.7" y1="327.2" x2="235.2" y2="327.2"/>
    <line class="st7" x1="433.7" y1="327.2" x2="433.7" y2="336.6"/>
    <line class="st7" x1="420.1" y1="317.7" x2="433.7" y2="317.7"/>
    <line class="st7" x1="410.1" y1="289.4" x2="410.1" y2="327.2"/>
    <line class="st7" x1="433.7" y1="289.4" x2="414.8" y2="289.4"/>
    <line class="st7" x1="433.7" y1="279.9" x2="433.7" y2="289.4"/>
    <line class="st7" x1="443.2" y1="317.7" x2="433.7" y2="317.7"/>
    <line class="st7" x1="443.2" y1="336.6" x2="443.2" y2="317.7"/>
    <line class="st7" x1="433.7" y1="336.6" x2="443.2" y2="336.6"/>
    <line class="st7" x1="433.7" y1="336.6" x2="433.7" y2="336.6"/>
    <line class="st7" x1="414.8" y1="289.4" x2="414.8" y2="327.2"/>
    <line class="st7" x1="424.3" y1="324.8" x2="433.7" y2="327.2"/>
    <line class="st7" x1="424.3" y1="329.6" x2="424.3" y2="324.8"/>
    <line class="st7" x1="433.7" y1="327.2" x2="424.3" y2="329.6"/>
    <line class="st7" x1="414.8" y1="327.2" x2="424.3" y2="327.2"/>
    <line class="st7" x1="433.7" y1="355.6" x2="433.7" y2="336.6"/>
    <line class="st7" x1="410.1" y1="308.3" x2="254.1" y2="308.3"/>
    <line class="st7" x1="273" y1="308.3" x2="273" y2="270.5"/>
    <line class="st7" x1="225.8" y1="365" x2="225.8" y2="355.6"/>
    <line class="st7" x1="216.3" y1="365" x2="225.8" y2="365"/>
    <line class="st7" x1="225.8" y1="374.5" x2="216.3" y2="365"/>
    <line class="st7" x1="235.2" y1="365" x2="225.8" y2="374.5"/>
    <line class="st7" x1="225.8" y1="365" x2="235.2" y2="365"/>
  </g>
  <g>
    <text class="st14" transform="translate(379.4 228)"><tspan x="0" y="0">CMSRC</tspan></text>
    <text/>
  </g>
  <text class="st18" transform="translate(248.6 20)"><tspan x="0" y="0">VDD</tspan></text>
  <g>
    <line class="st7" x1="310.9" y1="185.4" x2="301.4" y2="194.9"/>
    <line class="st7" x1="301.4" y1="194.9" x2="263.6" y2="194.9"/>
    <line class="st7" x1="263.6" y1="194.9" x2="263.6" y2="176"/>
    <line class="st7" x1="263.6" y1="176" x2="301.4" y2="176"/>
    <line class="st7" x1="301.4" y1="176" x2="310.9" y2="185.4"/>
  </g>
  <g>
    <text class="st15" transform="translate(269.1 190.4)"><tspan x="0" y="0">INn</tspan></text>
    <text/>
  </g>
  <g>
    <line class="st7" x1="547.1" y1="185.4" x2="556.6" y2="176"/>
    <line class="st7" x1="556.6" y1="176" x2="594.4" y2="176"/>
    <line class="st7" x1="594.4" y1="176" x2="594.4" y2="194.9"/>
    <line class="st7" x1="594.4" y1="194.9" x2="556.6" y2="194.9"/>
    <line class="st7" x1="556.6" y1="194.9" x2="547.1" y2="185.4"/>
  </g>
  <g>
    <text class="st15" transform="translate(566.8 190.4)"><tspan x="0" y="0">INp</tspan></text>
    <text/>
  </g>
  <g>
    <line class="st7" x1="282.5" y1="128.7" x2="273" y2="138.2"/>
    <line class="st7" x1="320.3" y1="147.6" x2="282.5" y2="147.6"/>
    <line class="st7" x1="320.3" y1="147.6" x2="320.3" y2="128.7"/>
    <line class="st7" x1="282.5" y1="128.7" x2="320.3" y2="128.7"/>
    <line class="st7" x1="273" y1="138.2" x2="282.5" y2="147.6"/>
    <line class="st7" x1="320.3" y1="138.2" x2="329.8" y2="138.2"/>
  </g>
  <text class="st15" transform="translate(280.1 143.1)"><tspan x="0" y="0">OUTp</tspan></text>
  <g>
    <line class="st7" x1="575.5" y1="147.6" x2="585" y2="138.2"/>
    <line class="st7" x1="537.7" y1="128.7" x2="575.5" y2="128.7"/>
    <line class="st7" x1="537.7" y1="128.7" x2="537.7" y2="147.6"/>
    <line class="st7" x1="575.5" y1="147.6" x2="537.7" y2="147.6"/>
    <line class="st7" x1="585" y1="138.2" x2="575.5" y2="128.7"/>
    <line class="st7" x1="537.7" y1="138.2" x2="528.2" y2="138.2"/>
  </g>
  <text class="st15" transform="translate(540.1 143.1)"><tspan x="0" y="0">OUTn</tspan></text>
  <g>
    <g class="st19">
      <text class="st13" transform="translate(167.5 282.4)"><tspan x="0" y="0">I</tspan></text>
    </g>
    <g class="st19">
      <text class="st16" transform="translate(173.6 286.3)"><tspan x="0" y="0">REF</tspan></text>
    </g>
    <g>
      <line class="st0" x1="215.6" y1="251.6" x2="215.6" y2="290.2"/>
      <g>
        <line class="st1" x1="215.6" y1="251.6" x2="215.6" y2="277.4"/>
        <polygon class="st9" points="215.6 290.2 208.3 272.4 215.6 276.5 223 272.4 215.6 290.2"/>
      </g>
    </g>
  </g>
  <g class="st19">
    <text class="st21" transform="translate(159.2 157.1) rotate(-90)"><tspan x="0" y="0">On MOSbius PCB</tspan></text>
  </g>
  <line class="st0" x1="316.6" y1="73.1" x2="280.7" y2="47.6"/>
  <g>
    <g class="st19">
      <text class="st13" transform="translate(355.7 272.5)"><tspan x="0" y="0">8xI</tspan></text>
    </g>
    <g class="st19">
      <text class="st16" transform="translate(380.8 276.5)"><tspan x="0" y="0">REF</tspan></text>
    </g>
    <g>
      <line class="st0" x1="422.9" y1="241.8" x2="422.9" y2="280.3"/>
      <g>
        <line class="st1" x1="422.9" y1="241.8" x2="422.9" y2="267.6"/>
        <polygon class="st9" points="422.9 280.3 415.5 262.6 422.9 266.7 430.2 262.6 422.9 280.3"/>
      </g>
    </g>
  </g>
  <g>
    <g class="st19">
      <text class="st22" transform="translate(495 293.8)"><tspan x="0" y="0">CCS</tspan></text>
    </g>
    <line class="st8" x1="490.5" y1="306" x2="490.5" y2="322.2"/>
    <line class="st8" x1="490.5" y1="301.3" x2="490.5" y2="284.9"/>
    <line class="st8" x1="481.2" y1="301.3" x2="499.7" y2="301.3"/>
    <line class="st8" x1="481.2" y1="306" x2="499.7" y2="306"/>
  </g>
  <line class="st0" x1="578.2" y1="279.9" x2="576.9" y2="279.9"/>
  <line class="st3" x1="490.5" y1="284.9" x2="471.5" y2="232.7"/>
  <line class="st3" x1="490.5" y1="322.2" x2="462.1" y2="355.6"/>
  <circle cx="471.5" cy="232.7" r="2.7"/>
  <circle cx="490.5" cy="24.8" r="2.7"/>
  <circle cx="462.1" cy="354.3" r="2.7"/>
  <line class="st8" x1="28.4" y1="274.4" x2="28.2" y2="234.6"/>
  <g>
    <g class="st19">
      <g class="st19">
        <g class="st19">
          <g class="st19">
            <text class="st11" transform="translate(40.9 320)"><tspan x="0" y="0">2.5V</tspan></text>
          </g>
        </g>
      </g>
    </g>
    <line class="st8" x1="24.2" y1="284.9" x2="32.5" y2="284.9"/>
    <line class="st8" x1="24.2" y1="305.7" x2="32.5" y2="305.7"/>
    <line class="st8" x1="28.4" y1="280.8" x2="28.4" y2="289"/>
    <line class="st8" x1="28.4" y1="356.2" x2="28.4" y2="312.1"/>
    <line class="st8" x1="28.4" y1="274.4" x2="28.4" y2="278.6"/>
    <circle class="st5" cx="28.4" cy="295.3" r="16.7" transform="translate(-267.8 313.9) rotate(-88.1)"/>
  </g>
  <g>
    <line class="st8" x1="20" y1="226.2" x2="28.4" y2="234.6"/>
    <line class="st8" x1="36.7" y1="190.7" x2="36.7" y2="226.2"/>
    <line class="st8" x1="20" y1="226.2" x2="20" y2="190.7"/>
    <line class="st8" x1="28.4" y1="234.6" x2="36.7" y2="226.2"/>
    <line class="st8" x1="28.4" y1="182.3" x2="36.7" y2="190.7"/>
    <line class="st8" x1="28.4" y1="182.3" x2="20" y2="190.7"/>
  </g>
  <g class="st19">
    <g class="st19">
      <g class="st19">
        <g class="st19">
          <text class="st20" transform="translate(32.7 220.6) rotate(-90)"><tspan x="0" y="0">VDD</tspan></text>
        </g>
      </g>
    </g>
  </g>
  <g>
    <g class="st19">
      <g class="st19">
        <g class="st19">
          <g class="st19">
            <text class="st20" transform="translate(127.9 323.3)"><tspan x="0" y="0">CREF</tspan></text>
          </g>
        </g>
      </g>
    </g>
    <line class="st8" x1="123.2" y1="334.3" x2="123.2" y2="356.2"/>
    <line class="st8" x1="123.2" y1="330.1" x2="123" y2="286.2"/>
    <line class="st8" x1="114.8" y1="330.1" x2="131.4" y2="330.1"/>
    <line class="st8" x1="114.8" y1="334.3" x2="131.4" y2="334.3"/>
  </g>
  <g>
    <line class="st8" x1="88.3" y1="303.1" x2="88.3" y2="298.8"/>
    <line class="st8" x1="88.3" y1="298.8" x2="79.9" y2="294.8"/>
    <line class="st8" x1="79.9" y1="294.8" x2="96.6" y2="286.2"/>
    <line class="st8" x1="96.6" y1="286.2" x2="79.9" y2="277.9"/>
    <line class="st8" x1="79.9" y1="277.9" x2="96.6" y2="269.5"/>
    <line class="st8" x1="88.3" y1="265.6" x2="88.3" y2="261.3"/>
    <line class="st8" x1="96.6" y1="269.5" x2="88.3" y2="265.6"/>
    <line class="st8" x1="123" y1="286.2" x2="100.8" y2="286.2"/>
    <line class="st8" x1="105" y1="282.2" x2="100.8" y2="286.2"/>
    <line class="st8" x1="105" y1="290.4" x2="100.8" y2="286.2"/>
  </g>
  <line class="st8" x1="88.3" y1="245.5" x2="28.8" y2="245.5"/>
  <line class="st8" x1="226.9" y1="355.8" x2="28.9" y2="356.7"/>
  <line class="st8" x1="88.3" y1="356.2" x2="88.3" y2="300"/>
  <line class="st8" x1="88.3" y1="260.3" x2="88.3" y2="245.5"/>
  <g>
    <g class="st19">
      <g class="st19">
        <g class="st19">
          <g class="st19">
            <text class="st10" transform="translate(113.7 275)"><tspan x="0" y="0">V</tspan></text>
          </g>
        </g>
      </g>
    </g>
    <g class="st19">
      <g class="st19">
        <g class="st19">
          <g class="st19">
            <text class="st12" transform="translate(121.9 278.2)"><tspan x="0" y="0">REF</tspan></text>
          </g>
        </g>
      </g>
    </g>
  </g>
  <g>
    <g class="st19">
      <text class="st22" transform="translate(401.1 128.6)"><tspan x="0" y="0">CL</tspan></text>
    </g>
    <line class="st8" x1="393.8" y1="138.1" x2="377.6" y2="138.1"/>
    <line class="st8" x1="398.5" y1="138.1" x2="414.9" y2="138.1"/>
    <line class="st8" x1="398.5" y1="147.4" x2="398.5" y2="128.9"/>
    <line class="st8" x1="393.8" y1="147.4" x2="393.8" y2="128.9"/>
  </g>
  <g>
    <g class="st19">
      <text class="st22" transform="translate(439.8 128.7)"><tspan x="0" y="0">CL</tspan></text>
    </g>
    <line class="st8" x1="464.5" y1="138.1" x2="480.7" y2="138.1"/>
    <line class="st8" x1="459.8" y1="138.1" x2="443.4" y2="138.1"/>
    <line class="st8" x1="459.8" y1="147.5" x2="459.8" y2="129"/>
    <line class="st8" x1="464.5" y1="147.5" x2="464.5" y2="129"/>
  </g>
  <line class="st6" x1="414.9" y1="138.1" x2="444.8" y2="138.1"/>
  <line class="st6" x1="380.5" y1="138.1" x2="367.6" y2="138.2"/>
  <line class="st6" x1="489.9" y1="138.2" x2="480.7" y2="138.1"/>
</svg>